<mxfile host="Electron" agent="Mozilla/5.0 (Windows NT 10.0; Win64; x64) AppleWebKit/537.36 (KHTML, like Gecko) draw.io/26.0.9 Chrome/128.0.6613.186 Electron/32.2.5 Safari/537.36" version="26.0.9">
  <diagram name="Page-1" id="uA4BpJtj0CUcpXGro3Uc">
    <mxGraphModel dx="1434" dy="836" grid="1" gridSize="10" guides="1" tooltips="1" connect="1" arrows="1" fold="1" page="1" pageScale="1" pageWidth="850" pageHeight="1100" background="none" math="0" shadow="0">
      <root>
        <mxCell id="0" />
        <mxCell id="1" parent="0" />
        <mxCell id="SRzlekF5WkanAZLblf2s-4" style="edgeStyle=orthogonalEdgeStyle;rounded=0;orthogonalLoop=1;jettySize=auto;html=1;exitX=1;exitY=0.5;exitDx=0;exitDy=0;" parent="1" source="SRzlekF5WkanAZLblf2s-1" target="SRzlekF5WkanAZLblf2s-3" edge="1">
          <mxGeometry relative="1" as="geometry" />
        </mxCell>
        <mxCell id="SRzlekF5WkanAZLblf2s-1" value="Barcode Scan" style="rounded=0;whiteSpace=wrap;html=1;" parent="1" vertex="1">
          <mxGeometry x="159.71" y="160" width="80" height="40" as="geometry" />
        </mxCell>
        <mxCell id="SRzlekF5WkanAZLblf2s-2" value="&lt;div&gt;Possible Recipes:&amp;nbsp;&lt;/div&gt;&lt;div&gt;https://www.food.com/recipe/zippy-burgers-348803&amp;nbsp;&lt;/div&gt;&lt;div&gt;(Allergies: Dairy)&lt;/div&gt;&lt;div&gt;https://www.allrecipes.com/recipe/19863/best-burger-ever/&amp;nbsp;&lt;/div&gt;&lt;div&gt;(Allergies: Dairy)&lt;/div&gt;" style="rounded=0;whiteSpace=wrap;html=1;" parent="1" vertex="1">
          <mxGeometry x="50" y="370" width="250" height="120" as="geometry" />
        </mxCell>
        <mxCell id="SRzlekF5WkanAZLblf2s-9" style="edgeStyle=orthogonalEdgeStyle;rounded=0;orthogonalLoop=1;jettySize=auto;html=1;exitX=1;exitY=0.5;exitDx=0;exitDy=0;" parent="1" source="SRzlekF5WkanAZLblf2s-3" target="SRzlekF5WkanAZLblf2s-7" edge="1">
          <mxGeometry relative="1" as="geometry" />
        </mxCell>
        <mxCell id="SRzlekF5WkanAZLblf2s-3" value="Food labels&lt;br&gt;information" style="rounded=0;whiteSpace=wrap;html=1;" parent="1" vertex="1">
          <mxGeometry x="319.71" y="160" width="80" height="40" as="geometry" />
        </mxCell>
        <mxCell id="SRzlekF5WkanAZLblf2s-11" style="edgeStyle=orthogonalEdgeStyle;rounded=0;orthogonalLoop=1;jettySize=auto;html=1;exitX=1;exitY=0.5;exitDx=0;exitDy=0;" parent="1" source="SRzlekF5WkanAZLblf2s-5" target="SRzlekF5WkanAZLblf2s-7" edge="1">
          <mxGeometry relative="1" as="geometry">
            <Array as="points">
              <mxPoint x="440" y="80" />
              <mxPoint x="440" y="180" />
            </Array>
          </mxGeometry>
        </mxCell>
        <mxCell id="SRzlekF5WkanAZLblf2s-5" value="&lt;div&gt;Text Input:&lt;/div&gt;&lt;div&gt;Zipburger: Signature blend 6 oz pattiy,&amp;nbsp;&lt;/div&gt;&lt;div&gt;ground fresh meat and delivered daily&amp;nbsp;&lt;/div&gt;&lt;div&gt;from our friend ay Avril-Bleh Meat Market&lt;/div&gt;" style="rounded=0;whiteSpace=wrap;html=1;" parent="1" vertex="1">
          <mxGeometry x="159.70999999999998" y="40" width="210" height="80" as="geometry" />
        </mxCell>
        <mxCell id="SRzlekF5WkanAZLblf2s-13" style="edgeStyle=orthogonalEdgeStyle;rounded=0;orthogonalLoop=1;jettySize=auto;html=1;exitX=0.5;exitY=1;exitDx=0;exitDy=0;" parent="1" source="SRzlekF5WkanAZLblf2s-8" target="SRzlekF5WkanAZLblf2s-12" edge="1">
          <mxGeometry relative="1" as="geometry">
            <Array as="points">
              <mxPoint x="695" y="260" />
              <mxPoint x="695" y="260" />
            </Array>
          </mxGeometry>
        </mxCell>
        <mxCell id="SRzlekF5WkanAZLblf2s-46" style="edgeStyle=orthogonalEdgeStyle;rounded=0;orthogonalLoop=1;jettySize=auto;html=1;exitX=0;exitY=0.5;exitDx=0;exitDy=0;" parent="1" source="SRzlekF5WkanAZLblf2s-12" target="SRzlekF5WkanAZLblf2s-20" edge="1">
          <mxGeometry relative="1" as="geometry" />
        </mxCell>
        <mxCell id="SRzlekF5WkanAZLblf2s-53" style="edgeStyle=orthogonalEdgeStyle;rounded=0;orthogonalLoop=1;jettySize=auto;html=1;exitX=0.75;exitY=1;exitDx=0;exitDy=0;entryX=0.75;entryY=0;entryDx=0;entryDy=0;" parent="1" source="SRzlekF5WkanAZLblf2s-12" target="SRzlekF5WkanAZLblf2s-14" edge="1">
          <mxGeometry relative="1" as="geometry" />
        </mxCell>
        <mxCell id="SRzlekF5WkanAZLblf2s-55" style="edgeStyle=orthogonalEdgeStyle;rounded=0;orthogonalLoop=1;jettySize=auto;html=1;exitX=0;exitY=0.75;exitDx=0;exitDy=0;entryX=1;entryY=0.5;entryDx=0;entryDy=0;" parent="1" source="SRzlekF5WkanAZLblf2s-12" target="SRzlekF5WkanAZLblf2s-20" edge="1">
          <mxGeometry relative="1" as="geometry">
            <Array as="points">
              <mxPoint x="655" y="330" />
              <mxPoint x="620" y="330" />
              <mxPoint x="620" y="430" />
            </Array>
          </mxGeometry>
        </mxCell>
        <mxCell id="SRzlekF5WkanAZLblf2s-12" value="Recipe Ranker" style="rounded=0;whiteSpace=wrap;html=1;" parent="1" vertex="1">
          <mxGeometry x="655" y="292.65999999999997" width="80" height="40" as="geometry" />
        </mxCell>
        <mxCell id="SRzlekF5WkanAZLblf2s-54" style="edgeStyle=orthogonalEdgeStyle;rounded=0;orthogonalLoop=1;jettySize=auto;html=1;exitX=0.25;exitY=0;exitDx=0;exitDy=0;entryX=0.25;entryY=1;entryDx=0;entryDy=0;" parent="1" source="SRzlekF5WkanAZLblf2s-14" target="SRzlekF5WkanAZLblf2s-12" edge="1">
          <mxGeometry relative="1" as="geometry" />
        </mxCell>
        <mxCell id="SRzlekF5WkanAZLblf2s-14" value="Recipes Database" style="rounded=0;whiteSpace=wrap;html=1;" parent="1" vertex="1">
          <mxGeometry x="655" y="400" width="80" height="40" as="geometry" />
        </mxCell>
        <mxCell id="SRzlekF5WkanAZLblf2s-31" value="Text Processing Module" style="swimlane;whiteSpace=wrap;html=1;" parent="1" vertex="1">
          <mxGeometry x="485" y="120" width="270" height="100" as="geometry" />
        </mxCell>
        <mxCell id="SRzlekF5WkanAZLblf2s-8" value="Natural Language Model" style="rounded=0;whiteSpace=wrap;html=1;" parent="SRzlekF5WkanAZLblf2s-31" vertex="1">
          <mxGeometry x="160" y="40" width="100" height="40" as="geometry" />
        </mxCell>
        <mxCell id="SRzlekF5WkanAZLblf2s-7" value="Text Tokenizer" style="rounded=0;whiteSpace=wrap;html=1;" parent="SRzlekF5WkanAZLblf2s-31" vertex="1">
          <mxGeometry x="10" y="40" width="80" height="40" as="geometry" />
        </mxCell>
        <mxCell id="SRzlekF5WkanAZLblf2s-10" style="edgeStyle=orthogonalEdgeStyle;rounded=0;orthogonalLoop=1;jettySize=auto;html=1;exitX=1;exitY=0.5;exitDx=0;exitDy=0;" parent="SRzlekF5WkanAZLblf2s-31" source="SRzlekF5WkanAZLblf2s-7" target="SRzlekF5WkanAZLblf2s-8" edge="1">
          <mxGeometry relative="1" as="geometry" />
        </mxCell>
        <mxCell id="SRzlekF5WkanAZLblf2s-36" style="edgeStyle=orthogonalEdgeStyle;rounded=0;orthogonalLoop=1;jettySize=auto;html=1;" parent="1" source="SRzlekF5WkanAZLblf2s-51" target="SRzlekF5WkanAZLblf2s-33" edge="1">
          <mxGeometry relative="1" as="geometry">
            <mxPoint x="275" y="330" as="sourcePoint" />
          </mxGeometry>
        </mxCell>
        <mxCell id="SRzlekF5WkanAZLblf2s-39" value="Image Processing Module" style="swimlane;whiteSpace=wrap;html=1;" parent="1" vertex="1">
          <mxGeometry x="320" y="247.66" width="270" height="105" as="geometry" />
        </mxCell>
        <mxCell id="SRzlekF5WkanAZLblf2s-33" value="Impage Preprocessor" style="rounded=0;whiteSpace=wrap;html=1;" parent="SRzlekF5WkanAZLblf2s-39" vertex="1">
          <mxGeometry x="20" y="45" width="80" height="40" as="geometry" />
        </mxCell>
        <mxCell id="SRzlekF5WkanAZLblf2s-35" value="Image Classifier" style="rounded=0;whiteSpace=wrap;html=1;" parent="SRzlekF5WkanAZLblf2s-39" vertex="1">
          <mxGeometry x="180" y="45" width="80" height="40" as="geometry" />
        </mxCell>
        <mxCell id="SRzlekF5WkanAZLblf2s-37" style="edgeStyle=orthogonalEdgeStyle;rounded=0;orthogonalLoop=1;jettySize=auto;html=1;exitX=1;exitY=0.5;exitDx=0;exitDy=0;" parent="SRzlekF5WkanAZLblf2s-39" source="SRzlekF5WkanAZLblf2s-33" target="SRzlekF5WkanAZLblf2s-35" edge="1">
          <mxGeometry relative="1" as="geometry" />
        </mxCell>
        <mxCell id="SRzlekF5WkanAZLblf2s-45" style="edgeStyle=orthogonalEdgeStyle;rounded=0;orthogonalLoop=1;jettySize=auto;html=1;exitX=1;exitY=0.5;exitDx=0;exitDy=0;" parent="1" source="SRzlekF5WkanAZLblf2s-35" target="SRzlekF5WkanAZLblf2s-12" edge="1">
          <mxGeometry relative="1" as="geometry" />
        </mxCell>
        <mxCell id="SRzlekF5WkanAZLblf2s-47" value="Allergen Detection Module" style="swimlane;whiteSpace=wrap;html=1;" parent="1" vertex="1">
          <mxGeometry x="337.5" y="370" width="235" height="170" as="geometry" />
        </mxCell>
        <mxCell id="SRzlekF5WkanAZLblf2s-20" value="Text Parser" style="rounded=0;whiteSpace=wrap;html=1;" parent="SRzlekF5WkanAZLblf2s-47" vertex="1">
          <mxGeometry x="147.5" y="40" width="80" height="40" as="geometry" />
        </mxCell>
        <mxCell id="SRzlekF5WkanAZLblf2s-49" style="edgeStyle=orthogonalEdgeStyle;rounded=0;orthogonalLoop=1;jettySize=auto;html=1;exitX=0.25;exitY=1;exitDx=0;exitDy=0;entryX=0.25;entryY=0;entryDx=0;entryDy=0;" parent="SRzlekF5WkanAZLblf2s-47" source="SRzlekF5WkanAZLblf2s-21" target="SRzlekF5WkanAZLblf2s-24" edge="1">
          <mxGeometry relative="1" as="geometry" />
        </mxCell>
        <mxCell id="SRzlekF5WkanAZLblf2s-21" value="Allergen Ranker" style="rounded=0;whiteSpace=wrap;html=1;" parent="SRzlekF5WkanAZLblf2s-47" vertex="1">
          <mxGeometry x="7.5" y="40" width="80" height="40" as="geometry" />
        </mxCell>
        <mxCell id="SRzlekF5WkanAZLblf2s-29" style="edgeStyle=orthogonalEdgeStyle;rounded=0;orthogonalLoop=1;jettySize=auto;html=1;exitX=0.75;exitY=1;exitDx=0;exitDy=0;" parent="SRzlekF5WkanAZLblf2s-47" source="SRzlekF5WkanAZLblf2s-24" target="SRzlekF5WkanAZLblf2s-21" edge="1">
          <mxGeometry relative="1" as="geometry">
            <Array as="points">
              <mxPoint x="47.5" y="90" />
              <mxPoint x="47.5" y="90" />
            </Array>
          </mxGeometry>
        </mxCell>
        <mxCell id="SRzlekF5WkanAZLblf2s-24" value="Allergen Database" style="rounded=0;whiteSpace=wrap;html=1;" parent="SRzlekF5WkanAZLblf2s-47" vertex="1">
          <mxGeometry x="7.5" y="110" width="80" height="40" as="geometry" />
        </mxCell>
        <mxCell id="SRzlekF5WkanAZLblf2s-23" style="edgeStyle=orthogonalEdgeStyle;rounded=0;orthogonalLoop=1;jettySize=auto;html=1;exitX=0;exitY=0.5;exitDx=0;exitDy=0;" parent="SRzlekF5WkanAZLblf2s-47" source="SRzlekF5WkanAZLblf2s-20" target="SRzlekF5WkanAZLblf2s-21" edge="1">
          <mxGeometry relative="1" as="geometry" />
        </mxCell>
        <mxCell id="SRzlekF5WkanAZLblf2s-50" style="edgeStyle=orthogonalEdgeStyle;rounded=0;orthogonalLoop=1;jettySize=auto;html=1;exitX=0;exitY=0.5;exitDx=0;exitDy=0;" parent="1" source="SRzlekF5WkanAZLblf2s-21" target="SRzlekF5WkanAZLblf2s-2" edge="1">
          <mxGeometry relative="1" as="geometry" />
        </mxCell>
        <mxCell id="SRzlekF5WkanAZLblf2s-51" value="" style="shape=image;verticalLabelPosition=bottom;labelBackgroundColor=default;verticalAlign=top;aspect=fixed;imageAspect=0;image=data:image/webp,UklGRnYPAQBXRUJQVlA4WAoAAAAoAAAA4wIA7AEASUNDUMgBAAAAAAHIbGNtcwIQAABtbnRyUkdCIFhZWiAH4gADABQACQAOAB1hY3NwTVNGVAAAAABzYXdzY3RybAAAAAAAAAAAAAAAAAAA9tYAAQAAAADTLWhhbmSdkQA9QICwPUB0LIGepSKOAAAAAAAAAAAAAAAAAAAAAAAAAAAAAAAAAAAAAAAAAAlkZXNjAAAA8AAAAF9jcHJ0AAABDAAAAAx3dHB0AAABGAAAABRyWFlaAAABLAAAABRnWFlaAAABQAAAABRiWFlaAAABVAAAABRyVFJDAAABaAAAAGBnVFJDAAABaAAAAGBiVFJDAAABaAAAAGBkZXNjAAAAAAAAAAV1UkdCAAAAAAAAAAAAAAAAdGV4dAAAAABDQzAAWFlaIAAAAAAAAPNUAAEAAAABFslYWVogAAAAAAAAb6AAADjyAAADj1hZWiAAAAAAAABilgAAt4kAABjaWFlaIAAAAAAAACSgAAAPhQAAtsRjdXJ2AAAAAAAAACoAAAB8APgBnAJ1A4MEyQZOCBIKGAxiDvQRzxT2GGocLiBDJKwpai5+M+s5sz/WRldNNlR2XBdkHWyGdVZ+jYgskjacq6eMstu+mcrH12Xkd/H5//9WUDggxgwBANDzA50BKuQC7QE+USKORaOiIScnFSxY4AoJTZleYs3sK4d2RvU/J0Nu2Q5/Pq62qOL/Fz2cg+9P73m+cl95P0j8L/n/eF/udmHv3/U8yb2Lvhf971jf0P/g+wd/Qf8d+0/uu/+fsJ81v7l/uN7vnp//vXqJf2H/t9cZ6JXm///b2iv7d/5/3a9tb//9ndzf8SHyzrr/NPtn+Z/i/3k9nXL/23/93+89TP6F+oP73+h9TvDH6N6iP5x/ZPOsj2drP0/RB+EPyn7R+rD+t58ft/qEf0n/E/932G/8/i8+qfuf8A39j/zn/w/1/5efM/9i+kj9p/5P/1/3nwD/0X/B/s17eH///8Hw3/ef//+6/+23///6TLyhK0mLYPMrOcmzdFr3p+0Xoj1WWe+6qB0KuY4Z4SqthYb0zCvciMxRblFRZkKaoAJN/6Yk0rvsWUYZeRumfWZdaaqQxFmixsDcjqU3Z/Wsvt/tbLJvzGqxkooOOFvuOVPhqTBv/cZ5/6FeHFBnsMBceI2Ny++cMnB2lszJfwyTwMn9JL58omSVUpuhoyg24zfbjV0JLOJPn69rNFXg+FcLqpNw3QRshyk4XAEb3OHO4zR1FB9yO9+wIVmP8DfYtBH1+cwMHHpaetiuYiCHJHgH+/O7LIMyl3YtoGKcP0dvQ7GZzHCnBrDxnyR123vhpyRQVVFHdGAdgjP0jj4ymlzl/k7FynC3NoiM83/+O11/wYJ+S+xVdB2/GvhKx+1HKqT4atPai0NiLVxC8JScopaqlSWnzWXcaM9nZb/8Uo7rFN7+wXdkiiLOS369rfU7qQKUgQaoKzXMQvMPDlfVojH4EuXL7i+2IeHlikjqEDM+UlmXbPJy6gBIbRxZKrGOLHPdLnkEjX9Z+/odP0fnyxBNWCNNLmf5MAeuXlTS4ZAf8TFhaZN/vvAp8e4ardKRiI8UR3dlSjfXKj/hy0UMaxlB4MrVQALN9+v3YpujuOqTi0phf6Nedq9jc6LVj2nLl6wyU9DaQYwts2CUMy0gSgT9KOVPEMbCmcfGK6SixupXMV/TL7AbyeQbDaXatFflestfAx5VJ7rnjEyzTjkWdunxFCFVTKmFznb/PdJtnb+XcxXf4JmDzgIB8GUJxCrGEl07fMdVQvbfAPRWCVeky1gHrbAXM/kSJ6rysbRvQKltioHOYjNvRH2x8O+q3YWFrah7x1B8zuKJhLBbWdQYUyw5p+2z7CKrfEzOGl12reBs5Dpr8v4QwyQvHhChIEtmN3itMxE2eF48aPVa0iTW+4Fux+NIn1I1QyOuvo2+jTaSwVyobUUb+pYuo2M/h8tvw1NUkhT5tQbIV7KtjuCIFlg24siNBfZ+u+TZEfjwjm1zkIxIggG55l7DGrJmJA+lwtwQrSFWtzQZTfa8sUrlTz8TXu9aek5ltZCQzE9JwSc5RWDyNzo85lGP097huTY8HWHjC2OihcxmYMJgb7gqwoe5TfVUwMMO2YdGsP5SxRvms4ZTkLbghdPFf62fMOc4uX7T+bnTaNehcUAIR/loK/L3AHkbEzU12He1MPdPmQSamrhkwawHnLO32CMwXMwdqsXBCiVAvP0zxNww72xujrqzivkeTJkil+snBKZdMD8HrHn+qxGIO7nIaTtc1EGVMySKW32bVXT8Ol7E69c+nOJ3n8+e4my5ez7L3Kv7zEbq71ewAzNbeQ09azqRgVeELRkJxWjhoITP+UlI5LwVmViSf29XtTJn7k/ujVYS+Ds15A8s1tOzw0nufQwhyT8RHuxNBRYil9OPWwEdSh31VGhodtp9ctQXF5+m3Ihcy+iqxRoH9OHrTtkhGcvmZko31FHkv/hMSHLvi8iUUp0xgLY4pSpzQNA/4F4RMHf/s/2ae4oYLGM9X94nBNhpDLWMAtQabPbbB0BZTsooHXxk/U6+xKtWJxqHcD5ThHCuTVTdE4oEolaR24xo5xkRs3F85Cb8/0Ay+n2PeTZOpaDlKY+fzwh6eX41i9r1kQV+PXaWJFTfvSCZBia+0gx/Hh2Cd9fG+ETwcyK7hjWAV2Jk4d3f5ej8zKOJPfFWytjbp6D8bbYvJGLpdN3POe8LHlobuLVAfa6QpqvhNW4vcXsBNAxTXOHze2pDlWSrKIVCITVQuGbbDZBZX5Ax/fgOrMj3hOQzCwrJikuWIyYWtbl8h270wu2bBnjqmb1qQpw9yKKIqmi8yhPxhaO7dGt49GDELVUzyAED6pTHr08EiMWyDWv1VhMh2o/NVkLlobNBYHz2/MN8CZqfyBPWUY/Ua2PxJGFKu+tatRsJ88s892CP6Y1eSi//lChnK6dEK70pp1m8rsKIFEgkj81ah00G05RSOQ/Mef0EpcmVqji4fHJE4CRoDVrwWkEA9wI4GN+cxO/g3dHDI/9+shRoxieUzRSjIhStjfGIv4Wh7PTkSO2MDFQ3SssnUT55N7KKfQ3xBUh3gwzqaqdo1DLJu9D5W9VMT0bW9jaf6+HpOOKRmKRlRAynGMvdaYZLGNYpfiWXsrjuQUiBSxPnEvul/wNb/eYjTUiItkaF1YCHKPOtJj0WLrmnvb2WReTHkjTfN4fnT0OPdh3pGWrMziN5VwjT3qhg8iF94CBm+ljiyPDfcDQgKqIa8/FBqtpq6RXkGyAKsBrqzaGfn7XKeE/3BV8i1OPtp9Xe8Tat3T/SnSda9k1IYH2FqNs15iKYqbRExP2aG+Je+ZiR2f+bGgK0x7oyW/T7C8BsWa7Wid1VSK5xa+qp2aF5LhiR0u53rRyGIBSxHDbzQJGI165KdEQjo4NUIC79jjHvOlAbFPpauh4eK3cMhm0BFgIjnvi3Z2pNJNNEy5qL609bd373wOHSGfNWcGUzoXj6KNR1xVRf0yHbe/YfgsHLWsAij1UwykU/s2v2U+/44PjeGbHwHrl9MvWJkfZosykV08ZUNueeA0OXZJTpXdyYlZwxeBIO5poU+u7n76EcyaumO+FOUbJwYGhXP3XCNpjwT7L+lrpfMPXrTSgXrKlzP4WoehbkeUoSu8p18mzbWoHNQ109j0qIqc0SgJ3RrBQGvVPc1ukL2vPqiVc9JvjGRxNV+h2lCI2vX89goTvf2PXOSt/Q7pWKmHlDNmevwFqzr8VbMQdaZ0kWobzD+l/iEtNLEr9c2YxMW9+oP8pidzpokn7KdR3Gty5GhPGDe62PPx1GiWngDcABJBzvwXHmtKrZGIZt0J884YSmXuRwWlYndnFC34Blqgb39XCx6PSkyyZMfAWBaVoS7IpLxPhlUFpDt49LCO7b/kQhwjmDgA9zjmhZK/1p5VvS6bgKCgCfsvSOfLsBrhvVmA/euOWgpAF0fFjHp5WE7xtIxgrA1SbgEdQmhVUhAVJOblEpmml+XJ+Ds9l0/oTPDRJOzhWKvvDAB9STJudTqTeExoE4znbCVBckidpQKWGvMowLx05HM/WGIwAsHhx9gZJVMuzfZR3DLbojYFodu0H2bjTujkzDYBpy1h95PzcWuRVRtdaYcKzEd0SvyJxqEgTkZW2z/SMM1xraQG0CZYQdadPUzNZNqpskqLinjpdJLk7yR+YfVcyuNHABYC0LCfJyQJp5evHgKqTRdkx3+LqLyJwOAAFiNfIIBOAzskrN0/NlHHohZskRK3nBp30xStdaKD32gSroL3Lxk64g5nglmaR0gt05QHfOcC1uLSBBwjQ/O8HUbR/mRc/GKgObDDlvurp/CCSd7bCX42PgXJR0hP9QWuwJ3fZS6WY/JHIktBm/tVhlFZe4tRWQdH1a5Zcc4fcdo00WRJjNqWzO8tCnyB+ilzDVB1SVFzbtn4nP9TX2j3U4Wps6KXM4JsC6e1TTslduiLiQbgb1ooHMLNsp8tj17sAdo+19IfHOOah1lodYuV5b+mWi3JatrITOsxRMNadaFVsanJRaP5afmcJTGAdq9deuaXsiWCd1rJKFDfgYYwvFEX4AwQoQ/TSQU5SjaMuojFXP8G/wUzGIrFdrBrwwSqnZEJUUW18Wt1XtrtIkFMwbpZZWOeAoLLS2tedZTpq46EtlmG+sBowsnzN2NruWdmO/M3HLjV4agmSImnQsdMclGv0C5xOai0hs13VH7YOqEbT3QRATiE0bo8Jok+hpwHZaSM83jO7A1vEmw9/wqREPWFFfwgC//ZRPdFCFQ0YJDasWc5LrIWci4Wt9NzNSBeO0AsgJvVmESrS+fFO2YHPNOVJpDjBg/9a3q/c1YQp5BtbYRAkU/sCXlIGvIsK66m4SCTEcF2aX/fSKoyhIZLKJMi5/ocrqXvRUdKuhnteyDlIEdQQxccvfKXo/02nMSJriFuyOkPLffZYtxWPjX11WRy+Dw5enYQu+NaMHZzQg0hwvOEMHG7rtPPjqxHZvNmrkkUYbUZcRYDT2xGg0ujRfD5UxqNtZlxX38cn5mkHnKu+5gPmm4bawOhCJUbpZQ/sNm0q4CMf3kblDHnA2ukIORXPyLFJbrT/roINg3QrPO4tkfPopuKLhE97rvAHlnJTIsiUh1/fqPueNuAzZcqWcmjheNBa20SQuRcPYigfieuWM3cEHGEQnuZn1uRtV92j/xkrvz58BwLJ2vellFcTtbP8Fgdcpf0WpwBGbMld1E5d71J+Rz5DVMMymzow8pS47eBy7lfzljMXRM/x43uIz99+VcbUmrx+trujOdWK2mUxCxoQMWTb0jxkYEemqf3vcPsGiGStqNnQNvho1aeH0Vtr6VOkWs2aNMyHmfGlPSbO/A7DAeOGMOYev4lIsxQeYO1YGLwZX/A4kdEUmhPtnuOgtohi5twmUN1GCPhLZqIgMDqVVIiX7gi/PJYmj8j3iSvL7YVQAlfcSGcdLGvO4l1eyOGMuto4mdBho7kDzathxuT7oITWR4Nj48aveq7HRS9Mw+NRWhTicwH5rqjum7fu0XWU3xgeqLGZ3/SfI7R78T8yvcuuNsApdxevgfM4zh691jVi/OYcwYNYi23gobiAdGD+RUp6Cz+ltQTMb+BUcyzP++utHk6hi53JAB6P187mOcqa50CX6HUMv1i/y0jJJj+0z4hAu+zVq5yoF6VkI0OLqHgRA4RekIGliSDimfmN9H/OSTv+ur8HsRBYPgdbWQ4eatlSSKuwd4jlOPvWSeWkuYquabKya2iwm1/+/lfuCQVmiG8419pwXqjA1EUFR7hnod0Y9Ke1TB1srybAVf+FH9vSF8JtjWk/pXttG/tJyZSXL/9gvTVkPHTxk5LgtFfqddErwLJ6qKUnlsKtvMkRqGWn2va2jH9f92M+dvTbYGChQmaFmmfKd4k532A6YSBhW7sv+aAW1BEkU/yHSEdr9ukqQqRS70n1m44A7zUVSn2tL0vzCVNXxWNGUl0V2chZsaW40Xf+P2LTCFkQ2WR2ufZyDZjOl8PPg8pMa0ulz+eLAilg89FrCyD+hbalDQm1HeW03OI9wdkFtcw1SkkPIVA7OL/GfYywCBoQvbsDOYm2KSbpuX8OvMlPmil+yNee20sOZM8aslj7o0BGTZx7wkwHhi+wtMFqaU2NdZbXi7O1K9YRASy0otch3UkiT/diMNR+TkyCDHaD3UsqQ4PhMaeoSpSvICq/9MYbxLUysYO2tA/aeOvo3R24N+MA8QA9hV215EqEJqXZTrAqPj+njH5810vxnj7ri6CchZVScL+i+tJ16mnSgQnkRT6jHyn+9CPui8T1saSJxCOqqzE2L8AR3QoWlE72u+dfoGODBxe+69qkMW8zXDC9lCQEuMY3myS79SMEbGUDCgmjvH99eW34ck1n1/VTtdhoAiTQvvRz0ZGOdoESuYO5jijLkaZJicHEpW1ZwQqJ6qzXNO2efvS4Ttl80OhPmoM2/dfWlHrupEhggs1ZVtqra9jtfz66VmzaPhAWeb8wogkXF2Esx9XKmowrGiynxxjvOCGenuPnNHX5ucQtzfdZVb+BwTfFrU9wpgO3s57gIhbhtyaoTy/oQFuXbuTEiQGlHEO3AavUInzx3q1HklD+G6TN1lNyVZWYyW63jw3FDnA1+kncrgq/ba5S/ME+oUGzyWpkn1MRofRTh0oTLmoSL828g6qD80VcMsj1myXwHS5kO7DJvCCXbPJshkc2nczm/ydM3fRToBO8+P7PyS63kbZIf/0IHLIby4qWNmIvCJZVEwx5IT4e6uWW+Wy0TLHf0lEyGdv3N4e7/XPQ4uBA9cnKCEfjcoy4QQEar3odRfulQCJH0+v953QoHdEh1Cl9SLhCT21IB9D/LvlsqzlR/6xz0KxAuKkCk7ynq5vp+SBBKi8J7miWSTD0mC9ZrVkGDJ4Kn5qAxf9V/R73BrMIbIIMgbczO6A9eobKF6V0olZxLAn7ziGcB5ltEzhKwZrerUgstJv5ht6B0/qs6v/p80gsyrkoG5tHm2XftYSB1vmGA/4+Y8EN+z+74s2HxEpaX8eaCFuCOz55dU8suzFKdR37dvncsPnSWZHN6MmoEDErQHKqZ4rChkbdEhrJ9yP5/xTKboQfngrwpBJ+vDQM/54fBDBjjmC3sPgmzGDv3FVxltdJTNE2jhdIyXzrG8FmS6sxbHkRXt5ZBqNrk/fRenb9reaJ9ojc9y+t5tx5LY7rbhIKaAKRLCjXBD8FTRut7ti4vu6Iij2AgN2T1OEK2NMhibnIpg9RmGIb/5mD8t9YnPzYm0slfpJ/dsT4dL5JLP0xBcf+4OwTVTiaK97euGITQsteBDMt36Ysc/jQPNsPDXTNIOtAeFGpnF8LFffRErB2dsuvCacHOis/MYUDWrFEZhnqLJy+x5Up5H29n6EOstqU8kLMnr/dIfUVhRrz8dZExG3AY1Ei4t0mspzM0gCoh0J/9DqDnGe6CAmSZ+Dchr0tP5xTeOK4tOINAY/+bMkkprgFyfrWWauKaHZZE52L9aWLhu6JyfeHyzXTPhznGm33aJDKWN96AI1P1hD7Pk68BHZ+Oy+UHt1L0VymehysGxnCpy9/LeFHzxANGyX/sh6nkYK0B0WaSXkw/vN8FgnWhcb0mXlaiLiqr7Y1iWFhGxqr8zwhKSzyf3mXZGIPymJE+xSgXcQYajbPmo1Z+X4B6VQH92EotwuHht3dZvaJ+ExdLTrCSXIN5tbv8sNLSevCVv7iq6O8KzSULe2R99d7wTGMe7PIzgnz3OTXcIAwKftMKE05fDL1UmoozZUGiH7me/N6ecNfxbc8kZXKZAbf/nsVgub+Xe0JB04k9Kfq/QwMTvaEl/FKF5Tw1Hc1XdRxJW6H0N/tjs9Cz564XBJA4VPqrwSzvGPQLWCaNZiZvLI4tqc3T5wuabd/g4UF7PucVZCbuHRupJuWKjmt6kTp5sMrpd3I7tphdX6c2OJ53xeJdf2UEZueA221mi8FmLzlYLVH9S14OIpjwl+g0/7FBxYA4T68tPpbSl1TPp1JL11p7n6GUvbC0nZ0lLFZO/QFw9qGBg1kKH+umDQhsIpg0zuv0lJPx7DxX8phaWHwGkFTYJJ5X1fcNx1Rb0LiGMlf+rVDsjDdo1RV3scmxejXzYg0MjDz5IZfdU4dBnWEmmd8wkz+s6y/E24iqBeHSMl/SKYVG/2v2k3MFmM7V84VPbZVAS2AFQMNbnVUKyStWH0+gmZXnS+cpEtvQmtALr6FnSSBsKOSbaW4J6D5tKQCkU5skBK8XaGeKYDX9JmPtB4TcHAO0GQg64kGuCcx6Oi+HXKu56XU37rrVp0Wojua2JU3VXvMqTnKAF4G/0GKqIYV6hxKXY11lG4KHirKPjH20BcIylUUpJY/xCsByHcoNWLb+IIyz4Oa/izv6aC7Mej941BrWkKOGdD6uDMPuzHlltYQn8/A/8WNEhZby9HKWvaN5Nis+DVilJSHzLeJZTQxKlLrOi6ANqvdQ0dSHqh11O2pYNel0bkP2PBMnk3EvcDn5moEXaMkZd5Uk1kCNR7jXixkwy9W9jsEwAITYwvAMAfg+VOWU6/2TtpcS6Mmkw1VN1aEm0sXTRBPQhvFChQnxv8Gn1vNBLyGS92QNO3rBMyWCV8Kn1tFTLfmXn4eHlXTFiz3FFYYcXx5d4HMjwEGRcXGAQexPnfdDxBO2UQ2E7TT0xOyt0ZowXEP54/7WbOZb/2cvcyxt0UnD2Lk0q8N48cLEarg/0pf9rilCJeoP98+aTUxJxkr8hAA1GfEwNYcTlPsMUOFzNqRvvpl3kx2cWBvO7otLAyUdASvP1A9fD5LuMIKncrCkrtIR0tK/jMQ3+S/ekcUqwftlKmFxzWUnB2WcsAEOsq+7uaq0fuHAp5Hs1NtNABvsnromVNGvbiG6YnslGrkfmf6/8ycDcS0H4xzLRrIm/16d2V8EF5XHojiKkRPfhHFlYfRInJ+ftpEC5MAzZ3IuZeyjQ78fYdxVTTSL9+GFWmFqHMWgvEihu7QxQroZQ4IK83+wKl1QYTwdN8BsYUaYYPdSEaKukHIjOBQtQie1e15PQGXlhRRKFfQyjIfJ0+tXyhYwTJF/7R66Jkac2SPYi7EcKIqWxq98PrfRKQei08WTwJO/Cc1APAhYzq1xExyr+YEJvCgTKR2tJuJZWFNmlUwA05TrWesi+kR1Y1ZzqWF6232ODwkjvPB4f17J00KWQ3ek7ulIIDL6SdLQOod+uA7HHkFdUQbAU1T5v+l5TAfdWNK7dsObEkvctw6KifFBHjaw70Fz6LDsi4DAGOyNLciOCthfGGvVOz4QAkCKUggtQQtSVQs+hA32w7IN2Q0QJGlfS/8lgVOdPZJVkvRjX5FZ94o/4vuphcQJhUsSpcy2zFCcJHpltNf71n2Bm+tgkIS5KC77rid8qMgXMx2jivUOlo3lmV3O7bmJihJKP1UVQAU1O04GvDZiuZ19THq9Fnnejq5ISUAjDhRryLCTfy+uaeTaht1n1wWH//VZO3yOux5Ddt3plGU5WxJlL6/JiDbfsuFrante/xvL0h40iOSYIH16E0EZBZU9B9gKIgw/rgII5wIGVm4lGHgBlvBqGDwAFHwJM8lK5bthTX3VseVRa64F6fppJSNfjdVNlBmncP8l1/TDVPoXKzVh2Kpmu0e5YvPPSvpCdNguTiEFAHl/dnLlsjbgZs/r/m87E1INQnNXl/4sRI6Dn43QgmL0V+m1SiqVCrityIYzb/G7GuVksGsJts0fkAIBOYrgPyJ4yC5/CA36KuEMfsj6+gr6s2Msa5ioZGY5YHD8LkH9olRiTgckQbVMSNXiP+42QvtLKyUgP/iXQLbpclA4LyFlhTdvKPZC/oiDidMiQTXkj4CphfHMgzNm+l8/VS/zJmTOPl/BgYtGPLw2QK4YK09OYUt3DdPVd+TddJWY5E54mOPdLGy7vl7H2E322lpk5fWx1uP5lvU3dfQ1IxytDMNa4VWNUqQu9YNGa9tuWOYeJSrTT9/rIRylnX5n+KvpIapZBYtLVfY/Gtkpk48G0lNDXVFVaCjETlsjbALYS9rJI3MaK8YFzZ8QXEY1JQLvV5UzkQovgDT+/YC6JiMk6gGmLXT9Lx0yZAXOJPLh+qsSzgjLqpsY0eSZqTy/rnTb2b55Dpg/VRI/6lLwHLVaz+w7HaVd08S29m3oJ9LXfrUAcPvHMAgY/s+XzUTehDodYPteRe7vkMAnZGR5dHwnjh/D7cylOhqXFTwUWJfrga3MWgZrShfldkEWo0nwC/jYdFL+8NDTcxgrKn2jFP/CExLX32VysTgufFRi2fo4wLKdZ+6H+GEmnCTUIdYHYVDyYxPVQKG1lVp+QqCM63rgcUlt0ZsNT1BsEqKxcRWKz/G78jJvnRPYZMkD7e//+JgCQ16dPIG7z6eRIU4fAp5Cb+JoM6vd34gVCF+RFHWcM6oFBl8VsbhxCaeR4JctLE8Poz1ZcL/DIeIoGNkDbERa8MIe1pdvGLcGHSDriSOXiP92blzvGcpPjO/1ibJaH8jkaYgaHP/J72gPnyJeEiEZlwfNcYcBzujgvZ6ZfWSngNC2kEoUtpvReNFp1Llq2RTKnEACwE9W8cnLvpvurjje4cuMvDMPiAGF0zP2HfR+geeN/C1pgL7bUGFg54OwnhB4BnwNebzzrSEzay92GVGzPe/rdUQjCw33n/d7y+6EYO1mtdZTRGXn8SO3w1+kb4XggAcs9ueNx6VnrqF7bJ+ej/PgCF7zRXreU64JJYgLTDC3ckj/o/CpqnVNWFUZQ1iW87Icd/r1/0GHM/mA3k+OlKO56teX0Zh7orP/58WTzp6C8JxUy335k+7phdCknt3e4DUUsOirjCQH2x6btq9tQDXn8n3n1eSwFkht2TRoNND1tbBNjBcVrO6OLdIPJwpy0Ci0jrWHDtKcfRjoXyRwFcMTTuBclSf/CpWdxUBc8BUT6z5q+1BCzNTLFLNN0a1c3pTw5XtNeXCb2j1xjACt3VGLM0GgLm3WA/eP2vsUJqHJUXGOUWLjXcM9O3ZO0CiYgLqTwGhj+UkeFW+6hVCk62BuHjzjfgFC0e+IpkDgVv4EgQViyotfB1EYhxXIDXhlT8ckZ/8qWtsChrIU7H4fU4fyL4swZ2URdQTuf4zggxU5iyI+pEz42fu1/ln4ZdientCYT5yQNly03/Big1Uw8broKzOzFkMDszzY1sI3crKzxti9gnZTpAqeYNzUc2wCvrg1qOtgK+OqF4Gcs8qZuzDSZ88MSu0E3/1K8qx9aEi8jHuf5hA3GqnDx/B3gNZB4xe7+hWAdZwhfyGOmp73npa6h9Cb+xMz46Rh0qv6/EEMiY61wPpd8zRZt/hat0MCnBe+CSX5O9gjNdNGtkS6sHIqqx8ZETsMQjsB3N6W280GgU9FIAD+/XZyKTH60P5KH7oPMBbf68Ms3awiKtCdWTLGsicoEqEF+leuo23vV3Nd3+Cch0DQp+UfAST8RYAa1/ihmDDcXb4ARGZijolSmTJEMATlpwaydmW5PCVzUtFgFopUjbxuX8QfggWP13NRCy7tnvN/C9/s+imL0vrJbj332sP2qYY7myVzzr+ysSuqUMxX9VDfE5RUgRzbc40krzC15vvqkcXe9C0MBZ7BUWxyzJXHgBDBS6Fewk4HHvbUn0uMBXwmiDPp2V3TET11rDCGw6Tn2Kuzql+P3GV0dxiUmBW3lwjOM3eee/jT55duWZVxERxMGoziq/5/ZDc95YW9FhBtsqDK4LvoqM1433ihR1z7crv0eBTbxKbq9GCT30WQc9JZ14fGaXTEFyEqCLjtS9pkCSFLiKZYYklqPEKsOOnmBjmrRqAMOnBnPiNwYooQ7LHDLWva/NhApHOLi+F61lqSP2buliemJs4NkqaYicl8y4ZLU7YSnilfqH5nM/raOB+V7UcGpLtxatLP5b2N9jKJ05N9gRDq1PVhr9yK/nAIbMVg0ougiy5LlTnj1lrfOufcnqOZInq9ca28i09Hv6UugSHr6l0g8gEEGBi08Xb74JvDM7vo8eOg15LNBAl1VJgtgCaMn/przFnKMeNAlMQNUAzAld3WxdGrmeM+UAgq/0aZXTj1EcNTKG1Lf64cXNP1tsAmuiMCqKWDGbeljapPwL0JnI+Z77Yq7jhXpU/tG90yTWsmNfeXKekgWZ0W131kuqqrBvwU/+BoaovRBis/O6mc/F4PX/xlrJSNcBDi9nWap9ZgNDmbj8hTWaDN/DsWg+tatS04PDf7IIAxxv01eZbPiCR5RWVYty/o1+0lX+3KokkM9POnQeFb5nU6MdUv1W9IKJgIPTBO1Sil2JbAP/wjTVVT/QSCzVHLynBb916m4sFok/E8w9Z7wpgz96JvFNAYNJ/BaHZkndEp35Q87fyRaFe603gAqdLjMDBGtPOCPVo6uMDH7CHLbw2S/DAnnvxhWr/IfkkracO3n+W/2hwDGymYpFjIF+pB3hxStthkKmUp+qRu2d9ZlNdSCCdp6ieXcHyOiGO2e/eTKWj/oQvGNr3JH6JlpJ/RItbK15DBTyJlDik7lUwQMKg4DMTv/zUor09Eey8SUR4V7Sg5gQovxjZCmqlPp4Y0K1mAaDUAmaaX9FHeeP48M+No2kHz/tzUcFY8lEJtU6SV9TFvcB5pOOSGqpyV5PACsqiXhJ6u3Fu2vA1qm0x7TGDbno/I7xrYAXgV4eL4MlD/k5+jWkZFNxZ9BKp8UwvAdENZOdY1/Rb+UFXq0FLXgxexpVDjfiFSB4HPvRRqJDgILXCBLTGFcHwYcu+EDLF/w8hHtlLW8fdqaR9cDNwluBimvsLEkw91hxwFBFRTuzLUJsWIIv7BcKBP6fIgIVyE2X23AsYSwwdtUeRG5FwiKtHbrrlK0OpKqSjLFvOnpBt7xzM/Qt+79AmVcFO4o2sDrzogzL1LEYXVV6rApaa8jnovGG8z4Pldv+UWGlJsWspCG84j+f9uEOpPiu3gTArdMF1OCSIVMvGD/EHrFfOsPBoVgY5J4kYLpXKp8UsZbuU+ANEABp/8VUEQg/XZ/nqGvjRtC/u/U9ggEYxg5BoNFgxklR14SlUEGZhCQ3/TZ1xugNhF75FR1b+qw+rvly34s0oLP5k4OB1e/rTkCYBea2Vx6T9mFJvDiJ/dYO6StYak7rTjvtUp34hHdLLMaEkxtWjBOqEXDxGfX/O5xATUbeeDVxXCUebWFE8foUE85G8vVRZE+eaFthQPSe3z7TiIyVIiaEO7kj6uXczMPJprfi5xGkxq2GN90fRXLCwby+sKpIZhnS0olkQPHlJI4/pJqT+KiqwGZ1n/FfPhOhUQNH++aCXMHCL5ScPYwLvrmRdEdG7v1r/qs5sT6tF6xmE5tJXvxPExSTCvW4dNUj7m7gQ3TsotdVG7wnmhp7GpLxBQYRgXQRhGh3SGJJsggUQ4AYbKA2daqCr+0xiGY/Gscvbo93W8fOoCm/5SsT3HhpodHhsRQFTnO2p0GpsQEjwBlyIXW1Vqg+J0yY8+tWaotOF1Y2IhPrFlTHWb+xSzl/st8X8LTWlNW3hPCT0hUJGO81eg3LGY2mjFD89iRdzeYT3cIqX7V+Pbb9uKRYOo4uLybkQVWWKu6EG949cHFN6Cv+p/eW8IZLGC8OqGjy4iNtKtfRzUP+4Saa9qAPtX1zposL7M8MGA52c7aZy7q+wzmA3bPX5zuYycXGU/XxpY+1zKdfo3OrRcJ9fN7DwBMvd8+9HpqTDWGTMncUbY4DxJYeby4XEZFp4ysRez/b26skE7xYR2nSuYLLPQapUTxdYyq+lhpM8l2DSPQTCgphda8Fz3O6XwavvBphQLU93Dl1AJkLyIqhfjfUUM5jUrw9u64vsdZKn07ziWgWfu0OdedItGPqdUtOwn0AIdQStPT/BxG8kcziJcf255jjUcC2tfDHdks+x90DeW8IYvN84ub4I3uhHXC+xPfnWMfNje0ddLBDXeI3hbzR1qkN3jZ5Wyf9z94PZVYVCVyuGKs0qzryaVCVN/fFFtwoTDr9N6/gSVHVBjZBiosc+GFd7o8/UF1IyvmO7jByUQc/AMzafQr8ENz+r1tS1P4eTiGMGbduXDYHp5+7QI89vauCQEsZAwPLVHzQCOYOBslDvEP8gKJvagiUgNi73CKesbTvrnRmackNSBhBRQHXhz9dPV5BVsMLPLN9lOPBB0eXj44axHRktYKze/b7K1+W5s/uYyKPLdwcabS2URmMPPs+I2nuHTeju/R0M4WWPV3/sWGs3fPC4OdkxAVALxFWoRLyIvNud82nAo7dfNdQaQjH6b37riCd5u8on/ao5sHxj8NeQDYrjBRNCpepOJD46/Moqs0aJ80Y+dMCWqr/a4efztMi7JrW6L7xq0kahikJP66WCqkkC16ejHTZeD3rXZ6raQQK+8Po6KBb4mkXBUSIExCZg/H0sL4GctR3u+sP7nc8wuxDsyCHPr1fyUbQg8FGhFa6FY9BdsAvJgcBZoQJF4wdBwt/9ZvvycB83h2hTAzxKrIJ1gikwoVE+gHtA0gT0uNAGbV6w8GRujODRMPYQPqLPMFC7jt0WMancE10ey7ay1Q+dZHEOiGWN68s/RcyEsvUGOt3nBZ0PwGIHkdo3bIY5Ln+iGIn8nCQzeYDRlNjIpFaRLWSlb/GwZdmNRLwB6eLSL0T2bvpQJyAtUwN401+TM2WV118aBFr4aafrQGR9NFhwE9oVIJ7a72C2AXEE/S01y8Z3BsaTsSCIaw2AfmAWSN7y4GQFRb7x4LxAuBEObyaJJYHuZIARhuewCrFjXPyqKQHdqtbCBZxJo11DnHSCR8uOuZ0sd/k9xgNvVKX4AooULmHsPg2hAxGrIr1vaVklEWoAW2a8cznv5TZcYZN102xE0el+yhV/KYmtmGjzoD/qj/K06z6e5sToOsjZhgRFM3cqktP69ss2AKGamvILkl8kJRCoPyU4N5cfJRrntS/Qr4YLDhnfK7TW2L+chRNtBOAy6apDDL7Plg6o7xX39LGFwcPBMpK40bMYmu7c5euFquSCn+yQDnFWG7FZm0t0UwV/k/ZP0B0lSaWcd2LsaDID3i0Iytc0De19T/QzMSqdd9fU4pDiasxRZU1X+cqnAr5OW0HnQw0VzHNWvxDtY+Ljb5fhTaegh6+Ebkzj3/NAEnvoKkxZ9EWH9/3w/7+ImS222F6968M4IFXglaGyajqXG2vtDetee8ygaL2LeKbsSsDhCrlqCVMuI42ZWSATxGm6FxInZAHoGK5tjTJr0pRpkYHKOk8fehnv5VCOO0jvsdmNrKR8aC5pPZJpttaOtbciAtZ9YbGP4mlYTizmgrPOhcZBT5hNDbv56pREhbmtmVGY0Yyk5DpoKx38yihwP3hw401YuxJwUrUSl8+4UGRkADIEDccknP+u/GU41+09ITGpG6NeUAP/7U2vJEAa44ksN90h51hwzmSW4z8Dodv5Yq/p7YYrOn8DiUjpBNs/OVJtoc60AkPWJBjDopVBEm33Gp1wXS0Y+HaYejaVAdQBGeLcp9zNOVAcK70JAqfjf0X4IJ+6nfq7IgP9qSo8P43le2v1HWiStmHVVNLFnQoN/bEm/eozqSDnplPQ+owAnTUopoIjOIOHWh++snmskssru/WZHwpGy2ndjGAnL0DgPe0z8k3doeiWJeGG4s/PhXuzFt/ZKkATx8mHt8SMVZec66dTIir7KjUpeFPSS7VIBpdXa0nLMweVkwToMy7QQH9+udnOLI5XLoogXyg1z4WuKSbtvhl4N2MfAgHh8AlCJFNYoIuH8gSy+np8S9TYHR2DjVg8C9UlizjziuHhWcUhQaC4OI2IBBkHHhFzLdnVq8sydktLaSr3eQJe9ClLQb2v0XGz9IkoL+9m6RkbWFRhE8rvILjimkMS/MRVal97F3fURP797elRzcPPcsuNSHDXO3Vl2NsnYKxx85sfllq7h9M2IIvzbmN7abuBSSfmEdSCMA3m2LK8QGlhNsmZYxI0NQaiFtwS8sBatn+fRY//ky+X0mbDkriISwtKC4j1Pc6ksupoo81G4vNElMRzPyRLdCfKncz+RoFqgukBRo5Q9wIE4DPZfwPJ2WAK/PlWtSxwlYfuJDbjk28Fo0BH85lAWpDCUrlGrYjOxJEW+DhMITJirbU2MtIbkEQX9zaIhe8L/fy7Oz/57scnt1snA+JK65g64q2QCbeZRSauWO3YLtPu+ahpjAh4MYyggX2UClj3OPtrvQbS2S+MBzIuw9f6wGN/XAwr4BgRJQp0sK9mh/aTY0M918EhNkSaMa6KuE6uR8YV12I4g+wlGQ9Tla50sw+/sMAyBpUed0HIi86sW4WUgE1HoarqhjztF/Yg3RcJRegeGjIUwii6fC0aKPt8MkQP8Dn0bUJ0DEWknX1vYTqkShk5DubDmJrJG42kpRAsNtkB82nEAAUbrUPyN7kVLViF0OZmAkRiNVRYixb23rVYHlD6YsUweiY2ySfsyS4eC6LrwPW7NdOA8gFYRuoc0YQObvBYugBVZ1TZxHQOTIxQP/um6fKdS6HpMFP3RTW2tHf/gKGRxfCzTcAk8FxynDRlcN99syFCccb/GoL5gP/I0cPX4FcjF4Z0cTITuR7Z4SrqaJVyv78vMdAVezrqA5i2Rl5ABztBHu54UjkAurdfM6IoQMSCVSANC59uaGEg/ig7gBnAQWKS64jCikGDKOud5GpUhROB2RCliOKm8/yWdsGXwdbcpMnpTDp1xdte60BhLyE6ebSJ4qQTANRiCCzPbnjotW1GkOeE43ABxgH5PlqycerzkcOyc3x/0BeTTm0kiN29hpOOHfHrnmpsiCZ4Tm9otD+8AYXyVzRus9o6Df5CRKyvf+/JZ0sOKth6P0FFijhW+AThPIV+9VAn6JZEmHRU0YxEwcibqjb8CrKtROoVN3j1rRtIJ1PtU2L8FWwvl6T7Ra3/YVUMCDgXe+iligLXaz89xlg0cDUX3krl3CgazAhL0OCXLWkUZl6RyTC+mY/MW+ZH5wMN9e50SVosantAJPu9F+gPQG3Tc+dksA9Cchv6z79YcIr0O8bCmHZt0iunnlmU4wvHkmiwGY8bjpQ2x2TJGhRgpqAmAJyHr8YW6+3CSbM4d40cjfiO5ThC4WsIvoqgditciAFlpFd9OltExLANKZFMClP/9+R10BH3ocKrwIMZzv6e4sS4OTyQ+esD5cpnzgPPfaNtFCEurZlWJBCVrtPw6Fbgj7LKBNlMqVO9qLBs48ZAUTUW8KwcN2i5sNku/fp4l8YiAZYlhYgqEyuUssKcX+ti/dfckdyM59u0YdWL3pTD0MYi53rROkANFR5aqewxBiB9aBQ0S2mtgvc63B3LLJMthZnCfXuH0lLnuWgTPrxdw2QP5y4uM3gXG1+LpDMl1wCRgquwWlwBoNZX0yyGLkW3nr5ds4Ax8fcvR2UV8xqBYoIuus/U1vUMhBUUtzJN5+KXI+BGzU3QdJM6B9/2B5HjJ5SDIJV1oLkVUvBYQExThokFiOkc5ET5fBFPUHzOFpNl0fLvsCd0a3LVy+Kh5mAax5H2GWid7ELUrPHg6WE0bEfcWIwo5uVR1rOREgW5zjBSYyaZCSPI4LU7KFarHMHppaU8uHr7gJnnB5n6rpr8rNoTz7IOV2BzQFtjOB1GzUDI/bM9pYOG+NzLMcb913A/TE5HK3YoAA00rHMCfj8ZMI4yv+jLFf5ybK7t+n6JUjAcrTGzl8+Wc/kPByFuRhxhMUtFpWuuWOHS5l+4T2IJ6+WODHcmKM89m3Ha/hfnsLdYvrcPmEgkvYM+Q4+0XChpXaj4aF+oe0PtNVnRQMrzf7GU+mz9q+EIMTWkvcpC4uWKgd3hTn2ZDvpi0rwcGKr1endbgRmBjLQEoNmcFVnkUoJbyo2NQ/jyvlygxpPJtgiMsZKRtLJAT5kYjzUFmvVz7R6CvFWEotXXXIggpLezmulcbzwCrvbF2mHQBuf/j/KvKymGfZGaZrGoidVdvB/R2wBxjXcS3YvY1ca1TGTR3f9xiihOV5N07jvpAdkmS/RCBYllbvH47ypeGOcCuHM80GXfiXoeD+Hlnp1BfUOyYeZW4nE1KvYtKvSwzdpXYir3eQ4rIuuVEczi5fOmof3X/IYPG10OzNtT1f5/ANx7ItyEdq917IaQ+hKJ+mrlZQknTkjy4HkZ/U4aIb5ISPxpNeJg6S1Kuf4HkPnqDUM2RVjzYs9/UInDZhVPSruMVALDOY7q1ea+XtAOOpqpzNxfXEhdddXxg5im2gqAtGognMNV3smTcgPkLHtb9FPJYrW44MlMCJUH4ELDS5QBZ4VI4PaDFYZavDPQLU08D33QayRcXCOeoEevayz/RgnzNCnoqExxNDPcrBD8CwZqr1MgA432t4Fu5rEXPWkiK99AFDZntbT0IrGzMNDraevEWyk0ytv6Zsjw2hBqadDRpCDTlcQLJjqy130mkMgwFcec4buygaUf6lhwfZ9QHcDy4YFfEp6MosjIl1AgwfygpL0drHPeJqW6lDizdoIHrdxmX9Uuik/mzUkYm9JLaaEGF120Wajus2uFEsF0FLXnB+abYo/Aat581kRDpEC/bODyvBoj0855Nc4OZGxgrnpuMuqOZvcEohTklMQgn/X7Luvckvyvb2JV4Rp++9OiMSrpHsHPHYv88VwajuuMk98Z9BRUx4FkoBieBBGMJJJ7OERvU/snY2eUAjYqMDyi/73pQAKDTLoSft+8/JU7ng7Mn8ajs0ax0J7VgsoMkKBXZZCT8M7qhfQSdKWMzVoh5IENv0j1OCenh309QUl8I+MhSuw7s/PD8VhRssgfsM0RHNFvkPjg6R0jnaEzgbAl1GPQLHfPLP+DgPLOmgnGfUHpBEMDaf3OcojhRoTauYbxeZNO8pyuDlXBcXOqioLkTMLrz1mMJFNVjySdk71nRzsNONKsI/dMN+ymUq5Tp53amTCMhsA4glnyJcclNyfdPA/zvLSIFO6KGnzEfNZSzS8QuwyskI6GB1XW5dCIkm6QsOJL3OAAbZRcfSUTGpQw7yVy29cdH5RDIoQPWj+2lC0u7c0bQegJNNaSIMx1HYL3BZr6OWorgqdf8E7+LkejTHDVBtrZb2F3ljgGNW2QQ+75vlk8kyXPY3MkqldQifvcA1ekuYGqzvP2gC8WwWlWUqGFtwfNQuKZERGJQD5i8TXy3RSDRjgxxx9GeDgqNnT4ttlhivWyt3mYg7P2qsdF+NX5PQhL0GxXleY0LS7aKovWsJiQUuxwy68EXdIA1gLON/I0+hEPlIwhn4s80rDsPcHSeE2cuf3h5AAsjeLqG6Rl3jueo5ZNFzvGcoLM1GgKIp8ysCZdLXfr0BugURic2AzE8oQgozUbnHl+MNfpmUWcsFiKDk0ASazioRaxKGjxujP5mJDemShKJ7/O2QzSaSBZ2DKZOZQnHHLRr4UZoiNIuetMNiy99CXDejCeRBih8PfnXhgikxedxbkt7qOMJ/r6JtlLLT0LMYrGBTJwrriWt9xUfR8b6bgBFpnOGWEtscngcrKLnoNrDpFlocSiWbW512ns/YpTf/B5W4k6d/JBZK8fFkwlR7wlsFunOrjn44G4744IX4n9iaGTIA6fwh3i59/JVLl97r0IEi/STA93Vzsx0Ra/1qCBWPSbpWcTuIQXcP5QUCsAr1u2QkGfhdwArMf+U4mmkN2OVBuhTuC52KRIjp1gPKHfB+pKqNbvC5ggyMh9/6F5x8vgG4+ZnCwQKY3tE6/1rWGcExMX2NltQbhe2RCFWx9h4ZXek8SPqGLHTIxhIlkWJ+cwWITEdJnnRjYhmR/VDWP81xd1T0dl/9FoN5/yzZNovgRvih4hLfP5EeLR+LDBkgqHaVv/we9Et13xcCSZ/C9YNfLDDi1h0uk3DbQGnxjB6p243V07PCpZJ7ccke4hy8ULiSyvXTVpRdF0R4HCvFKDEed8XsRKtJ1D4fULFqwbRmC0Ktp/NaxuumggffbA6IijbGe20gI47k5PfeE9M64UvrQ3mm+3mJTeb1nYcR9MF+0azVFSXRmmxCs+pFaXH2rj1QnA9n66htVv7ldBP1P+z7aAGkEGaI6doAKTZeKQEMdVUiUHDudYZbx1gel0DrEbSBY4oeniZ/QbTKoDQwTE8UVC/+Z/BfYKtSWvqR40k/PtdojSR/RbI9IXFG1Cdb2NztZ4RNSkyqIKW/SjOlKiuB1ypg1KqU8EoSZiA+/+TZ88xD/R/Ejbv4f9Yk6mRyHo/bSkHcCxbdyfIwksZXTVUxGeYEKUN95V1uyExscXlL4iA3Dxg0akku6j3JHCKdiT5VFxzihpqWqSA+nfs2B6vDKsIu5XTo8tsoHJc1Rvmusz9kvK8pxOcitWbGOj66ibzJ8lWu2J/e9FoUpmouzw/rVXOoiwWsAzcAXEiz6qYB+79LVdh91K8IE4KjOObLq4A9CViR0Aawe4AOgmYe4ICvKtr/PnOARMfq2BsvG0d4bC6PkyZQQZ9Q17nYLyKIctd5HsLGCQl9qmIfJQpkd4S8/8GQwuXB9Fg93+OT1ZDVnvxzzDTR4OmoiiH6i2pKoS514zJZXp3XH3ARBomavtASx5mV3CVq8XGB8iuarWk6hiYVREgemHYB8hHKXWl6tRMgDjjulx9i07TANLJdsAo04AsOPG5MHXBBlbZBt5a14eBCQDCSG9ixKXR1INQoIckDuZyLZynF530WktW+wVZ8WAMSp2oxKbJY0rC4Dh+RWopdUeU1mnkYDK0hYp0BM5fzSTQjy03VIiBaFt8JTNwYOEdyoqKh6++yZibTOOSIwSVhmnpcHkjZ4g+B6nRAUyudOFgoIFmtASckN1THcNHZFLLltp4DK0hI3gmsBKuiXtTRZhmo9WXLeu2RwL6ev7Jf4dp/gfz8se8okSU8t4YJCAm1nMbC7XO9ld81QxhI5eQ4sCtcXlJ2UOixcolY5B5iPW976tMgNJq41fFzxgm52q7IYJI1NH5XlCTKttg/soDaNXZhDY0uzZg/8AhdUB5WtPElRlqovGgg2AFpJhHWvbyxy4meFwZRLuWSlwJut5pGTWm1Y4GuuNRPRJcqOzBVWMz4L2Hk+4fliU5FrNKy2k12el/hJMAIT3mdtQnVBqtSYcpM6lb2gVPi31GShZZf1S+3T8ICzudDbYRC7dEbWbVQVY1WCKV3WTVajPRgxYhRYOaxXVcFZrT9BAv9qLXJTPlX1hNt3ShcrVdciIS9Mvrw3xyrBtYwXp93ceHKvy4+n6uzEirYorIC1C9L5nFdiKKdugUTLbn0BRR2BApRYLN4HCnypYozNHHRB4LySiYe2TM8bi+RGFhSuKGwt3Tl5YIACf4A5orkt6xOR1mHFweX/67FtGANPW6zRwCfhPGy2mDCSg713A9AaaBLR9Amf5UdnWqfiHejA7YMFpbgCvmgtJlr0UVS+evmgWwJ7a715G/6l+3+MzWoo7wAcyMyp/aNRxqKtu35hHYLo/GulV7ljRuibKDBPTh2nlhu9wzLUQczOVYqswEZ2/AZcviHRtICw5RDUzOwcZh7ZPKLeOsCHh9nTwZ7nxFUNWtyl/355VRq7ULzay+1PqCMjVwfLYuRBmqvb6G+wipzqVRhR1utf7l8f0elnCf51aY+FflAwZ7GXBkVf0zIbdMzviL2koFJyGEakOjcBKi7tmqMvKr5hJhrCJU66QyY5vw7R0VBA+26d4jF72SApqCGmgQh/P0sqb8iRN5b2rFL+s/qKcFuYIDFcfouLh7yE6aUsFBq+hBg2HUPYjR4pAeR5kDF6g4I1vZQPyVMXFCUCDQHPtb4yZjdlSCZkHZjP30uR5hatGVsAbI8HbgAKGaTciIVj+mRzKaZMynADGIu8H1Vcq4AMsL5wiuUBzO1l01NSgRkEfZe7yXqOUHkc0lMEPdG54FwKp3+Hh+XHzukgchyMIfH77wJZVo2V/pSWSabg4zIAuvdlJrgbK+cfDrXz3OrP4DNEYJPcZF+6cAHfGyNH5cErUac7EHQSZpgs3g1/oCRHXsZwpCqfSoYznWrb3DAKjIBnqdwCxOwWCc8dmCMUd5etXMJvYIisaMrdl4L731aCYgK6jy4cvGVBnlk1p9r0aM/WF3+FJXvf9PmqRNTn+8WyJ8GjUxACfrgjHfhZTcXiJRSM0Fokff5dD9heVE6jplInlB5bQ4MTve9p+Wjj0kIlmFP1EkundWEEE5F3UWnrmYL/juHjiz3sEX8hMFuajkmPzgSNEDgeIHLRdu02HdI28AuSvCRkmF/W2KzA1B2KD7IEgxG+t/XfjuSwWgasl/+8w/4Jy5fwgNGVux2XFWw1NRKTAlNDdiQcWQNY4LnmQKOXNtTgl3oCRVDAzAh6pB8nkyto/MtfMunxmVK0rYxE8DTkqQ3bIv1iBh33hFahsCjBpUF3x9BJliRo1bljMoCVD79l25IV78QCC0B8jzsdfVPJj/VZQFvi5JiQRHpr4BQjxkjlPcbANcMckvY9nJoP8/NkRSSTH/0PtwBKcLTmT0DU623VGoBNN2EHIxDJ6igj12obfjy1al9NfAPSaDDhbGa+1evWS4h9TmC7476IMYlFHlWw8MEksfHLj97Xd2HzKfw2jTqV+NCSih7SiQJirVfWP2OQNl0GucZus3NNldMWiuaIqiXSCWV+tJP8T2cdE86j66GFMenNpJAW7FJFJ4ZZAdqAO1oUCXPyXjxOp3x0LVNx2lDc25oSqFS50edWyBokrU2lwtIlhXZudw6rL3ppDRnWx6hED2nHxVauoHVuRhVV0X/Qi67NhKktk6CDqyaJlr0t4NmzVDMpRC0T+tYz+/iPfw4Ll0nvsvLAtMjNWAXN4g2+xtpZI3bfrfWkvN8Yqu+G3mVg1IU3HqDH1gk0DXNLumeiBOdyf9ZKfXo5DDH10nV6VNCU6hbc1xItPl3Ma0rz8PzKgQ9ryCabjf4OIcKBHKv791PbayCRuyBsE7Bvqjwawo3/XF71ty+PtFyaTzwFQbk1+mpiiosxlBvsNczcioDWH/ANVM3UDMHLlLmDGZbQlXBeXWiqJIeBBEqui2GbSZ30ckZjiZjDkPHgd79mV0gCqzeplpGlTm04S4PXEnEfvdROo5oXjCabzEo2OYXR4cKdYNHc8HhKe3sFuMjmrCSRIkKsoTPj178pIamMo+zXzUq5kq8sBvbmiWMSw97DNCPNznFtd2EGn+alzIIWqjLuR0x7W6b7lRmunV5/trm7vVdbsZggZB4zhQh73HH92GEKPmhYTwgalKiTMZBFJgub+ZHRhh+R99SmjPs90kzUi0cFxbg68alsHiK8mSRDDxoU/Z+UF/+qfYP2t+v79LcXrNGYOGDDqMuWCzpCGEEZKdqlHxkDTk9Jp8Z2hM+BGRXNc9Zc7DGRkhuPHhR+mQGHRs0GzfNi8xKGFq9UPlM5eNmnXyIFEI537tv4dnL4VrSwCR6Rritpy/MR5NJuEZ7OAx8SmqDe2kvjbu26nJynL11lv12+wnNt/QQIGUl8m45WhEwUXKhxsXGbOVrzO5/S126SHW4UpWS0mcIxXF+iNryRRhn5CJi2G3GF1pM2p3usYq1/FFp+UvGTqRfNuJ/eZiKTNFjtP6hoyNJrDkdQNGZpghsW3m6inBoTuE0ZOhwoBhLB7XMqGf5AB1EwCkkiT0nzG+CaPMecePbSf3HQReRKVm69hgTtLVHtQ4UnOK4odKwviBweshkq87dC8HU2y9iZZ7lBdMfOdtLN+jrqrZYyqDS4J8oQKTdjwPhw9+FcxeR0jUv0o/cJUgkEWSKc5e2zFnvYGiuDC3ASJkNcp4Qu0VJlUTuinSF3Zswb6nuAW29PbhQTrpzCd3mHE92+I9nuXSV28XjI/eWhCFDlcvWWdA8JyngQIK5WNOloIR3in11VPlErjSDuNFci0LEZlBhpZu8He/orpSd43tJ8AAYI5CM3BEk4G4g8IljqaFmmQPpbcNAKHTabPrbzk9bJiTt7EHEXIeyyOsVNimTmfA576JHIudYaMVvrt8vzl1+RKzHOlVRCwYeLnrutH0HjvwVbyGsAthYRBLE8HeBaIQ9ugC/22c/3z+XdRIJzWOjxg1Jumc4usNESgsC8D/p5v1+AUWo0666g2A3TI1FnpzbqQAtRmjfsA8HzyWgmvETlEyNhOR0diLMAjiFqLMcCrqwoIjN9dguKtMBhVIAarbslbTkHIowvit7OqSd1qihnjmqH1meFnm8q56UVupSB6tij2swpPePhg+Mp6Oq2jvh/90V4wS1QfdPZbPtcQVkcK9GMcYgK37W6SkmJ16Y+SoCeH084sFNzGbeNrTy8HMaq0JkQ4MkSCi49mkYFMdyV3bD1Tokfyh6rm9IBvTMMzf8MXh9ppYJ8OV/V6IAduEVITB6FkZHtLjtf+SGSauIEjf3b+P5+6YU8uUw31mHdriLWkqJK4fETd9rFDtpqTuyAVjEI3tDwvclP7o/YdTvHe00Zc4iXoTD5s9MGCDVnLU1C1BdtqMV/bU2Mn9clh1AMsloODR/I3fWufbrxNLoVThrEq2vhZGMzVkBGqOCubmk7nxsaWX/kABVBGfhyVHp67LRO7pqYMILSySjOAK1oqpFDl2xe1xd8BZfhD0tjk4hlxNOhouVjB9HvZLLXjIaxEDMU7U5qTxmvlffKcUXj53VluHiexhs9QVQjUrJOwec4MAWZuTbnIAxrzigX+Lo+tiWb4q/7QKV27lYf8GR8DbAKxW+XUE4+WEogLBvI6URie6SDpaV1cBsOVYfxLx3jiu3obekwKAb1KOHfpbdd6pZfQ0PmIQv+9diYUtporgzP2oSlnQC8NdL2lT0UX5wG2u59WfimL6G6L489ZYQqEFzRs6VKzUG4zapQrWMEckSSTFe49G7OdkTXyhEfjdKYPNluVY2GDXwN8W9bVAQ9rU+ukg2jc4hrXRJLDig4rnjgRKdXOSdMZcbcIs7Ris6TE+6VJJLC6gcLKNgeLjwAorzQc+YKaQx2NDH1AkHBBwkBUVbXqY+39bq9PdW8bR0Lqcyw0D50wQcW4GEjTAhz3vcQDXxRGl5hCvHULamOqbCO8vAoj9yW02wh0SOk5iWputNv/BRZjeOyLkUb1w7/qj+0PiCYK7ZiBbAfW7uZwDZ09QYbDwjWdgWshpRgfzSgx9XBlxzdCN4G0dihH1cC6BqK/+lD/9nXFrivEcdMqinMkVlcxnUxcWbC0B8PmaWgT+IKIa707yGvxgVkQyf8ZZFfKrc4aWuS25l6N+iI5bZ/mn2xyYS0GZS6uZ2R4LpAyhUMrdiNS6+qSDnGWlgGj50o2+XoQhgXwAmPKjjSvZ5oV6MTzUyivepB8aay7vAyFyXzu48Vj4U2Y+fCtgGRAX209tjovocXSeUzitgagqLTATsL6thMU4c4w7UGCTw0caR8S9xSfDh2E81fV+7fCkIT7fMDwu5CKrgSErV4W2Thk5nF8vQSX0p/JyGJkPUqUwNSR8vuZAI0N2XRvpphPACcBVz8Bzpn2242lmCRHLFWoHJMDk0+x9OPhjoXJPzHvmkAPxtNzAEDt9HFGt9ZCpxbUqTQIpP94ftFaYAGFiuhCoubuY1ksIBV7tFaqCMYb0dKXIcD9ibAaoUV9ynrz94ioZsVWUDN/oE0csxGPJz+7cw86W2LtfmvIvC7mPUAD0Bg8H+QuiDQlUJL+FRwikaTRcuKAqxdSIR4DHM3a/y7CscsROQqDE5cwlJUJ0Kxm1coE6zR1D8dBpJRfqvyWT+SOiqLaPIT3ZfVWnkCmPajX7sEXjwjkCitj1idgcLkjgCafEqS42LluzCo+pDUH4Ar/IFyLzxg1HAG/lg5bu7KAAgdEItjsU/E9taYqN6CQ/wk+3CCP3StQscRalZSw5zy5egDGqi4a7aqTMZqY9wOJMA95J/a+KfzclZV45YvFg2/+1HEJR7j9Bsmfho9dyh+zp7UC9yT7oQgt/avznxFgFVbmCB5cW8RuzxpiNbwIWzlFiYv/HfRupm+nbSzhu31p5hVIG5RjOJA5B0pMUP8G8yrShmHNV28pOs0GExkUKQVoDiEkRL6ZxubGG2GL8wNqr2qZJAMcQ9yIlZ9WkAlVbmEbTN3xJUiUsm9w4zSyWtNcz+R2MM+w3vqtY+WTg/46AikZwQ0v/8YZi7gW9wI8ur4gkbPRtjmg2Zc7pB6Y3lztEo8R10fAZAWCIXdsPWiEPosCx1pSPTcmVE8sPxQbUNR1ypz111LZClL7xcuxzZEcPgh0k5jgK/B1gf1Ou3VdSVVz2uitZL+g7+F5Sdm0wv2OJ3h7Va40OtTqlUaEApBQgAl6k7f0LRCrBTXMCJiGcRkN34LxMeXaLx2OGUwur6Orl9zJVWde7S05n/+lx2ta+rO8n5rY+qepV2sZyGcGXjMLsCnhHPmpx8Bxbi1HkKu1O2wUDIR43B/KKhF8vyJD2LulEGvE2fZSiWOYHsYjn+xZpZ1gUkKnA6kEuAQkUKazIEevFfGww8UVsHJ7oYmxvDzYibH10zUie+P63QcwJqgsfQpkZuiEqozzcviYfq7UETQaIML742mFtEEF4XGGP+tqhRW5HKcY62jLibW/HfKeIPlyK2K4dBOHYYD00OYIKZvG9jhGBR12/NdRvTStI4+lqrVaSMU6UmQt73ttezHZeK4HY6tmLFd0mTfbNdGbwuHyNX2tCrXlEMwM8DZfBRYj9ro6Qj04R028dRPvQAR5cKAXmgCrMoXQy0zJtjRkuQxWbnSwLgxANyblxg08t/9B8WhnMwIWPAkUreXw3ouMsmM952CLeRwYPeu691t6u8ip7F5u6xfDt3Se9nNKfdAfLioRUOotHWZnh47jbanPnMVjeiPytETbdXdz5XkuVMp4p5n2NiI0Bgf/+/eKPqiv1YxoSfDfm0tkeYySsYGiGUUqrA3cXu19Sv9pYIkjW19IFl5u2Y7tVmaBT7zPMaTXtY5TSWb8DZtt9WEGtk19BXs93EL9hTPxrU0Z5WfvCMXG7oiQzih2cCFYx5SmCRGeZeBhGkXoV/omo65rf7jVf4HDLhhllxcqiVE+CSIqezPVQPGO8ac+RUVXhCCS/+6k/w2MoFHzVqU1bCJwlTo5H2N9m+G/+DzKpWmJemrVtYisq9YRQqXCRkDJ2MlzclJO0cXLKmNWhyR8OEZUbj835jlrJjlOlleT7CvsnouOD+KFh1Y3YHX1rH3Re64Y4/9hNw/+zIkAm0gxQyKp5Qq9C2WYge0sqYHvazyzr0OYDQ2u7T4HYwW8VgpIRoKIdsMsrA5sVayCrLrRdnZEktcSn4qennzZ1pLz7VBehhJwkBfb0JLUpFCW60qQIZ6j2JNQ3yrzqYcoA+je00IU+KsF0ftsBbe9FNjiCnP7rdALLoj2FsWsm0y8m7r4F6dwdU9NGe2N9vyGFXBbUB2z1Ynvc6kZ9tezdvlr8hyMVTQEWifKT2G8wXgBau3tK1AhLXQL6PmaIaCqQezaizkR89R9e/YY9ZTl3JYCk6TZwOzPt/WgmmLK9sKxIrrq8+VzQ87aLFmTeVYSmcFygPCNaVjqriItRmH978Y1EVTZvyt415cATFWFzysU1YnKNtYLekYylSKKjYOSHDEpu/EB43LJ/b+PqT9Yiyja/akwuL/HXFGuS10uBHpKhtyGYK99Ud2Yo1HjLRVhUD1NebeNdVv8VDNffzQCZm902R++OwNeQ6lY3ts8CqPtkUrHKj6sZ2/gvLfQDR+YK+glQVfIaNIcaIIGdGnxWqKrDinX+n87tLQ7IBqOGvNezQyAwRLQ6Lq2A48HrAV4ZgwANTKfUBoqAijfWi5qATCk/05BcBUKD+wBAxaLiMUX7j3+Fxo7auDpQSTV6zdbwOrvD485rklnEnoMFQutBc4pfGIuIFHO4vKo/fg+vVX0ruoe0RT3y/95D87CVvg6iNSuFvMzFv0G24NvU3I44U95UVdpjnm/WCRcRB5VYzBhUEt393rY6Y+d9JMKqzzoNhBoKQpC7yXXjOBYzsSSr2uXQb4dJKkK6nomO19c8ZSkC11usCVUS/j/RfqnDaie97vmC4j/+QqUPEUioCAr8U5dgimXi+6pSbazm4X9BNxZYaw5NoSbmh+t6U9u15LdOkr3ktwkpd3J4jBXlc+Qr3k255wlrU8xDr3YyW/gpOMdk1FQvCuiojIXTU8q/IA2ucBY7AV6UWjqTWL4Wzi6m0ki0AA4MiQNObIpgTDmqBYlVReqPewarDch11wg4JGkz/3El/Ke7hwKG0gfAS5n+qJK10lQse6+Sj4X9ZetnqNkYB98pIxJUP9EB6+E81RVhD7/dBQu+H6Yhy21gCsHB+be6RrZ+WcxVwBEeS+Ia821S+TZJdf9M5cYDg+S/EyunWkY4GKvYWjG9z5vkjKxTmSnY50EMTAZ7VdW5VG+FUuOeEviRvGZ/wW1QYJcbZUGd6f936HRTR+sATgTZlLCeO8ageTpOJ0gBP6xCh6TZfn+y01fFqyjIlSi+s+KTXCi13l5OFC0BR+eDo0JooqNpmGf0Ii3vKbhU3wTKSdqgTWLOX318MJsKnmLuZo5VNRm0Uvw/8FZIIgZ0kxhNgTG45v21QLVWuPmhduU1thYVx75UD0O5xOUmNOxiQ8TKVOBZAZB0HzYv7Y4MJ2jzo/kKfz3/BwuKiHUTeUFP6tWLDRHrL0ZispkZ3vJxB28xJVAt/79h7YnxRW8qc3MUEm21j5kYVuRea26sELAvmdKrNSQQ5oxjuyKKQD3IwlTzF2SHaPzRWrgOFGHme6Zo6ls3ijRSa7m1EUcr6ZJ9CD8bRZe0gqVDQ8ha3oVRCvZVSCcY7AATK254KvBt5fBwzFF7gIYsIZvKsRmrrSJ22E8/eTRs9V0QOaMgT8Q1U7UI9ivoxBva/S6bwVus0uKZjU+WM9RMyl7unNlhcgF+LLy8HI7SuvRjLAyCExDCXgBOCrxh1TXZaBV7Tz+g9Q9P3L3Q3jr67GCUwaJ9ALVYesdsbUVZ/iS6HgGq29SbYeRZACf77lR7UAl7YWfSNkWDHoUgynVYSS9R8E/AX3A3lo0mc+Ny6bcY7iZK6O4XjLvlWi3+8fCtZlV/VXc4EkNgRHrObJ4b0kQpUgbibwNPi9eagBXIUwE16LBJXZKWdWccpIZxNMf0utRUev7pH90UctfA3roYoTPRNY/OD0HAb0WD50Tqk8CHmmLJmr1jnF/IajiSGjB6JhOY3PkkGWmw1tuAf7feuA5vV1siA1qZ3yPFJ3ug66RCuGY/UlonnveelS3EcuqcYGxrfpNxeJs+pJ90X5OOr3REoAyAbKtPyez87PmGj2F8gYVfLl474hQTWPFQXBwKB+dIJAM8zfQJB+GuTwDbg9xuIbXJ/Fm0F1/nHScnL9Q25TkpJPA13DraE0sZvOJ6689JPAG7lIsmDghUkGkUaeqOJvsOhD1AahckV7GWF2XQ2OPoqcOt8s+IDCkt4MB+t6hTohAZI73LPbvw/zIgZ7l7VuZSZR70Nk/id3pABK95UtedhJJmkvTFzM75O5kRFjd0ClATFEAQLrUFwnfuo7d82a0Dc2tf8P25nht2+mtl9dFwtfOihYnySjDNqKbcW+tt6gZZblI/jT9fJ8JIq+qqfweFQr3HyBuJJowgtNyW/NqYnTpxTa6+n4Rqm4cjNBGNfRkUNL59IH6VCjKFM417ritq42c0i0O7NXCrWYEfTbrAOr5ZaG9Hf9+EvRMrjLajRF8/7yHoe5D95LQsLObKV2KlmfqWNhV3yDrZfCxZhpDA4AdjFZC7XkbVVli38OBHOJgFaDWV5L4AsTbrujTFg2caGHgEyAvV0D517+Mka7XMJwClmWXWu4u4Xc0gTwk4jC5ZzXKVYen6TxP/Vd/S7fpYtswgPKFgVgzD56ABn8dtsBbCZ55eiskEB2JrchczHAZln/6hwvNXwm7e6HQ5eKEvji1Pu5hTkte4Yox0igNd/j41fg5jA4qfcwZtS24VHrqprupvEBdfNcmW866ycBz2qQyR4Mv7/8PWh/gpnvVBg3mgU8FJvleartObn9x8+euO9OcchhxIqSPXBA2OFPS6hlUhYC0S1vf3hFjNTZK7kvaxRawwKBXVYoZ6/D24gLLRLIHp+axNoWJdqTJeQozD7rcx8j4W4PjtyEF0807a7wlsp/SQmpC+mvx8jfUYef6zxJPv5AM9YceAV2uG6UWy683jix2PAH7ADtOeEdfVjnCggBBi4LA9IlPdcAyHJo2WzcbfmbD/FIfyN9ij4Th3/MeDAPd1FWBVvU7Ifh+ii+g8UNGvfeqb/Mb30i4UDsoCgu8IjDuJWYLaX2Mri2JXUcYr5eoBP03eJaefH+Fxt4UGUZoc7RrKrkGYYRuuHZ0SuIYRvNhjrZ7rKWRm3L/zDi79MggJz6Z8KU6KMFD24QDxvnxfVszIqUYYeeoIfZIES4EAFdW7YC9t/kiXIGwliKQ3AxFAkFiYcZ63pDqQ0gJnOMAwU/hjO3JRoRBDfOfLddKAsAA9ZNiZKMQViml1T4G3ai8hcBQokWcZOIwKiXc4Oe94NRM6DYQ8i//fXDhE9aFZP1m35Pc+hy9tuOCNUVn9uCODqqoNCot+w1eIOgWq+3bdHkveEhKk0zq+GDvzK4zV9b4fIZtDrBTASaLBd24t0gWBN8HWt2JigghLUqHCqYo+dN24FELPMZW0ADjeXzxVrSRINVb7fjCYKF6wOYrQWCZsJhknw+GHRSPOWhIMRrn2jQsjStANyi4h9Dzp1cp5JzZgCD/kkQyt1lH78vP+ZIFCYarjiMysQHDZ+900jhL7jbIr18/y2vzOeqpoxp0YHuHxhHo828hbEUEwPSubYtM/UV2vMxYR0VoHesZ8ARHrW5Rdc4xBp5ZxalZieyPEByrn5Y4eSNzTpzybpoyO6oiOBeUG6mIFUCpG2kTgrLepIFWJYHs2QAUcO4O2o5hf1wiAlF4qsOI99oGBoLwgsfrnf3OT3zyzs0igFFSzCvplWmkXGihSjYbL0esc1Bz2HsaxFK9KXK5w6AyGPT0M9/12+jfkMWiCc0kBsuHhNPG69vIS/4johkjK/X/6gvx9hgNbvZxIQaNo9MP8ts3IvbVXt5gUSIZqIXfxMmVcXxh/bFgS6SlCACYd47XjPlmkUr3vGMSJbxXkhTXQRrJ8W4+qFvYiGK/AaO4/iKvYPYUlcJXLBeDie8BxgCNy0iVXaWDL9o7MbZMYq85cTj+sBpo2iq6Q9R9uyGy04ZIvEXn6p8ur0mHgJ5RSI/cKqhr9tn1ff8uRUvbsGcTCTjjeBT2b//vLSfwEmWQLc7Ot2QVxy+sWghevCoTLTxlt/oeoYH1HzXMiiiaN4HwRKGyF7BDoTikNOFBQd92MkXNNO78Iq6F2BUQybS1A4T9+588DMOUkKkqpnI0ljGQhYzt3WcpNAapQ13x0Lg6eFMCkkTP+bhCCH6Dk0FnfMLHvsJ1WKvAKo5TFQAv0TkZao+++oL5/l/BZLR66SBaFbFhYPCEXQPvX8QreafbOIjtpzbxZdtnwmplA9wOaRnbfCQkJzbt7rxKd6l6zd/YJaZSelOGcMO+IogqTKoGEKfcOFofvM4AVzE35dSVGpQe7eXWXSEFtcIWIXFMxuNtKT1jEAVG34nxpbflM4OA25B99UjRl+bMsku+oMYYBX97lJl1how6fH8cfec1uK02eZfVjpIoK6Wk+LZ8Vu+hOF/rzwCN6Ks3LFmffbhnPPRWlD87jc2ZO0cR7JJvUPth1PzxdTHemWWIOfQ+QfVpmGv8I3pUjUp6yE/lNlxs+5FK3TJdPyAFKwcgBPLEb+FqwYvKw7XrXPwGWg1S40H1+TRNijxNz1tnamzFmmJPYbXeQ/IrsZXwpkRxJcf5ACDoIJcMp9A4/9VJaJG2eJQriYqTcuxxDoNySyNhXA7agZ8g2L7uVvC26bZOP8hoq3M9FaaNq7eSlk+2pfcIlaFpi9fCfT9UDGJyiPEoDFvVwa4tIBurKZYYN4rEQ47l/CBOdpRqf2tmvnQjy/HVbDoFCfQMYxrdd7Wp9Fjue/P0bf41gvQeFRfaldQ+EeKZf7mPWXzKXzKv181fduhMtSBYaAJMiIP78Dqb8oP4lAkQRf9XPBx2EXLlitJznBC1MnveuXdEDDnyDucoIdB16+l8/OLMCxmE1GUYlkmTY1oO/P3IlgJxGoJGDiquFtVmat+BLF3PHqpyAVcSUPl8PGgqrJsy+qfP+YeU6RgvFPJ5JJ+GU2ySxY9ajseTr9gP+7ZV1vTSej7rDjbuW41a+EmNJXQcMKcNBH4pTjlCBCeJ4cHFmKyhlM2C3ts5JwI9n6hxvXw7dw0qEmhtX7WcJy00uIVcfRRdpaY8kEhlF+N/rdPXihUcD4+Y+ia6NO6kcylzh+PshlypfHwFV3R7Tkkt9fF9+7DP+CavkuTXtAeBG1/HVq21Qd/+CCeTLV21yu+BGPKYjO0Sz/cNTUD4uGWYM6X8LfgT7e6BnsCEmW3vXnh/gis97HVd8Q8Y5UDRvr75AAkT8Z09spO+UBDDjdyblXYUJVpZunMyzh+gWNaSfOyB3HQMZSRmKK+ZJC2Y0JnbTWmZPj04VRdpLl4byE0DkqnQraS2gdbKPphbKXiEwl3DhYnTIYAK8ZjjmSscANfn1Q1zTR1M361lVLcVunHUx759v7cAXwePcq7GY+fkkEV0PH6nAK6832GYgihaI84/Z3vhrKoSgC+erhkDa71RBvA53S/3oVe9Gg/wwQ4RICBiKaK1Y1axpwsGs0kPUebbwEmwwXZSjFNbectwPMmioL45n9XsHbtp1J70QnFrZof+/pfkJx3gBQsOdoEPpEBNxjL+GkqrfwiI6gvthr0kUBO5yYL0i57GV/WiyZ07q+pvmYCpit1V2TJISvLKIRmfs+/Exi3pQmGO5hK+DiiI7x1AW2hvvc62Ae50UlACvlPgwMA31VWQF0dtADXVp7KABo5rPQj18PRKjj1RSq3lsf0d8sEgls99dSAxI4zCpvpaTh0sx7rmMMgkJLqNb/UzrlDm3esS7BJby87/hfMsJiLQEWzqK13WTPBxQq7pQV69YocLW/AU61xdyVjns5lIBI7a08UjNLTqZ6Q17PM9TDH8zuH0zrxckWooaGJZltZ+wlw+HAnY0v65atj6dL+tLBfV0RTHe+tFdFPhjOnZcpiO4ErVVm0//mVWdyljIYAGARGWr8PmQ98xONGQ+fco85ZiMRueU0QypBKaCCqRxMnvyAETzs5WUc7IsE0xX33DxBrh/P8x9qOSSvy/ryIUS94i43JjKoQHL/HEKKhttyN3jP505gzzzArBdfByQFnWSj/Rf+znXy2D0SxxtPqJQx5ut4ud37ghSolv7qvU62SJFMyPTWoNc084G+swnhzDN723JIgXfsJaJTME6EKZhTvaPZoWe7Sr/Ildu71EZL8hq0r2Nq9pHiINxGBLqC3kMHRHhDdi1kT6293ddHdxcAUZbmTW3U67AqBuLadChvPXP64ZLnlf0bO0IwxHEd8+CiCk0Xs7aSGyGj6vgEqWOl8C6B+LrcUcLYPg2G+sgBi8/gCDYIvbv21sGtCjMyLApA8NbMtNDABYjXOkuFgti1KWYH9MkyCmVOZ5R2FYoCcQo8bFlkVFeJotgWure3HzQ+36v1/fQWMPDrJvwIO9K3Chmxzd4lFOQCUb09H2Cn4u+UvqSYUggPKBsVnoGoWJZF8SWQ47MULoanT3km2HPq5w17Qv/cNsmVCvXbVURSKn2Z04GAIVaZkIZRBBVLUzMg7lIjhRbxBuQmgNJzzk9iBekteyMIunMvRHAaYjDkQFcZlGdOrlpl2at21kSN2O0FRvhQ70kOYXzVw92QcEv1EcxO0JM+Xkr3XbgXvIuQnW7PX5n77CSPkXi9AjeMRfFRQWxVwymDU1aK+g9yKmJILIGM+E14CwwHa35IjD2Q+JnKA4CRPxhp13tcMbKJ0/wjLYMxkjnVgIcA8vFQS5AwMYkI+6j8WllRCg4Kx8yvlLW+vXUy/w/YoegBjqWls92uVUOfFQIytrd1D7NvTY+YMgbgjZqD4sOR85Mu3EXv7uIKadyOD479iFBuyyNvBzdMKI1KhZKe1N7CAgDcdQyHft08NnZzJ3jX7r0aO+ZZn4M7QUnQxNZPR3HdAXHn1YvrcnRehXZ50J0auyYPHD8PUZp5cg2Gsiji26xobdqoJrz4mja3JH6sbpBodocsKBnxQFpDi4aI/9ISK6hf4niz8Lbij70RHfwxaoKPwLYH9kxu5+fVFhgIuSsM69e3/+Z7ABAbhSYy+tpE659zofOG3/1V6qr1AOU6x9SUDphybkdBDzT7m3AweCxQqO95rjQAphZaXyrkrXtRh37Db/XRFVstaMYOX69sYoqwgnZvtlLH+FFKSB95QpBHFlmkAkn1TJ92AyhEfJmuwVrkJL3XooRTHxopCk7aCusjbSKsMCQLjmVAcUus8N+12LbMVIh7g0L+gMBN+VGj2cz98FT/ROnhTMrCfzrfn70bJHo0bFlqRJweEWLZmGdH3bdiG0bWVJNZWNLSXYfeOccIZk0/B1Lv9q2IMDEoBcGL0w1/adu31FBO2aCa7oI2AhfQdIE4ZLPT3EvzMWCAgAK5ag2QlQsvyv4G8iiMbPaJmzpsybiCCxjErgz3TGgM5UFZaNlfxXWwyXmb8nqLxEs7bFm9+OMT/H2KS8t7xyI0T/zCOTT0QYu7Toi7EHyEaWwt9FrQvpY+unr5sMsypzMDgEEhjAEirLHK8l7JPhvBwCd1UXS0e+25gER+MId0Bg3nMknEGrx26Ixx0YDCveykSgcbd7h8jkoRBMCiBgSFkJXTuUJvP9nPCk1Mgd70s5B/MGp0qpzyfPw3iVmQUQGaYys473w6hbmr/9/5sKfyUmNc/apxFcdkJqJ5Tvgl5uOubfJ/gxpAaD3Jie474WcWeUummmOhF4pBhQvz5QXQS0X9s91R+N4I/4sbcm2Bxv6uQ4ees3MQQSjiJ7PJkNZPG2j1RnKhWTP/xTS7fGJe2+NffSw+9vxVpKLzWLsQxHEt/wyL5XLyFn6XWluicB7GH7xijh9Da3YgOg6tN+Uean/aWSM2mQ6cMC6LE5DmFMv2V/Or4DpYX7mqJxMozEh8PsYnuViE1UUP8quVD+V5kcu/WjLj7Q2T+w7kG2RHIgwx9i+G9onTC99x5HpatCAFyPvqid54yTE32Xo7leVuIjUt+gmkAw8gsLqWRGpe+ozixy2wtghqKeAtPw/Jj3SlAVu4FpfiYzXXzdsDBn55OUa0+zOe1OXlzKDN4PD0ENpG+t6KQ2qNNr+kwM/nQn67IE9AuH+XbkYTQSu7+MW72Z4E/nwCtvC7isPxk8UMk58VnTUJfeC30+fBE9MdIN8HiKcJ3xD3pYShHx1sWbsAOJQn9Udr6XmV7ifNBVxrjc3sSc9s3C3Jq5S/5UxJhLvQAyeh6WXDwh3i9o1zCZfTxVdvpIXEhZZZ2AeOXZt9W5i5Fz38hjacBueq0xhFzDIJe7tLliyDMyqhBHaU+7gVY7JZ+6atDO9j6x+YjlC1+G263wtYIdgAmolFgmfHdgA8oxh1vszU4Bab6Zbzo7mNn2aWCZNDFcK9gkeREACb1fEI2dA3Jlo/4pIpbEqbBwXF/rhmSo3MaGxZwYHixJkb2a7U2HzOm9foV2WzhExLE5pXdKcOHllhy5+0lr6p3tMPLnX1UNrAdBCtrCJls9I1egxP/A1lM2k5/WWKz9kclQVKGBZGFd0DSQ023rSzENUs0pWo4/6Di83io32ml6xf7JLlGtZWpz66ftLQhGHC59lVj0u3ExtHjTbAwv421WMi8GAm04WdfBSvMENGuxteJLmUQ7QnvQdE+214cyo3r2fmIFYvRfDBhbi6yeA0iFHdlZ+GdHwhlKYvC+bcHjkmM5/J7GsLu51xpXOymKqU1xVLb53CZIxHVVHoQu4/GDL5d0baS+Z0rQWEG8r5YHEzQH1WoI9OpKlwuhK+HcId+6UtX4Op8aByUCGDwS7TA1KbUfPjiYHDg30gogLrHdHiYLOcR8Ah0JrIkV5XP5RHhUUofvm8qeOtr3KbnH1mjXt4jZW38jumsaHawmE/r6H7JIn1+2qKOvLCLtsL++kKHZrffN7RbeABlMfxWg79TdWRYfsgSrcYuarS+Z8vDlGj4oiWnbLW/sfy2o4vTG9H+bS7tRxUTXI6vSntxSDZho1oAvDFBx5wmQfEzWbkJlb1OazugYxlxoKFcgxcc6b3YBN6+ezNZgXNtDu+cNt0Q/hbNPHtdLCYu/7L92d3JsP7TI5m7WCp9dUm6owGWukrKsi199Cvs0Skbh+c0//FzHDY++wrAJP7QHHrW/gmQCi7rtbwF+Ygi7a1+btcqWu8jvG3TOaslvzdJf48ce6BAt7favFRf4V55ZaXbPXB1+v6R1HhdKg4Ex+l6msjVNtkGbmGHcw0Cci2qoA/wfzonrz5vUKdIgkKotm/Plhf5W07nlsOov05Lik2R3UGzO4g/ZRJZPnkN4T8M6/c8wzkG9KHDqIsnz08XOu5SAKp6+muwoaDTKj0mATH2SpFcwGsz2nbQbX1klEyPz6RQYSqpa+9W1Vvgv//ww599ISVCjaU8UOslr85DN1j4AS9CqhEaQb0u+9LwjEGH+Ko/9LJlWDxhEUnrAc8YdQbGCPLaGeNEjXfeycra4SYD6WwrU9RMFTRXMrcXYDfDk8txGlPPWXTwFxffkSd+4lUqGmsoCTzhqi/JbQuxozv1kMTV2l4XhlT7PzzqKGge+rF03nPGLXx/7xnrjABGdJJep+j9VmXqt69pYwullpRdxUGxS7wFL7CjZbF1Z6PIYxSet90GUSJB6NXmGcT/8h/DKOj6ZY5NSbbnPFQGapCLHYTWH5qHdMWakMpy3ajKjDJJf4CM7RijpA9y9C18V30uZ/W+NiF8rT5O9pEjXDMST+n2lH7uYEEcWDtfDDWMcX7KHbyILFF4P5CqNaNeue3H4NtyAzUuh5PdKhHVs6F/cUxA6/6QpG54yKI+QYjbwVRAh41NHDJrprkLsxRhH6uIu0oHkeU8SAJtPy79KcLDeA/w73gCeWsmFstHpGEvMYmllb3+SxOYfHoYhA7HwQ9R5iNAdhlyMJV/+IiKYEZAglw/1BFphjCdGcZWpkTyBMCRZbXNdWqfVX+cEOPq/jDpmdkbzo+F9wPdvlvCX1pRq+tIwR7SNpkMkFFn+u4gPkeDzc5o+4xRrBHyN8GQs1WvbsUa5TjaitmI2Crb7nTagrsadax6MLbyoKHecZaX8rptdbpqZGj1YBv9JyBCZ03y3hxz1HYBF9KFNj7qimyLBs8DSTG6QBMKLfNipzvT3Va5yLwIaBu+g2ykySljhxr/7tGhioyAU6K3vEzx4RwxkUBMbuukPQVQmHQx0A/GFBBdRR0kilRp95D33jMgjyIx02ZFUplmlsBSRYShvwtp2+RDyh9pgLFjbJ1zpNlH7sYX8ve+RqBXpSzzOXHM8TKfHNYPNkX29x5Xa4nFAdMG54t7xacHIS0Hq6Ka15qcUbhOzQb11nR3zIUhy4V5vO0kxIV0cZfKk0JreaQS0GfYdBlJX98NrFPpkTF6FMjKgBU6UqNSDwdzo7dSaMLF1AKpR/vpP8RUGn4XBz2AvQ4eC/evKx0gzyaEq3pSlSjmm21C01s3dOeMCrVC2Ibqi+eC6dOF8d6KfhSvVnaxgpTu0CZU9Has2WSS+i/Voi5ybVnm0IbJ6ECHI6eBSUrwJjHJw6FQoPg8D/b/CfvXCXal0O8qgfrkIJavw2n7dOxFISSI0nbf5TZh2iQ9dL6MTFqNjUCMHyviMBMhF4L07lEo14Q1NWZLfkbB9+MYLxwptFCMBjolxqhnKugiO+VUx6i5//Qx9FQLkhZcCDzmOnqF+o8Q96ry3FLGL7r9TZX9mV39JYyykrQzFfmncoQRVx3yHQyAhIgFbA6OWdvIGFSlDYcP5IIwLGfcVRx3Bn4LjQ1jfbMLigGa61AAcIGVnNS2S9/9lcfjZfhBLIbNuwWibjlt3DSlD8URa2YFZlTUYlxUrmR/KKPC42nDcX5JdBST2oyU4ApVfsKEasifbt9/UC9WTXz0KWOLYCliwSVYooZoSRLTp88/bmeP+14VPNKkC4ryALPIfy3+TFC8AwEPtxtKe955j5M8/jDGIsqZJtDuXhwcznT7lXsH88GnypIvZFYH2lDvmAeu1lpMVJWMNjQ+0DavkD2iHNrdgHjvvdEyDVyl5TBtG5rOeGtCcOMhvnPAoALAHkuxmhQcZma3JZ18k5YOxgt08DC+h673pwHf4VK5wOuEIW1Cz7VSCsSQp+nNO8iY+Yu+mWuNhmzeQ7g87F1g4t2jKH0BMUQ3KPry6epXLNXd2HQQpPMKIrOdSPfSHDnkoPlje9flg/r32MkgwsubgPdlq89c9UqZrKQ8XO3Q0WbKcb6HWcjarz7b8topZ8bb75QYVwGIRT3xf9kaen8pcJK1sS2TTkUUR8tSel8SuOpimGhMlim36rPFn04naaFbZ9oVg0WsHAnZXks9YUKZ/4EtmIPwPDn4/65/N5Ce32stL2UKB9YoALCJG7Pixl782slkB/grnegeXu9hWHJm0g1DeYHspvVthKH00Z3SuBFvs02GUjnPtnXxzk4HW56SWpdefJwznGn5hUzY1rwwx+2pP6otexbl0Q94SB1P4koUexax0aWCH/naZnb+b/75z67b+dQdV1BgeGTX97strwsGQtW0grvYNB2wLuwQzPsrGADzwEoKF7eUbzp75lBSKXeF1JCos3OQyNJ2ctVcClLO2CeiGNnHXIGkPAy4LMkEz1F1yarVSjMJ7B9N9BMmAmsJPb76KvpqIgvSylkI//EUZt2/rw9GVfysCjm0P9K8EkFX7zf8dza0+l/kElfoRSzv4sng9KhYZK3YbW2N03Y3BcocWbhPbP8HBr+alsS2KBkV5eJ5NeZVbu7QaWjeOScfo3gZvXeqHHw6u6MLf/pI+s+xFeA+t1jSYJjqaOByY04T5r42x13tee/b9HBj7P1BeOzLytz56HSx2Rim2wJ1i894ijqoTCRA7hNbyIWEPuZSEteFxRLjc2WPEqDcm9NckovTUJuxw+X+AXXd9uHW2BLB1d76svJzkU9JuTC48z/koYQMxqiaKnpO4qiYHyCsTBbAnIYs96PtYVAX8uSjmYqpl8JE/ctdGDzsxTuM3Can/9YHqnQI4IFuqE+X05v3VLJSwtHfdWYw58ea0pCT1H+0ssQFQlYhkZwDZUrkwrybF0lMd1jStM6MQAl6+Rqx8p76UwT+5OCRfxEQE6Qbn6LHKI7jdFnezPQE1hK0ByqdYECzAPTykCnZF/8BifaiQbIq7r9U3WjveQGYY1v+fbgTUGDyHqsne8KyLQbB6QJOYkj1n9Z0mUMwQiFqbIJxlVJXH1COiNSlVc/9K+YcjEKlkIzAvpmOIi9i2EnaWMLRhx9PbDp3SmOz30AAPBPxVOzXby/4+vapZkttpwJYUCalOoyUzzt53Z6BjdUz7I4BC/tBdSqyJ/YOxsZX2eeJvKWGYm1CpKIR5rSByNUzSXTHMTaEcTPwm8oBMDoQVYN+ZS9t60yf5MU4q4YwjwIwIbD76Uxq58Spj0Fk3bwBoXPk25xFN9qsCvG6mCMMsA+1DLG/MvJxYNKGV2BsPDKs6KnBxw9qYepsywQoTkptvXmA5paN4nQwMu1K/nrTNkRvw6xpvYT/1hkM3dfkyy9IDqa2FZQNiWfjb5tuEcjMxYlNs6QRYomWuXtG2ewBaMhUu8hDmCg0/29JWzgittYLt6shicL05QPW61NsZQgc4SC6A7V5qil5oq94FAsBVALumPVe5HOW75jk8N1cJgWYFuqKXCd/n2vujL66FiThwAggOzPCFkZpJz9+4Tot7zx4961d27maRuE3uA9fyFv3g9gHm8Az3GN/1wH8OaPjL3zMkq/a0mOguxhlgJ1zHwKseOIr9QMizW7i4ehvp0BX30pWH6agyokOZq/X8+ta6j8+Hej+jOyOYg1BzVUtiugjNS1kD+wk1WLH1WfUklQc7q24FgQrjy9fzL3ibKPTqTOQ302xztscimdMpQp48ui3ghCB46iNN/tToZ5Wc+GJ4/incBWlqV8fo7MOOWE9rH8Y3udJsJ6+4Nm0lK8QMS08ZZxkQt7u6vzRMIY3GIVeoXiaYfgFZwxZJoT0/jgbjZm1f0KXzXcPPndoh9tJ87xh2KrMiAe7CCJFGFaUvyuGf+/kn7AD8zV2zsp8Fl7/KIs+WP+sMYaRWQw0xnOI6IOeW5YOzsxlpf+Hp/ZhGQy9Qknlaptu1mXFPgj0lIzIJd3fA6oofYF2qcarONQFOVjmHczqUR+U5BBrNV13/8Oj2C5i5AvtEKXFfrsyzu2tmUAUqfRejJJTWpiMbnl4JaGHZQoun/fuYD7hVM0O+YJ00u2z6xvJJ8o3Cq9cBxn0se4j9h87/8DBfqfk3R6sLKCthCt9BVUMGUjyuVSLqSP54RZyhgLBjjEWClI/lFJbjzdKnUOdmWxsiNsUfvW2vZAiMul24spcob0wl+3GGBc2x6dwlBg9LoMw6Agao1IGnYMKGFSHFCKwQRHWNeVP4d3Nvy5sxoO6WYiNAFKpEUr/7VmE2qt78m3bSoI2z1H96HoJXiIL1ROMLzbmt/mFnwNlHQT7xEQPZGPvRAgsDQ50kDq/SjOz6nZucPOIUO98SchoiG01wv/Wez5hbeBGli9czI6PJzdB88cNB/PXAWCwvR/TTo2YoPJ6sPTcxeyDqFTdc4/4+l/IiHKmQBGS9IarYErYZSmvoHdJcIjnHII4eGKwiKNlMgkPyRLjNz5AuC/uQaKcUFiJcGMkCOLQx1EN8UIbEdSdYLeVfyJpugJDChACTjSw2YSB/QgZu94E72g5kzziGUK0B97EivYzyCMkPmzsyn9doktFcOzbmupxm54OSVbSG0fP6n1ngFbVf0uXwRvBl1eUJObMTWuo1pniD3BDPIn85mNI3pVojrk+dvOGTQRlOEQdC565luARHc128Ab436+zVSLeUGB5I5a/bnOzdrkDyXEKYISpDYLugfcbfd5aMoTp8OSUzDScy5lwcqJMA1icSXA8hlP5Vf2jgKPHX0AdCC+BM1tgEg1Mm/guPJxTHByrudx2fv9WHAvOMpSNZUhLiwD9w5CfCvFKi0e/XZivap9i+/KD29tkeKz6WlEJWTNbNrHMfrEccEbYSnypuLULR+abSgbrvz+APEqEoQHTgHwTGnsCeCjE78jWuk7+bRwe+xlgTDh/HEPETX6U8XBArRpiS+hi9SUaoIAC6R0NbH375eJCECEF5bZIO8BoLTKTHAY58FbHKhJGkCUcH+Ax9qyzDlctMvjMWvr/xgKOfA33p9ZWd8N16DweinfW+8uhmdgSmIO58AIIdYMuvnaltQ4AFQ+RmfTrpdFMrTR7Y0cMbtpumLraET+jOLP/ApPJvZhFb6OffiSJTAl9DLoi7rmWEr+xr+9HME9HKBXL0AMjy4Sw5GYZd3SP+IGelUiKYY0BQvPJVMtetv7/YviX85e4/ygbNPwtblG5be0sDwxKoJUi2kXe6nkZR1BlDO4ZPL8GKNJrkmrelgo6L8CJOb6TEj1XRej5xtX79OwzR+7HW+KGukTi4nPfZR9FMFRrRbMJZJmbW086BhQChIJqciKBJ9jKgl88i2o8Ag2XpESt66vyQnc5c+RoOYoLR29GccWm3UF1DMa/zgrbI47WRdvN2WfLaddoIe1CzPnLI/qnu74/v9MbcAx/HVoR9h09ql3u4cFbraZqEPBchv8oLYaqhiiDcwcmK8WkA//OkHWbfaL2+o/FUNK97y7yMP2NAZCClpTaJyGqVR/MPno8o1PQOgfSLXE6MjXxyDhS/r5YSHuyXLh8ENq7o03kml5g9MGaXAhUv0Q3sLY3gR68z+SfU6C+EknL47im/KGJxhuxhAvLw8MdSsvyzFIUYgmmYFjIoPpR/RuvuGyO1KZH82OGYBRas3ngoGSV30N2fWdXOGm3p82RJ2H8HErpkIfS2ZuWw6QlKcwB16q8gW/66eFkyVTY1TxT1iRVULikD8GQk+M8OxfvgBF0USqdxja1f9q6BFXnARCfD40adrp/wjPUsW0Vtb4SXEpeNnJfMgOwOh10tuo/ZKc2xxXdthkXDx1iM7rqPa4mcoICsJwIc3w+yy9bNoiB9u1QWvMVJsQGO13CgJ55GoWMSyANDbdlV+/Vtv++EzXNa0onLu9CSdK/pGe2/JAZgr03OjYh0rPCA/BgCNWgUQxCecdiOPxAxUL3TSdReqKKqHuxeU3DF5N0BHX/VmwbCJQrfvelefyvGJ0QjtEsg1LxvWmRqvd12zCb5udjM7jTzzNOy4xdYWCzgevO4jrLq9eD7X/6OHxijFr3NxVxlfQ0qBb33S+Yfaftv2nu9BQ23EOjKrpxA4tQczVS6CaLAEGo5XP7ZG4RfwsIZrOYkqqlLEQvXxOYWBiVsamgceDhPxwgaFxFmvZrQDcjkwEYxm/+AsFPJDSq9XVB/bzGObTnfUOVGM9vUZEgt0QzaRmkRgR63KB97DJvHaShodvsUllt5OG4su0uuxABqgZoCXdap0Q05K2NYfl+8tRYSKjE+3QKPVId2Ba+pw9BXq3Om4Cx5kb0eBr+bml57l3OjvVcnEQdCnWX9YEf1ocU/ia/vovbQWEWYjo2cegTvs8stBPeENoAmQgXks2gV0BryLJJTtRj48yhccOO7T/wLLx7igS96ltlIfANsySi23mmJ9PYrZYDqGv+LWyC/vM1pojtf5Wo6liN4pyIYdxo5+y348U8p+KJUHBhE5FXDjhRr3cq5PS7S6sSHhe0b5OIdwfzGxOldqfRcbObDlTLaNw4vTVdS6aaY9iZhhbebaoa7DjCJY6RAGb7MqQ7bpHOXJs8oLAYpV1QrHhyygoz8xX2GSIt6GVCrfKzc55U7euTwMma1J7uRIsE76dG71x804wofHVG5Kz1DslwQtoVAElmAXk/Q+CwI+ESyEGQfV2Sw2Ju6oA4dk60PeW6VYwzDp9gCjLK5IqY63/8d8pjv4M9iptS4/Gtw81E2iWS6P3BXPE6QbNfa3ID0/BsxuqxMaQcwM3o5pWEYA/HG/7emvrtkzsssRUaQIl5AhsBRBzog32xn2ljfylqEHt8UBORUPZjQqRgJaJsuvhVMdVG6W3Y+QXrQVRxw5fn60B9nTTMA6gwzJDIIR5Up+f1Wyfde3Ear8fzkNkKB3VzE64Z2dkoOHTi6X9vjJDBS55+f2cTiR+//V2PBoEFN/svveiywLPc9CWqcxZIv2Onm/7ViluUBrozWE/XQEK1YWIrJQ2dnzkZOjxKrsXJKn5dR/Sm0wqYOtrb0g6ZTALg7YqWSvahSFUDZ7KzvrMAwHg8WS9x1hKsSsoQIqpYtb745sktK4fjxaHxCnVXdOOGwaNXolf9yeOx0qA3EtgIZ3dJnMfskQwq8YgMFCyiuIorhLUaZl//5y7qO7QB/a6troQ9OnQHri2wuwu/SKEF+0k/0PhbFwPAtMcPI7opUGcjEfaYED0JZ8klt+AorKaD5WWXFRg3iDXQ2DIeWq3VGL7cHNRbl1fAo2mmXIxti/MuRgk8WwvhUxCOTx5wvY9JTlyAhgxwVQogakkPMp8A8X78oQ9WsA/o5VI64Kg+QJvEVQjdzH7MN3xlysiEzR72baSqYve9DJd7vRTyJpPi0638YYlnahgLF5jiyE2TgM7NwwiflhrsPGcfL4mmxD9WItsue/E+m68LvhmKa9Hb0E9qiFe/e6/vyAuIIQxk5j1VHNCsoBAfpmhnJznbpOwoFpByHxwFsxBNqOWylgNbALrUniVwk+qRPr++hBvAgRxjdjaBnEvaQgcHskAUW1EScrsPVAKT+KAWPdLKjj2TB3sul7I3XwS51RMZdw73hxzxxpwg0jqk/BMP/LQfgoxxCzlXIi1FZsl6gtWmEwuBi2LruuM89n5NpGgu0NHImOFv17z2//bWr3CM/BMTJcdgEibdJY4MaEpv3AeJgVdtIwMbX+Q24j/Zc+o++RfNP7QNYEZLHV2JWYlYWf4ub6Yx3WO00/0CstcawyUVYlDz1hdq877n31pnNIV4hIGwNjbx0lc0H6vOnHUm7YHC5Prk+7hXSoFGRPvCI2goY/OxllORbKY5SSodY4NI/K4gZPknqez5miEFysNpoz7ZV+abAqBlYUiwDZQ106uUlt82iZO3W8b2Ed7fszdL14ioO03jP+OgbEiKf+DaIqdk33i4hVnXvyS65Z4V2wq8qGMTkYa5nfP9kKSfazFq9YP9Ojh5h9xyVce90DP/Jy3GpW4Sg81+y3agVn0i0FJhrnNex4FcdXHf9lJT8lTPJ0QpjnNfQBtla2xfXlUXNxup20rbIfiTBd/0eXQ21IZMuRs4a4zjbDn2HMUIKqZlhXNPxtNiZd2twE5d+b7uH7ZbJiaaedh+RKgTJlz6N8yEJ91///DE0XQ5x/qmcj5TepgWGMBvrizm7UpoMaBsfc6Q7+n+XxDjC+6CXevPQF6Y12aHGRdh168DjlVc0XldefBwSAOwAdsKIdy0I/hv0JdEJDwqnDx0UbrKoWvK1lY+i6CJPACSK5NLY9nYPWFY5am2OcAOHMG/X4q0KEi5ak8gmucDELxlGSO1c2ylZgwvmEWCYkk5Tdd0C2W4Z27SLKKhHb8oWPsluweKmfwaIrIoyY6M2WvRDGsJY0n1U8HY5GlZ1xJmlXxfWMGYCyFRiQWpexVkcvwMnRWzS8BoRCANVhe0NJFPTGJyuONxPw2xsb0wZMf/i+gdr9COHNrA6F7KGsh38P6yf9GjHaBzvrvkL8EvU/wq7N4MDs3uWRIsJfqi+AI+AmlTfqU7njEK4NAJ/5dRh+BP9NUfQpBseN5GIj5sAdkJ3g0uCP4aYAFev34N9JxGqVOGCtJk6ctbYgAlaTshJEaxAg6p2J6EHt2+R0oiVQbEyb84eIXZ3/GHCgiwfZ/6ykuH+OdGjTV4hm5zzoxyS+xu8sR9kILCIDq6+ZEicrxaK1pEtJTOmbr7HyE5X89/zoH74CY3Q4l2rJJJRQt+CIY68PpQW6/v8xa0jAYKcFFRNNS7smoPxUTMM9vZpJQTW3/4E2l+sdOMVpYZ0TGKprkFFi5piWj5j7U/IU+qdnZCQx3rP8Bw1BxreU50Lh9MaU7CtHbOUqK+ril9OOJpVvYZ3/20ZKNrZ9LvjP/+jvdLAlRJ8YLjIbTQ7hOVweSjdQzBvX/MrM6TbIt9oMNgN4v4/Mrtf73pJveMupWSX6SKP1a7XBZLKRL57M5807EA5NVSDfoa9FaAjJuBXA+RnYghZPDMEDq4/j96oOKJ+E/uOy1ri1x8JuWhYKYRlh/h/Z4MqlB3uYVuUVT/4k1lFesB+eeRCLYgTFkbMy5eBixy+ntNna/yqEX5gTsp66G+dY8ScXG8ApEHsA3NXIXTuv+aWMdEC9Q0naBRk2X5u9Jq/b9laqBa/r/GDd9kgUVCZPnsE4glYFQ6r+zE7Xk9s1TStuSXZAInYb0A6Wtv4By9WcGCvFf7zCkYkPvmobAAUwXzbxSJlO2jWMqJpOEPNo3FyABleawmyv+vX/4wQ1YV/c4B8p6GuAvK9KtiBycgB4cuDmYDLqEApc7Cop9sZS+TsedczxUrfOYCx6NhBC4DLloGm2Vtp37+p/aIeZM7IjEih1Wv9sWPwTFje9j79QW2CNMf9BlYs9SEWZuEz4p27zzXpx94ctaTO1wkWuBX75ByG3rx7Spozyz8CUVWQVjcfsrMN3HtpLAeYedCzGrfrSsdr9Lcs2zhdHRbnbg2yGQJOuwOPv3L0E9bBj/KUDf01Lbn68kV1WXLUTZsoSf6TEaWO+uvBEhtr0DBuCZJ7EAk4n1CkgKvZnZppQiu8Cm8GYgOiU4pP8Kg1bX+10u+GfQaS3RLGA+5ETntvMkiNtwlO+Q11TDv4Ebcuh2947nDiU5MvGaBVUwsOA7TixTeEZjlrw/1jtaf/Hbgb5yxfdWpEnNW8mBKc3YF5EhnZOft7ogQlu/1oJeFsbrpiVXURFcxkYHVtDvpCZSN4bjshOYoDh5ttZEliVF9RcHP0m3SZ7MH6mfp+/OeqxITzoft2unwcwOPhsVsyfmbJDIVDLy6EKF/sVSFrJzX+qV50sx1mvlD6DsfuR/pNWIOxFv3Z//IaRHyxAyzKzJVxr0pD3rS2aXOWPxj0249ZRwBgeKUwXZkD8sglXQH38086MAfIZqG0fZqVsvglxYdNuz83ETWypsv66yD3Fn1Y8phUBP+4FzUADnZQcIlNGrUUzMnWL0I9W6qGGYWPRx5WJHSDyruTDxApHGi+8NbMHgHsszPkkfhLZGsCIAFkuOOp0WbB9h8KH4rE91ULWxLE8T3QGMkWtAvNXYl4l4QvtFP/H60etqC5zWznt+PpOnByOOi+LxIFLM6oQ05Y+pAUhyO84WcaHbOTHfMK/5FE4MHoU6XBLXM7EE050+R9HkmDNeeBzooN6PTChyXFh8U/GsCw4SMLxPig0o694BpulsdwFGKpTgMDhj16tNpq1K9XKkGLuzg0VuE1iPEUTlIe4RmL+H6YOACOAfP0WfEIFiZYMiI+5jqD0Wi/Njhw7StU3n0ojM0ldYVdBAG930cvnlPKhRSQqeJ9xNsoKOSLW7xojIyUmuj9T7tjCbiaUi0omua9TMECUujL8CX53TI/SxhwrBU7azcCjO9Av1SqxXpPjvEjMUVXZzoQjYhT5Fzj8tNmQ3s/Na+uzNYbVGyXac63Pc26U6H+TN3VshAa0m2X2bnBGxU//PRf5LUQ8Th+nsWGbgD/UGHGbCWu7GbkGeNsRsUflKZhaOQuKtItZns4qhSqAfPQLivuzTcI5g0x7huXHG5dWnhERsmGhb9F7c5+4RMzsAe4ZgZEtj4qMtMVSp+x4IOeFVG7gJCsvqtOaVgZNkazcxJrSPK/l4XCih4iFDUICH1a54a4Gap7q41hh3SRCYVu43/mdjtdG3I4Or8oP5/+Ais9GpxSoZGEEETebLYJv1fISp3ZgTs4RBCpO8GbghpCJC0+bhLlZ1DcZgbtbO4+OvhZ+Qwl5vrpt6Ge+z3L2WzJfdzeYa4PF0iE0lFwVMDS4tzIqG6PYfpapVd9njC6ePKIFM1JlBUJ7FcsmV3Jy/9vdl8zryx308VsXGgho5YUk8wHhV+t2xv8g53x9zaeulguBeiYcn8zl1X5DXqySyXY45liQ0AvItM9kDWvFZIy01wepddxZRdvSHzr1uZN/joCVcwr+DYPioa3/kD26O0BVTxu2Z8tFlmDF8njQ6TWNFRfXlPejZCbg/wkTYp2BLAxaQbH6M5syBOwGOSKpNcUpgTTV+8mt31UFQsoyWG2R3vCxaEJlG/cri9qzNyk01VbIq4R9m0VbhTO2OQjBqJUxMeWzEd/znzgBrMUUbFFDkpC9XdaK/MOgrfTbwWDu1d3xz8mwVcbdd+nOuW8gP/1xCUJ8U0ABgcKpMFOwzbCNMTNJg6Qeo6v2hAn6rjU4gJbdUXfYvoCdvly0E3eHSJG971nUezHQMuA/bF1fOfu0fWSccrw0TOCLzFKX1uVuoKYAPx6fSyAJIBdnpaWFO/80BybzbPRGmZ8KO6c//OQtxNnFkda3TIXryxA+ugeRmXa3k3z1PTVWOVFwzXy6PrfkxE2pAyfb463HAevq3P5AS2PyqG10vbsLWaciNE/6ZRcW1/j2mff7q5CqTYGX35nXpXVUCJMBO7qVDTgOZmkTbH2T/Xo9PTZW78k2n49iq7cr3w/KgJBZI5I9yVXQZpmfi6sjo8TxwtcO6bSr+7NXS76ALqeUgvGqlmUH1fu8TWA3JCM9ot8DW9uXUYTr01aJUk4RviBnPX/qZdD32yWnaL7XEjRHOBQJXo96wBuJE5LuZiwMvSGEUTnre5VHqakeO1FH7J7bKVDsnj4qU9zO0X3xCfS5jZuQGuW48aTJ3yaZUXUeX/WZSgODt8AVtasxbziqbJshJXFN1ofvJSyc1Tn6r3hoeoEtEte4Yz7Pik3H806tWMPTErkZJTg5mZr6ZE190PGGZUXYbZ0gsyIf5Hk2SBN8BkSKc9NAOFtoMiPNL58y/Z8pU/tacdpoTgG160f8421pbuHEZEKqggN9vDKUvYQ8sVuP8mo3/x4ef6cEw30I2Dgs9mGKvfjAeSpSO3Kt4dRv/Dttvm8mATKcB8qdMRNPowONI8dELS2qz3uvexFUFY7IlR4CeB1xvBWPnLtmt5wsvZEqIeaEjuwVX5vbKpQ3sCYt04B8ze796sWpnNthmcnmSdQXaJe6nN+40KE8NStZ0D3GVBjTOV/s0F0bLKbORe/MQ7tpLvFp/eG72fdPx//KwYQAU2PFDYAsMVClGrSRMCwSllRwCWEZFqsR4nNBzwL1DbAId6o8iRXn8dhF6RF0MGo+NQ3cuu0926bOwb915+1tnsB8WYU0un8iDyo04ZFlYe64ZQRsLCH1V7DKs9TVUxq79OIQEX/lhHetQzavJxFuG9MVR2loiL4o6HZEKab5xjn3gBk8n4cm1KMVkIvYaRzOkM69/VVGDiHIUv33wEaGS6ecLE+HBl185gPGvGkqUsx5+r9pvrzu7DWT/VMvO3aJIZOW7KnE7JpQaSkYtlzSrJMDvKPM/E8tjKHctRFYqdjZjVTHv3LyJREt7p3TwdXyepCurok4gwsNOmZGeOfTDBAuFQlKPdEFqYpCwVImJKLyIYz48oS+usdhhGnxTQrsSsLxXWRgSI06ZUA6tyeJwcZGpJHJjetjrd59ICsOoQuWNXoJ2anXlkTojEjr4XL2DtgqxUJhTDFPZ/XpTQxqDxN0DRVqy6xE0SbtI286+uZsLEuuvlEcTWSuvbbJDF/OrIAXBGON7UqXbXchAa980YflNh6ytDqJYi7XusImv8gdviNzkVklA2cjlC1LUY12zwCcT6DYS6CzcqG5aiCyMZqNgDkbeJlc7bGuEwDnekAlzDXLkiYOj1+VfnfRJWGafpZj/sTSbYdIMVDtLCrMCwMoZ6rKIwD/igA/krbCwixwbRFQOog7Rk57/YHFSPnak0ypPY0y6hCPHlVfHJiF8/iPJngCnXWQhqAUO19FcEm7QzR6/aai5U2EJEZrdYAfxL20iJkg/x6ZK0ZxGcCpwags7dI51ef6DsdPGDMj8kEBBm7/LpWYzYlm5L/FPAahiprpThtiwymJwGXaFny31nPT5GNifUnUuKQgUmBI8KLgtej1y8r5l80J7jr4Pm+2yE0k3nRVK33SAIP4AugD2RPIAAzdCb+TIufv0xCuAkhx2ZaD+mZRkuXapaAEspPqysKRZzCjnLs7NWCnnzxVImsRdiFI/l0dukPxu0F/wUSdtwyrhk7NnG1G5f/Fsgw6l1qvDeE90ZO8F9s6vcB1enf1VOCa//+UPw6o3pYUmD3kK9nOwhIZxe9O6owPqyqJZITL7l9VPbnSZwJTJeExcqLzaI2usB8VZHCC2+7Y6rtOit+GGrgeT59jmziJXBsGrGChIL0JmblP6IgdYArsI0r+FXo6gq1RnedM43mcSMICPBxJgFe/eM0x+8ZijdZW50iRMZpLVH9a//DzuAJlAYiGc3zkMeBVxx60IWYT667RWPjmqiFBLwZPbp6IO0H43E2alR5/1mTDNKv8/wSyfGj+yqCGFZn9jPpc54E/l8hripqUzWHvanzcXp8LJrfTz/qUgnRMwv2V5WCqg13f1vCtcpkhJ0t7S6lJm+uLcnh1D5dqn+ZQVrRBWWlSVCmnoFNDF8NhhGwasUzXsA9ZeEeOcZpMKhqOvcTBPWuJCgckMHZknBb+usCOBbSKX+3duvx6C0bR7cP0fVrHw7/m581UHV9MknmX7hRPuMrm1/tgIkGNyoJfT5dZ1bdyaU7L0e26guuLx8S1DIczVaDk+NHbJgAeYMvylKtiZal2OKO+QqbAAszcs45wcEZEF1xsnulatdz0il5cCrTSfkXRfmVnvYMp3JbTjdSVCMFeVdG2ByuBEuAcYKkXnwsgYA7ssEaZg2AATYlxCgYn5QhfXLYIqOzcHWE6l6/xsLl83us69ndlkocmfxlRvJKJxJjGOyeT/hfB/WSaviMpQD51h2indGCuHN1Zs2AkhkI1Njb+YD9vfZltFuJA3Ay4Z9FlVL87IIKqwRIWW1CDnIVRc7OPBna2L9gkV6olEQFcywtJ3FlpeMfqSFCSnIvUVLvWnxBeGNSH7uBnip0mOlTVRJm1N3M16FxlG8Ueq+mt5lnZFhOIdQEqNsM+fzp05HepZnde/rzbsnapuM9fvPwxkEHLu+dQwOMilzDYr6QOUjRLZs8QVHgJIuG7yPF3zks8iLRSczIlyWXJ0a126DjY4AmxpM4DbQX9KSg9Fx2kATKRK1vTTFT4naDE2R2Bz3q6lJCjArnHJFzD+MFzX2DBx1hvXhq1aqXSefx8JFnr5ObYF7CqyYy4CGy7h1wE5/UoDq/v05jnS5kwGJxX0Yqi+aMzD0avMm5sijSOVeTXSxSOTG2snd7ytQvlWQTRIX1x7X3B9ofQUqP77vUDAxoeMsocLfVkpix3R/XZHc600IXxAR3HvHkf7CxmMZjWvFYrFp++7t5daAxtq9+bahOYDt8FAfddiJpJOtLXJBIxtKgaRecMhCSAVTuB1ezDKMmnt4gR3h2sMYz/Ug5dFLMSzrc2D+XRAJM5oQR9GHl2Q+Z8G+XAX8K5fGuhnyCpWIT1ULHOzMlCQ9MVPidIqmFnm8XuPly86WvkFRjale7Yo7B3pDdXKY3Wx+zD7L60SGWqx9+G9Xloa2tCI4DgGBJDUkv8ZpVy6LQziAI0r4/WFfWJHkfCG9Mj3k1jIutCww/mnSzXpDHIUOfTBs8+zbmH/OCDuo7hEyPuptx6n859/32nrBAsZTDfX8GGvCCccF6xNEoODtb8NB7yj+R4aqWsroIJuTShUuN3jZtmwri9hmpzuKarYbVFHp+mGlRvChXZXk/ZlTG9HY+Jh0ZRxflkx5tMeanxgE32o+woDY/XS8rTTYKU97mC8lyEZ9tLg88bEutUme65AvNxsOmpXOr6kBtLqI/tghIO69QgT5Don71Ej7E6VlKj+HClrju5xxGAtJNtQfkq7Drgyo1DUb99Ka3IhxeErXKK0OQhhNA1JyTfZcXGHDD+Nc5qnJ3Zi1mW4BTCyPwz8zbVTzJasqltkf7gfkkXY0Qs+/tA0spvywp/k/bpNNWzrhBN6gjYHCo2ewYfy1OLHjuvOrsKDb3iw06/b9mS04N6bZvtxAFi9iZB6vOof1tKbyjnvwb1Ke1n/RGUOEMDBavC1+F5Z2GG2ezKefBqZUzy593UrnFObT6gnmR1KG92yj+7B/N38hS12D9U8fbx00VZ4n6vKQFJCj1GDPwJ2uLxwoudLUFToRzyP0s/YR39Q4feO9QrQGXDxCMLAJjOmVz2kr9WAdeL91yFmX+Zbp6b7nF9lstQD1XR1/SYVyNxpsc5ylGvbi8zoYZXr/9LV/iDU/FNnBgmikV2BFxz0sIrOYWB75sMMTAXEH1iblgNxCNKGjYk0aG+kkAkdMZ6Xxq/1X38WAmEDugSdjwQvaegHrz1KPN+VZyh6H3akedpcr2nxc7Zs+S6y0a9K7WNlUbkAcvLeCx/ocZuBXGLDXCuhbDfAeCHVlrjNqNilK3EPA4DSDA/320Nn5AQZqSXlbaoQBgeD2m9M08jur9EQji9fpyJNlWSx6CqjbyIA7Q4xjLpaD4maozhymEZqyOkGfz6KanGktk14eNp5kdIhEzVR0PUCJjKORq/K5QOHUuujgEwAUcTYPZIrjbkEcCfW+PJ/SJpWkHETHU+A8OsXPoL3ixu0LVuAQ2yj9QqIapJ6yQlLCMR3qvSrkgVIXUXclfuGMmXivgQIPCCZrmOlBCJeh92BkcghW/uuPLiijIMLk9vEMOB5chKbwPO6xSfd8y0MMedCoXqkZZUnoBplw6KgrC558lEPFlc+OBrrptjTklUjFSmm3xobiKx5gEE+Ao9t6m1We6dUvgZIWmSk1WvD4DFIo1NWgcHvJC0v6RK/R7BPc1Ju28qcfRc6VpNhhhIF7XZgh1T045jHM+9HwtGHVLy3H4/UZGXNLWLr1cBz/+wYZRHzluGWCO+x0ryphThvTBVi9dEyHbJFOyr47b810PwxLzc2Z6czX66+HbUax7OAid/fZZLmhtIRIcpUH0DO7fyH0x9o3qbz7x9QvGqYrpSbrzqdQeBwsJs6qW+ou6OicAafpNg/mfTbibxEGNG7WFe6gHT/7uUar7oecA6wvmuZ8z30UjhRs04te+Mg6vLaf6BYpPidUF+97oCnbwjdax9r9CHdj6grx1d2mAtRI7WU7IsW5mL1gF9oYjxGG1rzeuXPhy+GWs6O7mFP1f67M4+95dVr3S+xLpZ8oC6sPkiKyC96mgFhmOLLef1bDysm0c56fE0XfX2DlARHeYA3DTax1Y/F4Hz9nriFf4bRLicOhev5gsIjgpU8xxf1A1t+3JciyZY0EWc+bPIgIKj3BA6yIb6i0F+fyybU4LdSc/GQIAiepR85ZkkW3bKc9fKOVt8nHuEjfVd4VC7i1Q0g1xj3YX0UDcvQhHj1rNVYWPA1VnEvFB9j3OY4Tb5PKi8trwPZDAkqaW7N68G2dpXzdERJRP3zpp4+r71HEpZ6hWtzJqC/tRcoHTc67dVJGvLi6sqySCmyfboD5evs+vL7gO6Z7z5loJ8XZYz/LX5eawVFLcQTmtHTkWFPbwJi32FKCuFd1c+lu+L2jNPd3a8V5wWXQGXjHXXRPRlKu+E85h6f/6S6SRR8179OQGOn27wAWL0fTjm4WwkDYVqMAKNJvCftWCSlrm+fd7bhfASYwtwho//tT/GH8HMtDZJF0DxsKRYC0Ga5nLoz+af1WWYWjonRAxnsbAqVf5GkyhWVmu+CWVlyXc95QH2EGqyj5IosMlbQ6VHcVx4mgR4c9FjNl8gtGhf3IJhHfZXgPOPV9hig/9q9SHVyAGByvS4jNzi47OughcXwSmBTP084jMTJmn6Y9qNKPMqohJUS7sac9O0bX3klRQuWiqJqadcVloNRvwomW3k0AVNIeEhufZDpE4RDNL8uXPlwldQd96L8nMNflJxQvZjVudIS2joXpisi+PGmKvfmOPPb3q6VmhPN6hmG/eKrqapHC22FzGFKwolfLiGhCUctusOckMw6NoF3NwtcSY/ry30yELb7wxigw2zJoZJP/BqUvAzgKGJ58boiU9asZAGMzF3fS3SsOiC9fuWYExbX8j5PCIgRFVB6OpeXcGIifMo+leWNzaxvXpFkONr/LTmHjZo0dwHBZYYpkeC5ZIhvTthhQ4JaEKPl6Bj9Zh6lAU6pxsUeLZosa4Wehyu5TgDLXCPnIGFfRV0h/tQ/FpLyKXy7UooAMLOwAkzqyj3L+JZMRHmR0bT7LoJzjvPHX8OfLgMQ6fjLTE5G4nmVduBEhIYyV4DArrc/eNzGre7kPfHfTlIjYMgLPaCwYdi3LtQp/rSVUn/i2zxc6+jfTDSxAIVfxtsRVrAiMuDNGVv6VrFi/bA6n4aZEZzT08jegTvxdugOdTrH14kLjHExqzbVlBAx5+cu7CsDhYiwzfjJ2xLziLwplp8i1I2KGIvkg/l42UJFRnR0vY7sfnU6SzE6EZDHzReJBuDxdM6V708PVIqbe0xihNLFeF5dIF5KGDwBN3jLTswXZcv22ZbkCGkkexc2EhYhMWt34qvh/tG7efHMEtrc75LCAD6t0K9zsAIsU2Hg9xUfh3XghkzTDCFfk3tovpiEdxZjdrbYPP0SteWp5Fsbpf0FUYJTUKvi7eqJB2XxXaRdenmqnuNqt/nsBVlEUHowRlCYMKM3k5nGmXINiwBtKkMXhhilVRE6E1tBoDPdsiNLDcmHZKpTDCBLyU9Ng0dmGWNpVhsdeUN6KuTMCMt+aXqE15qDHOZKAD31caL+/Q/8s/izyFn2HKAiLYMqgS5eL+nPJG023gk418mfWZiHaOhI5J88Pe4nM4Yrx+MzM6WLYgHltMoz1Z+FqLWPSM8HF/oA6wtXSEpMrfatpQbQJBFja/EO7Oavi5m/PL6yE/g6b+hnL3mJe/9+iQ/xrmFqrTI96n9mKdsRvQJHukHTU2QlplHEIlujYBSTrMGEM9vaX7ckCS0G2Z+0Kca0K471jqpImqTwQmnu3un9wez4e1ls03wjKZm5lm5k79UP9LXJRbhxDDot0BTr88qFq+tP7nfTb0FLlbERke2yN+0kLCuL1qVFg/bi67mV+2v95LVmm4D4frOIaWd9pTmVWdi0DlEWYmhJ0fVQkoNCaWe37BJCx7aJYzMFhlkRhohak5y3fZJMktB4+0BQovvSku4yEGIh+6bK66ErAv+7KGNR46lDgnUfo/URRir4zRH+MeicdRqwLWQSlIcpKsBSn/9rDXDtJpbe1Kf1TuC5W7Beq/XWuDaPxjcw0uQ8OIAvctJWQn4mOKAANJo30u78co0k2xvW6efYGNLSFtGmmfUdX6+E2nQ3TjSrIBwj3q+96t3vV9q89QtZ51WUycdCVwUeL6c8RVaLKpjyW7CVVCLolMCXMlD7/dRgFfqTR0BpNvCLiRcdpKlPPkycc/DOnfc1Rf2OhfjPIGzLPiWrxViUflczM0eZLPeZSYMR97tI6GMFeojZHLUc4wbFpuido7Xc8K+KHYWBvLaN6Yj43qegGTLVhVcH/dysC+qncdasTgCe3szLAzmd9Q4IxYo+G10LV0ixXzR08yPFUcNha4ifQnOOqVnMqS+ZpXOCz0Yqakdx9ZitomTaZd/dADH5xWAOmLW2d9YH62ch0FGsLpVictPV+q0RPWhf8mkkOmXoMg1tzQXI7JNQ2cHKzTf9mgCbF61PSlfHtsKtRSMmp4EbAs6HUmBOnwW1HT1wvE4MzZ8yZLtPoiQUrpzdCfMHq8eBLOqgfi51NAt5w4q2hvM0kXfVFpFLsHv3wIovGA2SPTOypKJyi55HrXKtJa9jGclb7HNVnb+eVU/hyCD6nJ285EpSrlW6QmFlLKlwvMpTYkQ/9bOoeo+7iZvFWo9ssZJPswgqkj/FRaLIcJre+daTJld9yC8HKKFAhd5U95YiJR4TQv42e+ymvITdYCm/NPchm63MkmBTyBgmvWfBqV6UpnnMvRHJpUVqt2D6ke1H8J4VOctkU4jtmyrv7HYkqMc97zUVjVNzXtwo9Og9pM5iseR0as+SWtsEHSSC8TQBqHWm7PfmewiUQYiV/aDNhVetNSGcrjIn0FaqzN/3Qdm6Pee24drSMtjyCqlNvnZdtmS98we/mCm/h10knPlF46Cimv1OUQkdBVsTgif5X3kM54R27Ii7od5LOXT3Uc25pF4pXyTPAOKWGOBu6qStSqt+RspM+QDbbgcSMZ1S9AQU126Rbp4pgHQA+zK3bBjnvYKY4BcZ1jQ/5AJfSLsgwnACzQ1+l9KNcivSv7gv6/bMV7VGQneHHC1kvzDqhilixkR8s08C+OWpzo6gCUbwy7i6f3k23LObjgxo9qjiRpZzuGWvgfO0i4CwR+E6sPbnaOWM+3XKCN/aCHa7dB2BBFsxRifbjyJEqD9Tq14n4Pyt07u6AHn6hXGn65zw5In4YeAA+ywLXdDuShINQ7+UuZMHf8gq2k4WMEH6mCFzIXGw1gpIOa32mBcbxTF8LnvmjC4tewn2JFLc9HiF0AG9wd6CA/AGPHbJpkFhdUAiqhIzScorCYsj8M3jE7DlWuKGOOyFvpcV8/+SohlSqYKO3x5CBtAMHZOrD8IhvCLMYWMnJa5iDCE8v5ecisaolclK+jrR/8USjfNSdDsbVGll5tI8v62CZubgHGYzGpvD4es9j/cFiql0GAk1oMNgpsuTKMWW1hGW0kK5WJjxqOUxqoFnKK/m2sVwufncRiN9jsCqTnOpECLhzCrCu9zRFjy4b+wY88EtQo8RHsgSM1C7rM7YlWUCREkYUIQf3CAiIkfqBT/SEhxd8vgsSoWOhVN00Q3QHpWP2eEcqdLQxf0C1Mtswtqn7/VPvfaYYp9SFcmZX+JA5/ilJ11rmnbYYmwVrBcZBM3msBjj7xY2JXz6K/rhc85z0Iwu1BbK/uuo1i686Ns6CughLlTo/tfM110El0Kmg6EWMfQ561kYYSj8nVVCOzqKMqb6Nhm7No8ODTZExtIFli6PELt2CeGVC2Fez0JotCSP9FOLjWxQa19vJ15Tg5JTwdg6kXC+GqOVRZUvT3jYJoh9n1aqf3jDSN1AKK9Id2Fk8fpTI5SAIfnWD3Rmp6Oi9fZoKg2MGGgVH4+o5JknzrKvEjZkIBFeqbJlnpggyXcY5hI2rGE1avaqwzGKrFpR4gNtTIPzVEMz7OV5cgODHlFzDGaciA9DmltLnSBjNIFzt5XbvmL+7PwhqAaWzKZV9lCtaUCCLw1Nw3CtkwW4Z0gapxiz014oP8eqa526DInwh5aY+YxEAKqmQhpBW+6bA746a1g2O5Xt1Pbx9MVGZw+GdDGHfuIb9hxEI8ZUHkCTGnv5SluEtS9j7QZspUtszFkn+l32DehtELkrSrSi12FlqL4nmLcnGO6RZrXmi8+qzhHmp+sGOEacHVlQlkwxzVoeXXQQPoXI+ZAfT5+Z9kOjks9RG7793DCw2Y8ds+poP//xVr+2IuKIOfSv+vPnAMFlG9oJB4aleOSkpANAPS43Lpyc1eu1+qhFT7yIg2tkZokmvsy4Ws37+vvth6IsciPbxaXDodpM4XNipayCZhsbHjgq6EsKu57UM3fh3jkeUIkFNR6ig4kqeYpr5A+WdGZFT5Ilx+/89EOmxdPYjfdHtVjPhxCe7JP862Nra0XWI2qqmcT7ry9luskoRXg2xp23ZissLksaQ77ctN7tiFhl3z5Jn2pCGLU4BYpzrHCzMgYlsqBcY+I5MiBlE0D1XDphdYxgcTygPD08NYdr9V7e0PHHO64O3wjPNCesrwL88iT6is6j9kNZhxjRJ2P9N1ON24bOmLLu+A1smerLY2xNzYNiUgIAnpLwhazEfGZJL7DG6LUZ11Va15jkgl6G2Kdzfu+SBFxb1YO1KHjt+LCK9RGzyBOvyH0m9M73TEFNV2jaOE2fJRpQ2hgvWOemRnrqlBFUbfMqwjvGpVhV9h2SilpT14zyYtSpyouIu+4BGywii0Ehy7gXl+YOQfeuSAFDmG+y/ZKWC/dZai6/vnpTutVptwTYI3B8EFQ4WPIZ7yKF+vAYDrO1EcMzShXEKpxynHhPHJipyGx0PUgKxMvRkip7CWXwkaW/g1DYJf3TEVOgIyUscSAftshSgM65P6MHPYY5TWaIZYmTWJluw2uKcv9Qfox6qx2iRLjZLqPOxQNi40AKGO6QlQUivNqi0YOOhGw1FfVe7KQ8NuVBMa93N5hzTtsXole4IuG/JujbEXeVa3CTr9X4konpAVsPwSz/RxRxTYfBxnphsSt7JTXEvCpxa6sD7P3BIU/cxhqJ5j5xFzAtZyNVgzrs2n0WUU4hf+XIYzPWiRNJ3VtdhnwKF+7QEpcenOj89AabseRXz8cAYvnIlc6WiCoYk5Zn+61egEtbFZ++36gahIQx4XL8MvDadeWzcaJLiyrrIY8eo0ddmGgP+w4iMYbkKEyL9ojp7h8UDJCpAllDHUBW5mZ1bC3hR8JfJm5Z1dlDOIVVQ6jAjcVuLqrt5tyP/epThv2yyvytPKywonylG8xe+NLq/8fnO3OyVQJd/J6AUWppRxP3XUp0Zxn5Ry/QiAUYggNz2rjOdbxxYSjRO1Fqljrw3WPNQzJrcN53AZBwrocyZYxUh63D8KFK3iwMidoeyKw4RC69nHSQTfu2lRuHdMNpC7w2ycAPlOQbpDW804gs1nWKLiQivyjDUzQ7wOZHiZI0bhJBjXvpPvHH0YQn5lT6dri6TsvhEldiuKVBp+bsv759u6L1/Q6ba1F46PMfOXj+rUJrWdd81S3uziVvK8laXA8SS0UbRSDYZfEwBYRehjpbMk/7opiAmq5WgXNfvv/Wdf/AYJ+xSvolm5rUzexmkVPuYnFrkg90Jn9Z/xxLh4ONZMZvd6WttU7N1DoWJDWRGxXL3UjsMqc1k4/PnzAzt7x03NFkr5Sd9TA4vsp+LXEDMzsq+WGxBCF+w/PVYkjfjHjzlT1k63QCHAcjK7mniyO1MaO9PUPQ04PgS6PxQucWSO/sl5v7HGNXAVjVMwWIv6D/TyGWDPvGxr55bvJ0af9dzHz/WDcmUHwOJ5B9luXiAX+Nq4K8eXrkmBkQxObW3ALngEfehOy9Wf/DVIewnUGPKcjg92rdWCdiCReNmJhErWhFMNa3tptlrbVfyO/FpDm2BCn0yJrzsyJxz1L+MzDdNqJ2PbZO0Exz+lV7nsQo5VZXIwDRl9t4bnGzVMQgc4rNHB7QYSHTpToJb00iAvLXtoD6MDDmfHU9gq+/2uHfELPtd03T5mMmm2sr0JM2ctTVWSr7FNNf0ivmLgp5WHOjn67fVFOi5M39v+K/Dnm6OY+7X+fEcjsUhx8HCIwc2HfbbFWbO785MPfi29TCq4O667/DnnDk0XFu3fWTWEOVcCiZNOoJ5U7Y/wdxIRFYmsjKutNYE8d5bEJuuNTF8z8Ap0e60HWr4Y5gWd85Eq8ECS12PXyv7qYBCVmDCukY47mTBD43B0Thc5iqhqT/dZAlyfcT9z8J4PirE/T5kSs+UuGIOuXVCRi/WBEZb8vhEYSjYzSUW5U4ijekm78NcOEV7FyZ5G8MCiRiwL12uopXv6dFOVY0fJdXzdBdOwaqsEMCvfgi5IBvbp8WmuHT2V/f0YBjbqo+qoRZTvh5Kqc19CEGzzDtjPopTupxrY2u77di+BkVp3dBqu3IxBkgis0Ko29PvbrLyIsqA774mrvDz51YE478QeTSzOpVPW+U2oAh7BgFvub6SMSxNzUOtv39tLdazQXSRHoHR/szuBFTzL1GKzBEeZCikPllo2lcX4IOUJjTJOH2sUH3/W6PfKEfkZiREPJJtICaQS32wr0YdYwcC6z7+wRCEk3br5V+QRaOEi8qTiF/9oEwokCNR53KCTjHbQipEsMWyEU0Nm7rmFIM36kH3hF6jNiu/1/2mUvBP5iuXIAk/kwURrgoP9VToRQtdH1+0ARlxIEQG1+ykjja5D9rZavEflCqP0BdWpQbvpmHEm9VxiksKccplcr3PTtWHcgFV96EjaXDdFBP4N+rridp8DdDKn1xXgBcdvoRJge+ocPbrXfpG0iuzmtJMshwHEi2yvvt8HPfmBYEt68PxuMpjSFqxSMARwYVKAqeQyduWd4k/sQAZmzk40Oiv9dA4FuOGHv4yOAG4L7CM1uHD1h7X9HbN9uo8BfWU0ZUg5yojWJD8AzpzuCSyv7O5+8RQAk37M74xRsytn6Hb8XuqcN/uZZW6NhnYph6u7EqLVeoo4c3CZ+CO/5hv1PMGqi74+bnIMWPjHxZhfHN8RfNGBVJ5Gp8zhU8JgCOFdXHPYE8uauVVq2ixJBkToSRaLl6prlD79fwQDH0K+FtILFthYfZX97j4unlmT1geBOSNavklz6Cni7hr4YN7+4u6D8M968bjT5aK5u1N+bJnv2ifStnN8uaB8gPPgS7MDawpuKXwPZrFvj3t8gdvV0MvGd1PShwz4QQjIUH7DZP6wJA+T4uTqj8F9eJE+uUMDtSApcZ89ibmsAKE/ygrogPUSINm2AG2H9HeRspQqbGZimSjllhz+eAX40uSffx+57rWHnpeheJM1GadPITM6OJXWB1eS6JOKrb0iunGDWbkbUjPJ9cIvwMH6toXIMgN9bBmvzuUmEfZ5GwMThlk2hvQufOvB/3uMbNITgCumLixNjS9v6DiXVNrhIg0xwrVDNI/fOOA+1FGZFtNm+J7zHaz2oy3Mik+LDWscYfhiSrWt8PXoI0ifdQbuJowFwKQFDYQuDzgqEDxpUOYM/rDrnJ3NiTAzhEMfi2qGjpCthtmhLnx/GtQ47LqJuF0++fx4kbEtm5Vpi/n7xqZP1GVpsIIGBnhjw7IrleN/SY4rpWWOQ35LUAy+O/uC3O3Lp0xNrAgxqLaa1eOwQB1jDCTEobc4/Z8nzEiBWqCdVYBeTisnpSAuZOT2YUY7BEsKvwkdiVgDVbFp+gJYkw8hrxgLcHJeKVWJ99MFL/YuvGZaEFx/Dk/l/YV9/ja+e5lF8IfKdJiUVmocLvc18b//JfJ2GLmrEPTNytkl+Oem3cxac8C0pzyj6ofN5ak62n4i7Q+Sa/birDUK0UwN9EI8Uf8n492n5/LpYQHgVTrIj5Wo3fdO4lCv/Rvqdz2KwgpJwljjEgPb4vqeSefl6ogTfaqBWcQtfD+DumK5LAiLMTa1uM825Gxb3CDlRpDD4g+h2QWG/0pjE+CaNWq8JCSz+cEZ/+YuvXMcbvasvq8qUzEsf320ewdsGl8+HV05BM+ew9Na/KKbgfPlwbDJzTE3t6+8eP2pbxx122wV4X0B+oQj1+YMfZzNEIkBX/pWTm7Z1vOyKqyl095a8QWBOq6oD1iNuC86RPMBU9+WRa0CbgrYPiWc/rvdIc57XwX0DBQNERpls3QfAJppIUhPou0EEvn7AOmWw+oPBXvslgOQnxLm36ujpELDMR/m1fF10RAKt40LOx4U5LXXGjtO/80I1euEMoAZ75LJz+6WMsJefK/O75yLfnSiELSLTrFGCtQ1fxl4Jvt6ZdslkiWMMNBG4yxr/fE8CRtn+HnE0y17sj3qc7zrJ/JYe9FejZ/IFsDqmV7WMzLSiPtRCxwGEpYLqMIinsiSKMJDQNI/FrdCkkcwuHU/6QaLtxQyR0QdIqIpZC33GyE480Y5WFjY0Div5DQeWwbYO/HRcoAlBxfQ1o2U1L5QEaypJRO3ByrTxR2u3tOdseX+8+c39zfM7XISbj/vt3tS2+qwadWq9Wmkg9jIC6/O6TZIHY5/HKObC8gQX46qltajKtFXhg7LwR2RUzPpq+O2i0DLlXE7B1lt07SIVvhUTK3gUVGVICS0b/CUUTNYqNK+n6BEhjzdPN6DlDK+QhaTDq4O6JvNISvfvSnSrou8d9NshcmbCALww2IYbvhpxuyPIPcBKlVd12cZgDQUCyiy56S/pmIYKG3JXcDdCK7cfz9Z0tZtwz0H4te44jvAwrhFAOPJP5iBsrn/7V7xd5hpUvaMzbGXFpo0dMDU+KJpLkFYI72FZa/p6x61m3uD+ov52vApJTPwDue5oWO/Zj1dUPl47VhYt93j+EuMP/Hr+tkMdEARnMFJWRjvqJ1lF9MV93c3vpr5wWWallLxmBLq9g5s/nAAdHZDAJxIgIFRU/MepG1b8P5i+s16ibflijzRsoWq5Wr+RH0Vk1n/toKmRnSPVtcnAZACvFIgGMFZ1pKvQtwmQAn6VPzrI9g8ppSyASFX5NW7I54J3NwpUb7NlezCidoQo9lYBT0b9+HxVwr68nvPaBQyl/JUqnBHF355+h9gGhKuRPCqj1r67cw9/X72jQF4zLm3gjT+Xvg4PlQR6W00waf1G+GHmWb2I204Uf/1smBilxWtSi1JcOYyfMVToKLwuYAU3X86z3FULf7iAOfIXPXsFI+aKrCX+EAN9l0TsF+thZnc1Ldu9ci0NListeTvz9OO3mYS/BpRiKPJctXlRmUxDZpnbyso3z7oSpUBcgetyONzQ7Ccr32StBT9H7PP/YzfXXuU8fyXHeFqL4Trc+5wJ9Bqd0URMserIdOxTpVfZ4wr3sdoMHLYhF6eYD4JAybL7SaSJyh/7tV2TQdI7zYfSp3Xmme026TLK/bSJGQWfudSwmQM3j5eecc5NjK9kLFpELdyjcu4Z+c2W3JsEkLlW9jMyIzPFe9PT2K8MkEzyZytRQyjxtrILnk4rrBhAb+EiQReCtBWtad/PqRFsUXTVgOLiZ5DMF3TrKP2l5+Owrz5/OlWLx23cobKK3jRQXP1YzxKPmyj8+KUDGZJM1skr6Can1ZSXWZQ1lPTl1rD/qu1F2ahNFa0+ZxykJj8bDmwJLP4Ewzo7ymkKUOkV2Qym3vVGw2bFrSGx/lJgKncT9tEC/513T8CXh1X5Sl5JZqb5lctBEwBMHkCq1krCUjZuLOuHvdh3PLRXQlorPPUbrdr8xFBt699FyvNXn1sz2S3fu3zDf/JCIqXReryYVPzOYNPDoCZFiBsFGpox/eyJzw+tuOmL13BuHEyiTsga7OYFpozv+oETF+z7CcH626Uzz+qF6o+ayQaBv69scizf3Vx7S0arFVwy8CsrPZYEbyI7wenJneqS2nc6JizZkJkiu5dGJpiN2RMZIWJGV7Gs9NMqVuCFPFxIzg+s/hVhBYmAEyFuH0gS82O6MkltV9k3Rto+T3t19thkAalD1yqYWk544yEoJG2JxcNVzaVaM2Natwqc3U3zsf/7riZdvnaxy79NzwwwBrUWZR753TeWgug+QG9aX4Qhe4krdiivWeHAddcWBa0Ay0d99kqPRIi0bN+VfeeHomfz/3Z/7XbPD6JVvgceu+0mry5HpKz84wc9xAhR3Ja2LXaqGjh/iWCeYtle8CIg27GIVm2U/HZP2heFn1zar0qPR5UTaHX/4fqlZ5Y3bpOp96drubCpyFwkWFgKpZtpnR+umnhrAy7jFluXp8sHFuq2y4cSJIPwbJq1hcwwImmH5x76j8ncASVVeZva5BAfUNGAG+1RnsMkI8XvH7S+VUzSI1qpFx1NC5nWDtZAZ5E0LbEiVX5wvRo0up+MIgkz+MN6Jr6/hkPoki+iddPMox2VAqu22zs2BWMlcCkg7vBMbl6C3b4b9zhB5IKFOyueHhw5aYzsQ7rSKEcp0wSdw1VP9oCBGKAgwwWhwdAzas8Oft1FfI5nGsdUsrmh/NYwYd+KtDAFn6W2hyeVLlHmRLm4oo/1C7KGew7JeOh+itfTfuDNTuSBwEqMDOCvQU8DUIuNn1UP1kHLcAYHtJlUJx8UfrFK4o+K6oToQVdVb3VOqXoxlcVcRTdsiI9Wc10APTRjMA1m/AcWl4rjVgp48KCgze6dElzpPW755S8fNjay3urJZ3aWrP7YG80LAn90/myqLnGfQJ92cZevjxBF28K10x0of99fp+Hw0Z61EqJmzd6++OhSOu31wm2dz9OTiY4xlVB1c6+YT1UzVwzoXxGAmFJ3Pj6aQjhUcfE7TvtZa6zu4b/qgjhcp+4gDWBI6oBeaGz5465E6/xVPsVa2+J90j+VnyANw2LtLdHxBCQ5m7hI8KJtPXJrwey/72L51Ey11I+6c39+2AZ880u8KXLjkrqbiKvjNqt2Yfql1Bq31cekyYGEyJIb+DyzO2APOp3BHfKtXeoliHJMI0fNZzXpmhsJN7lXqaHTHtcutyv01Co4dDjzedEDodSNlUJPPx3fOH7NEeKTNR8c1MeFfXOdTiJ1yYuPEWyuUvdPrbX2+kLynKSn6KnfghGrnSsO9F2y9GPXaIrScHDJjpAVL1ViBWDWfohorbDc4OwfjbCcGSa0EgZ5QwZO7ru9Q+/HZIdnR5h5wlCf8cwHY9HkSCVTerYTn4d2TlkNLSwGV0PRs6QwOltsEuBz8p+EZTlzP+ef0Nle8b3YcAqrmhZKbuiHZ1AQgtq4MZ1KYdCG7sPySJAwDS1ruRItdFRKwcUUnXzTqWwZZ7GlQibfnbSIRa21JpRztR185JcOfQuyjBJbLFLT/y/eM17Eev5CMt2H/rMmB5SN4/6+4rDMobTqX0B6vyYp49gKBQaFZusfhCPbpQHWHJ8rBC74skMMDPs2bHFl5xFIpR9Zt3EOvin3U3hG71HsDIOAE7xjkOO+TdxeXorJQaOIAYx2C7ZZ/UWWy7hGsqHVsCPwkZ0oVHCLMzUPSWz2AXo/jPhbUphEPUfLDnCZNUL+InlOEvp1NQ/XkjiQHZvTJegrGGd1/SQOgGGfoffNCMv7gEBLwN9AzNOcl2JBLb5EAk/Pb8R3/wv2++GrL6hGrbKzhufvzvJhHUsfjYqyISM0YzyAVbAxvx5RuFmHSJxNSjLA5eMuVRvD+wbD1lsGP9TFVl/r5avkFzxFm5F0h6Iyo4Lz6OH9YH1Y4MFzsOf725gPN+U1czfLIyQlBmOXdP+APjpdXQuO7c7+ZSrB7+/rMHXegxCP45+JPj8lIeG8a2+k91Cb6ZSxqIa27gH4c7j9SykI/EkYfSoRCkN08JiOwhHh2USLR8hgOxTJXbOHbCJzMd/c/m6gI/t2NeCgBuBVw8l+UKKdCf3U8fOKL5TjfOqVq2MHi4bh0LYnyCdSkx4XtRTKgJY0SfbNG8bG1IQlMYpqHmw/vlGu+V9jc1ULFOg9MRRmFSGgejXhBMUEfg/qU7m+oSbgJLy+doXVc7DKhNK3baN4BmqfqiGUfHY1+5T6DfsnxAiTBjlNFutlRTKqK21nAij+/XpqhYPqiKYUV+z3m8sqFEg8y6qzjk2RvFv8HTGp5xNK6ZbvXSx//KiuVokZORBhmRC6q7fdcF4VUZ6u/2quJILIMLn5mE/JGSQcss50UB4wtNCctkCrhB+D4SHCvkF3FAbRNazaiWgGgzEdJg9bpvWtMa1pmMqTqfa7s1ixRo6VykD6jgI6BK8vWWLNhF3QQya5+ggaExLKT9oxSxYjISjj44Z2SqhriGa2UCyk7H63QyFulPVQxVAkR2W1MaCC4/JIgAxgncYtLSUtxbMCRiRugXTGPpaRUwXPdwDpJJrK5kSnADkGjEZ78O0OVHE/cbRAwm7bRVjR8yWqmCOvQZw9iKdlXV1dndY766RJuGA3CUTYrmLhA7zOaQUsHSupF79LIFsrhvooHKYYgHc8QKoYivpqkK8X331j5qthzgD7+lYZGnJRVrLPIXnLdOuA2vhcD3NnYfPbqvMz9hgsRho5/rkqeCPXwpe9TBpvLQpn8K7DE8kOei/PrWUrqLNrZYf5JrDurrOpsvJXOJHRbZdDUuLYRdaRNCudi+h33p+lZN2UEr0uRlwSCvZNogva7+UbDU4n5KOBHXsUNQJZXT9gj87/7fRBCAdc2q+E4HyAM8TTjHw9q3vE3Cu00beuAtjcJQ3K20hB1+b/n0BQpaglDRLPX3A95H8WacxO4PBGK3TnCYuzW9RLHXJi1ccyIqpTsosF2ae9Bq7g4xF55tGUAHvsUGibq11UovIiBmJEHEGcIq0VnKygU5K/cJ8MEqtbzlpXI2KfAwdJvTuOMxvn6dvyEpryhWXpWDiP6dvK1FXJAGnlXMavSiy1TXABUqavhdpLVd0GSXtA8yhJvSFZuLWM7sjFFpCRI/BJi6deW7aHZl0NbLHXVbI3cU7SPsz5WtnPTWXPw7l0itGMbM0QrQCvidLSWSd1+ZGJtJNVGBj+6zc/WsJR+8s94VhAkFbtR021AQyL1mbSTDurLp0DKy3Gezg6CwtkPTkxMo7RBPj25Dw7oiGW4xAF9x3cpVeRMnMU3eslmqMDAMA9SdHqaRNMY0+XfudittdPynbPK85IegqR+ifxQ9gmj6CtuwR0oSWadXt0+Wb34kHyEQfgj4PHxcyu3PPPcyPztl5pr23V4C/OHVvDvPkMM3/z9Kqvc8bm/7+Kjsg7xr6PfHnxY7aVW9PtGSIVpMOrZwGtF8QyZpHQvVcnu9atHU29MJw1ejduj4/gyp4yT7e+qmSmbHv238EtGUyBuM2au9UQg3C7BlBhX2aufNV/m5p5ItiNUpnoxX5e7awvAoTsEFRdb1q+qVcNAuF1tii9D77hHaX9hXFntB3leVMka360mi6TDVfSEQxiANONCz7EGzfcj7GeGYxxISwzeRSDQ/+Ddu331n32ToUPFxtJfW4DDkLP4Xj9U9DZDGJHS0imS/+dzl6AhQSsVubjVege5feQQzOwYBUdtpDRhuiCJhchfNLUzS1bXLRuJVQ6p5XFjjX2oieAyqpnHn1M9DVxxfzztb2axTwdc14Clc1jk1NC53/vInNDPfszMXJcKMISVFFoD0xkdpQX5hL0/sL/sTwhjWBebX0D0z1j4OUhCgX1cnLFUyCL5/MtYBLF8+cLNS/aEjmZkNKHwu8yCEbGnnqQIrYJF23HHNJIyXriFoKLssv8K0DIjcrxxr08FbRZKcUfpdUUTX+Elv7Z0l/0qGc7+5nqPRm+Xqr8DgUnDUYGnYpNF7HlFJgqsrN4kg9WhNiAy8l+3RM0a3tiDPPHmyDhzHiz/xuUni+9Hu8AgjuEjv1+B1DFmPegTDpXKZr/Qceen1SdGJ9D4niAxhwetEvkizLGTEg/8AUYgOFFhe2pW1XNHYjFH4wYoyRq+v/RNBovk5ZTM7hup4/4WScLGOiWSr+1DqQuP1zmGIlNAbz840S6JhxWfZHSg91oY+rcwrUspoCTdSGTe2L3B2sMvV3ywl0BO/b00G3q6Z8zKMDOoZZ4FjgJiv8V7VyZ40mEkry655dTJCzAWgf+oLqe3PLwt3+2C3acTkfh5nAcVobRso71ZN8pLDCfNcHeJtJ0w2RdIdjcUf4ItUIeOjQQyAMf1aL/PYtwyot4nrvqVK2K5ArOHQMSoEqddMm/RokRRRg87Wzpa/hq1FPk/rtGoEp5dn8UQnqFunnnr9IC42dMNBZPpLvKNn+V0Ndl+xkhrFN6ZZOZkhmOufOefy51RgDnwph9Ihsy+SrI1f8DJBy1tt3g222K1xHM1phBD7JMOqW0tPpxLU0iVGRs/SMu756FrE3ey0mE3Gn4VeSJglQCdG8eMYODQ3SiJrDrCRkPFpC5HX6dQU8PImq+DyHeK6N8OtGZbu/ZYO/V0DVLKigcKcbjeNSgYoszD/5eL+Vht3RMIngaIYvnwPVhs1aJjQ2VSA8PaIGbv8MTkEovIxHNCba0n1YnGqouzlup69mKDvCkV8cxXywiXplStczpPVqsObSMyYpWUbnpU808jnShuo03MMx5AiAgdxGOKmimQKpsfGNHmIPpqgmF6hxhRa08SsP/cDt5ayMNGsurQn8V+Jpm4poZRgHyUd0xoNKpnUjtZKBWJe8EA6y8fY169mV5gGF1bGYE8kJSS7SDIgHlndBotx5eSisz7CtrUP3Ih+G03Y3YdB7iZow+lOzh9dmuQEkwMi7j352rQfgZl/dCVblwtOK+bvqqoD1Z5mlqlmf/RyR5qO3y9ouJmyIil1BMklbBHnBkvhQ92c5bqhieBsCvymgZ4PpxH4TTHACB6zbjX7AYyNf23JwWnx/HMfbJFbSVEvMkvM0Q33hhwCeHMFlONRrURY2KWP3COd6OMOmywwTD67cFYxqIdusxIL75Mn8MLWw/Lry4qItARVE8vE5nljk/gIjqvyb7WLOAnvciZ6+6p99GBKZzDEUZMn+YFrbeSKWzr94xKc3VK1e2RubgkqF10r9hfCMVqrJyREhxjMqTuxvJI3E4H5gt5/GFy0wP3v3zvH0rOwpWeL3AhDVUu05WOynKtHmFPg62rKELz2rpiju83uDVe6NAUGtK678ubH7M+vd74/w6Wvc7GjGaG9dLqAIqbNyWldzklQAlMdktkgXoJJCHmxxjgWxkbnecaAH8jMDTfae0RvjXlq+YD023kd7vmLzJRYLjOBejqhUwBhBJV/N04TmY3KpmTjqkbIbiL2LoG0gMwRc6+xllmnw6lNBauVwnKjoWR4GwSJkfbD/yN3ffnOHwCCVT6Uy2fVemRt/4VGDaDfxMNwFAKoz3aYxmWH7mvJdNEoMeeQdG2aF1dVCAt45rGEKcTlgN4HBQZ9IQJBgk3zhQ6fNFc1DhGTKq9v54gfgCMLPVz36MaxiaU4B6yUkV1oKkbGkcj3NhU04A/Gec/rfKzR9wON602idcfQu6Li6f+3xbt7w5mhvXw6e2r6sEqHMSSHtVosH88vqsxNsF2ZE84lQ0B+bVcCGclA3bOJJKeFs93FjXhHJ2S49h/46OzNSBo8dUjo7s9rdPaG73Ix8BZ82R9tTxF8ujI7RdB+DLoYWmVN8n9ffRj8MYf9Q46RNNe8iMH60Kg5zl8H0MnEzM+28PlUMmhy/77JE5nXOfPklXkE46WQeoB/SfY85SjFkaRNGNk9P9zq8cWPU1THvYiNTXEG57Lym1xrjaWJaeNshcrTUw5LFSlyHYLW7/zGf76IGI+5dQGNc+BD58YiuVFXX2i9UYWI+eKY4GMN82m/L9GkFLasR/vUuQzsufHIGfkfXBYc1AsYKc1iVG8ZdMyqRHgsBWHQYPY2k2tHVV1UZE0AZG5XPnlC20sY098yVN7jV1h35WT0qfPlwMZ1TfKSX2LqFtdQ4WG7AqiDy49ozLKgeLCZ/Xuxe1Yq8b53r0zynjrtubNNzV90kOKWYqgDu0mwVFY8gCjojtLsR0V053zOctj6gMvRzx4nz9u6pcEYdfJd/YIyV4ID+WcAqCA7maNtxJ47C7wuFU4QhOpa4htfMGDnwHyuNpysAM7qzTPjjWwiXhMQtDS9r28TNfLK3bFPlY7EvQFpRmhLo+mjxkNNp7kgVNntLoI5SGulnLUCFjDe3fWOoEiSXhE7IVY/XFJUII7X/eaEyp+VA9jDTwSJ/6QznPJPfxJCmPpN7eow3ijQ5OjMxpUX/O/MypcaLP26nT0TD1uuEghpXH5YAaF00XXoAKHdGt4+MgVUhf9BEtlDJr5ekDKBVZrSgLZFObpnNc0M3P4ctlqnAFT/Al3+ebM0NQ6M5B93yVdU7RNGf+dvtCMizvwmhcrNCPJZtvRW5MnrIQlHN/JVlxEw2madtxXFnxHfHX/XXIVndBT7F7P7EUvOB+k4+P/LgVhGjaRFECmoiKbbZeLG94m3IxPGn2KOWbsSY5t8o1KJZs9fDRtjK8o2lbhJp1kIxILUDxdUEcINzr7REuxxot/DqigilZ4XX5vVjS+cUXHje3+xOC6jAHgD+OGiLaQfPD7h8/CZCfv0IJjPUnYrqG90CDJm3CufVEMONhx0wmS6kndPd/nJBmSZuzPk/5BYTU3bpAeSMdelRdYJmI9I1HpEleMl/sicPA32xm7322ccLCczSz9GEVoSeSfUIJ3EzyXep8BldmNiZPvSCFW8kiYsPkC24Hqpe8P90xfJTxW7vJSZxb+6gEItBnfhDabuwVez9yBMsAo1zvs/9Vv2xVFOzJngPD5XgBPbIXUYmrhL7vd57/8aR1qf9Nhoo9ki6gQh6GudQvQ141jm8yXiOcrzoMyHsVfcGl7S1C7heNmDDRB86gG7YrlTBDFz4PNEusEmUmgi1Ql/cBTpipeE06teJRlgR5/V6J/YWjyft1kdZAli+T6uoCsLmwFFcxk+8Ztbswwe/Rl4vgflTm8323rY7+tswVAaw/0dHCGoRglJPapb2QDyWdLxZd/a85jxQeDTE0FaG6fF9VdnnQRwyZ+YdAojh/+6XYfdmt4vSQ8Z65SHYBWfUqyaapBhZTvUo37wXepIMCyq1B45siJ491IDteLhO5JjtVxEFyw7GkfTdfcr3e8zxWlTJfJPqzjvQ3B2eBI3Po18J1rJd1dJ7ch0CVtHyxd3HRKKIuj9WyT/+5j01aBhhjJhjGPh205E2l5Ob5dCQRsoNaYmq6z0YMOf3pD1T4ltu96gUx3if5aDhx3/0wNNOACOBTjgTs85NWgWl5UpeX33nKwG9lemjx015FmsWC7z7OtP571gjvQOxRLOrhLKL8WRBXCcmvrJ0c33+VyKHXraGlbOUeOKjzueXlWcne6P1uHZA5F1//pcTOe8jvTZfYuXvQdsQjdXTc8JOXbNq1G+lh4hAhyGBUjIeTsP87nrrp80Wvl9LEM3xoyCaLnomQfv2tZy0LvmFpSE0Ig4dIOQ1trM7BR+Z4x1vFkQuTND30sp9kbS2+YvWB9EHVkwcfqud2jnePaWpe5Q3WRtl2g0B6J8OiQt7Ts2/QtuC/wtBtZ5Xttq3Q52pjaN6Q+DVGUAHzAud+AAJs9D5Z99W1k0Mns6kN/CUyX/f29M/d19wM7Eh37HQXwuo4KMFC09kfeseuaISFGrvcBQlNlOMIsm+U38nFiQJaTObElZXzyd3qcTJ7I5fD+/yBDlNatgF1uBS5buJ9en9FAE6ps3QzwU49W+MaoH9jAVLohZ7zURWdGRz3s3eMUZvBaixDRzBrWM+yTDRU0ScHFp/w+vmfnnmLC3+3TyhbKIqznwGUPUojWaDL1IBeTiltvMqcXoBwJlTZAKZhHSgxxB6p6WwS68x7XKlXrGDgv0/06oeqL3mrUtewraCSGjv9cu1iaAdbGvNherfpfz4n+F9x3nrePkUKaiGSIaacyJ+P/Yu6abciWRO4wmQyQG2Eb7i181QlXMtE6XZTouee3hXneY1Qy1tbVZ5mxmRqF4eC9i44e87m/Yll0k14VX9Y3VT/ibz+wDraM1bPWU1p3/yL++sOE4DFPJ7wZqJhei0ZLr3if6r6zFOo2hJN92LNIlzLbszaU7Dt/mNGKLi4JtCJM5xrWn7xsZqC19OJeP1LQU278UYIzR+MGWDmno1qTKFWrbM5PZsotagHAhbOrb8h0jFzdBrxZLEgZ1mnTMxdkUD/lhK/tpTw9/27/fBCdan5c5BzI583UVMRgQ80CUja5ilRR6BWEQEHvGA0PHaKiDDL4QihSirU5ffpSnWbiGUz3Lsa04jPLp1KUBuu5HhsLMBVEf/qQvHiSveMDn4fCHPXncSilnG6sWnQRlZZJzed89Mxge83gJpKsEv3U0+MBu09sd9iz17U/dn7yIJDkCVbITXbBvF09HXf/dzOoVCxBpujSLLL7Qo3Cgj4YhCFMzJw1eyFOIL+C1b24R8zVT0zU6Q0oHC130HHJGerMbq26RIc9+gzg74LIJq36w2jnH+cibg4MLHB9zbEeR4JEeuvs098YIbzVZFP3IK9qJBbK9naVQWMmutbxH+Ax/OSlH3YBtcmsyHXKB9enu5HjsTh+zycmved7EkltI+FDYSCm6LyGKABvT8Tg7FBsxwMf+NOgXlr/BDjYXd/9QiaMYGEAOQqr/asJvxU1yqvs39wVl6aPW8l596g4vcczMrUAPESuQyqUCl+I14KjlRQX/9Ab/SUlUWexZD4sKMWWJemiEsxKpGJARJGy8+4A5EbJdwgjCoUK/And2spcRgGp65+Qrw6I+0RoL/c4k/B9yDErmjZq0N7DKpKsFfWyL0XO3mjyfWC9j60rXctM32/CBdbWuZwQfPZb72zNYbqPCAmeYnTnCd9avWgXYm8tsvNA371YERdEc2lKpos5diYN222WzKgpBNT8gzjIO55d3s7jiHalT/0LgziK0KEIgDPfzZPTeJFUgd6D2MpjmZfhChE7DFwQNtNMJkD73KBGuToHBRQrGr6cVhCwIAUlAFcX38szTttZfNgLVsqx+5rgk99bMLBH/GM6ndCYPDRXi3GVoFmvZraq1wiOOGhreTyNYHQizEdjJIWlboHK4B8aIqLikSsuREAKTxIPiL1fneQ934cLRzoCU1NtL4KVJzbQ4+67AKvgsA/t6r4SUjYwrHijX8CMMvCCCpF2u7eYMDUwEKSxNEDGInHtqt0snfVfy6/3kEDCKyvUGN82z06wwP17a3PS+KuUssTII9OFut8//ODaO2x9eV2DQ03Z2YNXJbdYjk4M1O4VEYYKr9JPm4rOEF9daxQ6ed4jMF0kLNyka7uKR8p9f5U3pYymKMWKFlh+Kv3oClF6vO/fx3BaN4bzAIRfejcEolXxo7Xa+Yr+uz8X3MD4FSfgCHJ3NFd8c3OafV2SrECzCNYiPnyzxJ9ztlb3HTavUcCLqkQhGusMt74f7BCwBnfBKxjTMOgt/28CPSD3grUoLQQuXQ9hOXopJXrhsc0WP1hDww5/1fpzce+9Bevi22ff2f4ZyYFW4xb5bx+hFTIxMm7MCfpiTyR538qpgHwS7VstI8mcgJj515cTHuGm6so+t+gIN7Rt4AuSeSoB8zRs93leV9y01pIpz4C8guZ5VhRLxVRTSl8p9rjnzZYk1do+haY8yAtHTx07k0Mb43qLj8lnm4/4TUzjHuK1B/2r0HZ6KSPhaSUc5t8zspHiZExueCpVZwjUU1sb1/7zTVh0LYf1HCQVkGYHa4tHyyoNMPEjkrujlkvzs1lSEux12iZ67YmFiminOx1bUp/X945A1OFs+SApyJzioDrWEESsEewnz8T0n0S4ysd4lARJSUCdHnWBbjenU2iGug7tl3vWTjxzCPZ6KQC0VLrXmelL6sfJttbJlIsr86jlURUnusbaQidSdeGpO0ed6do/yO/pxibx06OOnHmFeSEBny4adnEe/FxFf4yqaiRDuOy93MEyfFY0xrXW+xeXOmvzqbfwmPjMeCp5Dq2XKCiZmiphzUitQiaBro34c5keoIZybKy9doUSsAxh5s7cjCRMqCk1IYlr6eAsAi4V/vsh0qow0/YEGOd5pYQDpWYwQ/DgiH3Jj0AghkJd8OVG1E8qkICTTXJVq9x26AkaxcARy1rnGveg9g9FuL8PsSGTPAnJkylsJe5SCJeBPDyukyLjow/pfLrlLrISRJPseVa8P5jSgVZOnSSjR5JRi7y6rCoxLdAqxRkOXN7C/t9q6p6YIWwdr6K7ClRQmopw5UvVz+K6//Y699PH+Hto/BtdozFFMjaLlppIPMEn457Y6lQmDMnsc79aXzMgU35uW3Dq16ttbNQizAx9W9JrI+XJu9dl9tnlD+/hacYifY95Hkldw4A/wCPp6H26F2DJY3NIWMDPmIYOZDI3sb87CbUUR6JzS5Aef87OtCVom7MPFMnKTGqEIMf2CeK03rHjshVJtEFoO1B0i+mgQ1PkhL+6B9ktG7xG63bwCI9lw7pv4OF2pgQkjtXy56ccfe3hHrdQEbZWl876Xu+9/szs24VEWX3Nz+L0iJyfh8Z+/pvlxLGVkCIuoUUXYAtRmHcle603wdQla+NWiiNONxf+z01d7pPD5O5kmhrcXyS+2et+2lh/ht+B47b06R/jJQ/T5MLIt7NtpAsUKJGDMZHDWqn3QntsAzJ6PFGHeEcUMM833m39QrCoMKKnSmhn3M6kBKnKtZlqRNUUDfHNYKOLYhYcBT8rZnWgoEypyD5/UkpGYM89W93aJ3QBtidWmkuN++e6gNHRHiz2ohEgrIjDxB469wIMwOkmrXnHry0MqrjaecxfSryhpQMf9KIWhSIxhCPsdeGPvracWsPhPE/t5wtCwl4rLuWmBuCxPhR0PvXtmhMVpYaLbkrTGIvcpn5RZYPoRaCSBlaLsHoOh4RKKY4YoCdWzgFD7pzzgAU18gXkguSv2rH36CSl81qZCI5Xfa2LbMjllwW5pVwnPO3s1/yOYEOZZyObjmpR/hBV609uzaQR8zKyZQnqhwcq2CEQPZD76q0DpniKIpZzRLWeQvTBF+L3qGbuuBXjP9tT6MwyiQioCJ37a0r8Ver0uw+eh5crq4RN/DtPzU5WZ/2XuxzoXeguxt/y/Y5zVJ1NlDyvxqpZIBVO6xsBrBkpO1yS/wqjEKSQ10TxmQsPxWylLbM7qIy11JKqC9LySF6p4/QY9RimfZZkURRNZVH2GznwahXlmqa0MzGwW9p6+n7wXSjjveyJT2lkBgVl9SErupThVsfuT7LMx8IJ0MES0b7WaQmfeH216X2BrXhLvzBYq5aIHNWDbSTX+x7BMmKy4lgBArxhr840ndgxoGAqMIo25mdvxbPfiVnW2iSy1Wah7lpo1+Vr+FtztJky1vBFzmsvVgaPOGqGYPOuHkDuXj73dH4y11tYrZJT+6R3o7iFI/3LS4Ct/k15/uL7YzR4dGy4QHf+3A82hpid5UBIBTgaNBG4cbvslgtTk/CBt9Q89RrUkbf+rAxz6XoFmy3AU4VWhTN4i5p3meZMxi3T8+TzeBfLGoAl2l+D0MzKahLPTOc/xjpTpk4//7xwxsbTLeoHF9ob0vM0/sDjQjcf047n5spP9ugzpnkak6BPs3KbJPXvkYuvYUZeXX/tXkTui/Hth+yz5wPp3JaYb7TtBpZg1PLXUlNMduh7oklRS3GikakHB1G7eKWDJe4e/8pXWD9g5LudJsXLjSEccPpwq4umbDl4Q4Yw3R1U+FTLqadRkPt8R8zsd84EA/IRXH3AmX2xpvxgW9uV5pg/pf9pD+UzoY3FULwFlMSLM1dirV2vOHDtn1Y0i/d8kArftFqe5r/6wV9DuB+vLfZTWPAlJPiptRVyH3zkKHopfrpgCjZxL9bDBTQ6LvzhpyC4wCflrjwbsEkWwQoTQyAeL0acfGafDyQ0ATRzG1jYm/y7rS0HoE6Pe89UITGu0jJI3qSwP9kDJUTOvSFb5n8TYZQ3Jpl/3sACsCPx/dkt8p8tICdGATXsMr+Ne+e6amYVhgK2t1uo5br0VZSM93Wd2aJYvoRRtC2lBLMF+i2/vQA/MaXE1WfYDcP8eDs0hfp+whw4NqspHCRDbfmJrRNxkAtoxB974Gi6dFbtfK+qAZ4M7IKoOT5mJbt6S29L5507IeI96C6rycuWK5Eg8ozkPXNBkTpLjcOhk5XNldwcZpuuMZyobW9LuH+C+4G/IKlPwB/bTdWaXVXxpbPJb1XXe/UwbRCr4AUop0sT2Vc60EdKCjOST+Jy8nCxxosxMECLuw/fa16eByGLi0pm1c13Hpq7kr+S0OJT/dHbcfGUA75y4hAygBYw3xH4pgsT3lqyBBwn7oTflNYYJnuTp4qBt2s3WR585OERIu4T3/RKlQEAWA2996kP85fMCer6DVL6IFy4FP4fxP5hj+KSUgkmZk523eJRIU/FgY2ET+Kn813VtnqEKit/nDv8QzPNs/EfLIghnl5ZcoREYfr7BAibrGaMzV60rYxtm8E48LgnFcJW3reKgNLvVsrGdQhkaPh5GPC5R+kTctIaGssdLYALqGup1lc6DFNIMUdNu9a+babbC2BVXWh73a1lP147LWe8qPXccjY2lElZj35/g17bkwvOodsGLv0zanKTUAxDO6n7frhJ5eomM7emGb3P/+5jdGnNm48favIsjaD3ESIgKluNDMYAyWkMxjva+Y/ogxCexdFbHHpoGvJPXbSskYVev+FP8G3EGWKaDPr6emNeNc883VCYOzNWMKmknuPpYG6M45kZJQdF0YZSKXSuJ64PjVVrfCw5O7r/ZBGnh7FXs8AK2+tvGAD3HFMZm1tYJN8QfQG+fL1wRhWrDkiC7PIC/Wk4HtVWqlfAuDdkoNY1kB9siDGmW6Mr19e7U2E7lahgsHN62L45iyJ3rC278VOtlilIXSY66N8ZA1SubtTwaFibFhqGKK9nHxcq5ufmzqPpt8u68aXcet48TwxZonkVAlUYO80qiCAl0nS4XLl6+EfgcisBUy5a8Uaz0tViZWpVW0V5agu1IihqxdrtRH95uxNidmg3wG2jq+ZiKLLTXd5Bi48ekKInZvvDbpAWUn6wPvQoUTMwuurfijqgjReoO8zZLVFYmKtDHclytQ6sAtc0ImzxUNV/eIK7w9TcgwxUKiMlvsEps4839UXaFOUeSimffLB0TFLkqaYf8mw4rvijQeptFOAY32sTzBiqZ/fbD/IF0SP66RnMv2Lqx+6/Xn5n6+FcXoaS0gGMhIXuQBgsbrwGKxKduDiJPJIuUTIYn0zJ00vlBV5qekYoZ9PImceORgQkBe0eJp2+EbYhrbfO5wxFTajpMxJ8cCntKK6fjrk7ExDNpQDYDGmpAvf+2tcRlHqIxAYpAENHb1M7kCsMnYW3qWzF5OSsmcSnpXesydGh6W4VvCT+FIiVUW/5f9A1qBap/55MERMPcR6L17znxp+xp8+ZBrrHNMbtSrXxG/CxGI2iey+a0GMoD0jdixhhXiJyfERZJPA6sxvD8xop5SdB4/SqDZFc6kG90aO1M3dPfmO1Si5/Mm8eBWo2xZJyvUVJCw53a3cLRk1iCBcb9OGEkm1HCuQRdgo2JQkVeBUeq7OgdPkK7Czdpk11avQdhZv+6fUxdvhbFnqYMldkiWz4VYT0wuP3TMTyynK3TOI2744Kz3Ta5pZITGOaRGfEQYCRZiz/DIumDpk6HEDt8xseVs02CbwVNNph11OMumnt60kGFKppUfgdduu6i9vGXNHdrWWcO9g69g4/bVWVMxLGHCPsvLOlOjDIcehKj5no+hGZwp7tsNhI6/NpRUtPjQBYVI9J8KaDliNPsg4vnU91kdl8WsGmG9514YBx1sS2RIfi1LzNbrsN4OhPmYRkN4oKBh2b0N/cRylyeLEqFptmMYvMTQG824AoTnJD0XNiyLBhRHIEA6cYBm7a0aqwXyIrFesR+2n1VGLeyV9s+gn4QxvhqT5Yg/d1JBhG4fuW2hEjJgZwKCJghm+MLVFyqFKCqi+sS+PdzR0IPeYodDhlrQL3E532tAO9r1r6BVq7tSnvdpCQAQynrt3FC9jG/Gr5hN4+yXgCPxRh+FAoqu+llHpBdwKNqP9Q/bwCiUIvb3qlLTBJiJP8SDhKSM2H5vgDfdLHjXBG6siWw3Izw2a5Mss6+zcitFHIFX5rNiLVXIyZ3aJVpMmId9djyfkPE1Ap8XzcSuSS32jkPVq559K4N2n2XPArXm8EnGDDmZn9z1zXVo4nVWRjZdRxksZVp+evJsjbk/tvPSruKnC7284MhUImY9VLo9hfb3OVfrKG7jLo57Oz209DpQrQSfnbHnnHfn+qYDet/xVjmWSXSR2zt5jb1CzclGOjk9uasmTZKa+OTE9XDnyhdDDbDn2n37nN8ubbTshXdTRwU3MIAG17G6J9SvGCDMaJfCE6eE7IzRNLujRdaTxQaYrXJoesH+LgIfnWZD465UV7egQ9oapPSCBKyi6Cx1xvjP49KQvaIdH/WRsWTSzJfbl5rhqh/dQ5Lwd5ZJTc1JemBpVUYqiueT1JBeQnS32uxyl2DJgeI0bxV5g4SyNo2qwD53Do3hPYLc9+qaovvzyQGuVlp7sZNkhTZBphGPQ5IRVIIrcG/xM05M+12rYwrAgaa/lYx4HiM27QfDq2IPTwRcNqdK51Kep9rrf7kyacY8KeH7fh3VtaD32Azuwbj7FmIe1g2vhXwmY0HM2ccupL56f9nEx/rRak049RR96TURNo/zLPl5hdgMyDv9ksGtQwGvFSXhb7JCCCVge3x+CVgfG6HCc6lps61FjxkR6e0oEkEG917uie1CJSC07rA6aFZLUWfMkGYh+N50Jh/Rhz6+ii3ej54JPUCgRj0NV4P1KGb4XCH0YqS8UfdPqaGwJFNau2HM68OSg+o2LgSTjUXRh2LZXfVDGp2Nf8hqNyWesfpV+Wk/L6k5hFZrRlH2qpNsT4Q+nOKzHSDZeApLW6Qggf2jCbc16IDrXqJs2pI0ivYAiA63UpqTo20RZVjHbZXkzqs+Dxj8jQx6wp8uWm2Ba18E9uJnY5Yc1qIlfZpIW4y6rqTaQpNoDTnhwu59wT0wklY/q6pMInltz4OIaW3ERoExOkI1J3zP3pmlWd0rK11fB/FLXCkce2Rwayq9CJ2WpKpRV1pf+FFyhE/t4CzAnn2SENfJrTI8e1dyrSydI4VPLn+6bMO0+72+uPqeazn9jDjJtNCA6nBqfkVMfRV8bSrOEnGkP7FYvACyLbCpkDROzpc4IYzHUF0pup91BN7wC1DRAnDcYT32pfwf4yiAGtBrg2K0wdMvgmX+3tlZg522fbIhAO0Vu/7Aazfj5IJm05aZcxygrFG7WLlQpaGt1MJoSFZBbXUDRHakotAOhZE8gCnXuO88UsuXx/S6/YIodcYQs+0ngWN4OJrA5EWEXDg8EALFJ/zDlizbOonUWL7jEVnyxEPu1Z22nz9iV5XTdL37LcM8LzPqRwrZKUq/vXPIhqWmi4OBMQ1MdnbYfGmWYJDYRAQS8kzZsHE6KYXQVEuvnC/rRmAQU7ewOxprjQOkm9sCwPfmudmuElYKuMzurG128IBYqHu4vAN6dU0l7A2R3QcZ0bNVad0CNHOfVRg30qfgd2RcfSXv9z2KV7kWTDit4hmGq0wq4JOtfpmvOsbkOkS/rSgd2U/a21MmR3YggCFdMwkkwIfi4J1Jhft6KTBwEvRmIvrj516KFVbKRXrhroTTkNzuCYgItGSebQG7bebZMIxGy3vEvN/eDqDsh8qb3/OvCEfYtzjalHV2aBTLfGFJn4PQdgdupUHAePlMA7aAM2iA37jsK6TTNEPEN9NJSe99QHtkSm3Tj4VtavOI4+B/NFzgE560L2+Ti4wlpFNDfz3V2zdmlb32+WwUusITIxXCXy+UhqUZAz1Bzqs5x0j3D1J/IxN4KiBi7EdlBVpuPmwpX+0V2X/vdCc+q42Jj+DT1DWaL7zibzfyPEt0PSfCT5btpG5jPDaayRaNliMUgCUpplWJXsbN0MUEIM35YXkkFxGUxlk95EVtqDHrv09/vwzhW1K9WzhdzYF7O8/EuEVAW+5VqY+qBaiJgrZ/Asss7hRjEca3GDWj09YtL/d1CE0bVNmZdJirpV9svZgf0b+ls80vZoVp4z0gXhguA3Poz3066RNpP8saqmK4+C17B7LwmGk8Yx71u9YrRJUui2fjKJcJcTeggt5pgFNcXJruQPSQ0+YrBGJs7bt3LJpW8AGS4vGtUyH7YTj4MS5gcmrKGAyBshdzB9/RyMvnqQlSD8bvOEKcS1G9TbhmnOB3rE29khRAejPdrJMP+sZxQiElm5GkLIHv6gsmz+Vu288ptZNDZ4TUB/sk1BUywg+8zv6rQShV78fqOQ+B5zH9FV3Z6dXHb0tnhC26c0u45xTswYUOHjPOQWO8PWet4E/CPRgq+0Zzjn6HjM64NH/Ed/85JK8k4+D8qYlxRnrpMbiINn8y7PVunwVl4pmce4LSd5I5s5Lr4vH2nhaK359BYK6Nlcv7DleI7vc7KaUBhj3KtbtHeGVjOiutpsRx349GxBjyZXIci19iAsxbGPFSolRS+lkMtWfZWHjRvHZYQwkj2AgU09NR+t9J/dsb4C2V+f+8drYKtHhDjRz4FEUS4dcdb8NeXYq9VZc5UQMWPdBd0BHC6LDocL4u3G/pud91AYPbANC5YP41IBL/vD3DIIcyHlhnXADOd63RKOyfXrK4qGeZsF83/rfWBlkm/rqcLQLkeWFYStrEGUtOnTZlb5JFt5NcOMlyrH9XH+fkmF+yA3nqjcmCsykJuwW5dSBPPj9Hps0mwwliS9NNM6katnMqc9o2N499u7oLLF4+VnUouXqMGNQ4+8hx4DetcMryBkLkM5JRP23X3fy+zcb43+1Fu+VdO8KzVX0MWDh65zmgXjO/zedNgLPea4zmRmE2ufUuQWdfPICB6x4zFYb5lp8Ldp/ef6ViaFRkA30PoOv+8vqOsbnUnE9BROl7TZubDGMwR+lKII72Xt4t7DgrxyRzqNBvbCW+9zTldvFAjoIHzFLjpPDcxxyLzucQTa5wkfNhh0C+d4tU5AJkfkQbbGiKygqWTmJvFsUWaWootX1AS6vRmlsWWgDkoV5IX2QoEcC0e+HR2gJJ6G28KIK05j/gjZ/hvGbMlNm7PupZ+GI86kwrhDjSJ9mi0JAuT5MnVSwRH0j7genMMEU0yQshWBAF0hwkb/Hz1lDSeBt/RBPSt1wYKfmwPUJTK62Ic8DzkpWWHjsCGSBNuajSAec5Hel4u/blj3obc6d9NBRXg3oBVmEPRyJUYadYnPNxeMx7DXLjOdZJ4VFubJ6MryusydBe4w3uWD7XkGhMppNZzdZiy7uUNZ4v5J5JfBORva6aR8NsM/XiwR1ngr4fb+EjF9XJV8VRTOlJPxNKOpVQBT4WUuZetCoZCmigUXEnuunzavMO1FwNRDhSjEEbixzlM5YgDm00IfVAVL0fe9KMBhf7oYts0vQDDkXeQg6pqkhXcVxiio7gvU8jBGkdXzxvlkZC+BWu87fpWNuvIPSbsrd040ojSuhTb8rJmKTcwkoduKglIE5aYIsavOvPk8lzyq8hXp8AAi4mIA7lBSwW82xtJbTq1PZTfzEkrqj9oVdRfvrhp5bSq3Ja1aD6tuXz0YgYHJGtUxOE/4KmHPmDS7eb+SMzfC/oF3Q5QpOE9MIc+25pPq2ig6icmM//xxtd6AHRYIEoKXnzl8TYeUOpOO7an5No0+Jx+ikHRjYJ0tF5rKZ8+KwlovVNhoxLeAf0H+EMpRrq9owGwJiTiBDyDRIVRiu7BQO9f7VEVYQbzd9I8XRD5zkYfLReZgfvGLd1j/VMQvOFT5/g3uO0NXdj9OOK6RhhLazsES7+xIdhgTrDJw3Zy/QxgrGDVnXuyQ0T0PJ0/4igVcJCd17LYS5CQy7w/kyDOCbXZPS5qV+wkE1CGvrrohHH2gSm0q+thG08czwCuL8qaHgZ0TQCOeQ4eHxBTaL/BLI1MuXS8iLkcT9+5SZRWNhnV5JIr3f4vwLrDWjW2fhYTGZ2Tc+cx57kkDurBwF2ApfFZfAei1OW742MTSSY06WDlOTasynmrlB8kxfUu/IOXmB8PJw+5bfQI9uyHq/LHwLiKzt1U3s8Th9uEdWYVTZkQUu9FGqOYYi7JnTF5QI++5aznXhBNbFC6cnDP415OMdnnbL1K+2HTyEjF9ECb8fXSLjt7SNG3/wLqDOO9MgkZHmZKrot5om8ij01mqph/PlWSiZHEQDQRIbRdx+Dkr69TidFQGv9Aw7QMH+YOZNkn2hJW/wF7T7m933XHwnFqUiaixlV3n4aeZ3+N8sHCctyPxFXLxsPXM495ICB/9cBXHuxibTO0P3+4fmjknqcHs9yShcF0FQZZQPGBEuJTTRqQaYHvBA+jDSKybPKmzvfTPyEWWz/n1BIxOxYYPv+9IQEVci2xC4z0Dnu/o/plPF/k9s2jghFaEstG47aRWpk7iapYAC8Txo55cAwX61OJNDVlDps1zqHGUtjuiBX/WUB7VhACiD3ADqAg3er9T173ciRECivNG4zJXDKmK76R6ylbsLrEKsPOGHwOmJrQuV1WFN8+wdebi1/rWfoaNUv9lW+SJ4Lz2jUMSEeTH9j7WR1hYjKsI1npwBLJ1j/d/AMp0mce/Ssb7ysILtw2WQHxBo7NW/xTlDtEtM2NVIFlMrT4HzEyCJXNwjFZBD1i8xdskxltWI/l3OXq3tRAMo0SG0LaPGpmW40M6DnKeGZ6AIxfiBtbk3BfvGKaGHqHYYPycFAOMg1qzlOc5boSwNtb3IzaoufYfGAG+AIvbPXnSefdggdn3dZBs4dbFNJ0mcs7D4+ZfOTLg9xaNLTdKwDxnd0+fq4PuYq4la4+N0LXrnDvSw7/QVGFQXpbRrkXeWWFjfASH1OM3FsY8pJKjzyQXj1VV7OUqBvMJ+uxm+l6BHdDa5gtHycYsSFeCJDZ568zJdVsmdlOotsD0EpUtKoIR5Oz9bPKepwogmx/JApQX7GzkBIE92gRgp26di9AjzIKcbwzyhpzjoBtXRK48fZlZdLv7wxDm6jaZyiwttkHwLmeI5d0C858PLaJc8XQTy4zZe81fhbUr1I2xtra53Bvo69euiARB0L55gcqC/+qG5OxP+51GHdggl4QuIxctM68PX+f8DL6K7ej+5HC5ZeuLqaiv5ZeEq1ay5HTZHhu9akGC2DKIyBrIZl5YeGhyDAAIqpPtVS4t4xfXI8dJm+4RcgmwlQvj78VqoLF13qw/fwJjQ0ePQH7Vz71QU4G9ukFcgnPmgtCz6WrQ4PcVJf4iZ8Syv+V/r5ngt/j5Kmzn0nMh0YB40x4rlUf2vNpdexnxE3Rhv5WdXOgyPXBeeKRJZ3w7ghFqKcRzsU+YgKdfXiNxwwgorpwMw8CeV3tIeXncZjHt6uCgE/iFoAfLMDlM3LU2lnY7bYi8MwGoP2mvZzt8NiT/Hs1KQma3vdTRV9sOTLY4udT4RjyL0gvAh7+a8/ohpAVhY4xuu0fo7fBe7oT7hs4GbpTMfEhY4fP5FNGPJmM+wgtW12mGU27QwBR31YabZbB1J5zrPis0L7wIGY9vMz1yk7TEalkcm/zrKpc2ms8RFEXH8yagoez8d0+/7mjr2drg93BEE9mzj2pekoIXnJttNnxrwpCrILCMgpwdRXhMFoJlddSAJPAVurAMe7khx2biogmxouqz0RUA1Fy3fjJIizA7OIIE2uCNDk/VSmvc4j6HNPev/+8rVI8HZFCH9Tl83tf1/Da+3TIJMn8qx+IHO0Wd1znmosYUwO+hndb5BlraMwL5v1MjfZeOEldtXWsrap3B2RuIK265eyqbA50pxXvuq2yICykLmI99UyZBB5lLijSAzTUkHHEa25XCDv+C2Ji7W1IxA89HxZdJ30sJXOcDYrXKjFWpq8tEzKIwW1zOA5HdPVBpYP62CO+d2Ai6NCBKFaFx50Oq7QvGyWgSaiTxx8w9lrmbXGemUSjTGU552iBcnOoppsg5aY6d+/xNEOJXy6qNF2spa/IV1eLW9nC5P15So+ox3UtYxaPmwr249ZPVOXJasQUJcoAz34mC5bjRM1UZuEoyK9/KkmNMOgMhX1tdY35cnYGZNcseLObgbryTLzrMldIzOS4QqfxfPad2SCA3g/8SghIAH+y+7OWcrOJDk9kJGNybg5nHdyHCmvlFmZ5PXOWwZCk3xfI3iIZGUjmqaBfK7GrS9i5Xfl8O0EK44ueUDw8LDTzU6WMKKSbD9l3g5nL35/1fJ/j3D1wrJUbeqXdZKzuQfs1+9148AvPRRvUxt9/zRz8XbW4jfYkQK9I9wQxZprQiBS/vEDzdybZQOOg0FWz+HJl/xuUkUQPvHUysXz1zIe1mbU1vN63ObpfEcF1+X1CreKEMFTfltbFBJ7foq7d6sqgn/7zDMar1nGHugVXhQwlEj5ZRk0n20G362aY9BdOqZcbkn9y6ab3apAcmffU+0v7J70wXkcD4KrD61td0QwJit5hpoPseb+ThnhFi2ENvsdN1npXwgW2zS+LeEktAWbNytj9PLNcdp58Hwh0p+/8zuNzJwQ0dMbzCxl3oLESSAejabGfSEuHOcNRC7TUtzL2T85Idw2ZSV5t7vdlX3B3xRWO9YHqcXQs9D2o9JLIO1c2c/xITHE4mdLAvtc8qbUdGvt0Gwb9zkQ6lMcRuzNqz3xSQwci9OGOsV8lmxvRSk5IAebsmlu60MCQCzzQdhdqL/JRWK3yLnGYiwhrjqcKlSMsPUbp2xXmKWM94B/AFLxZUFwJfjq2EedlKhsH03aLEH29nzQobugXNf81OfdsNgWQhGI3jwWUiKP5BVPXiHVxiFHmJ8XHpeuM3RkcNAyDSNEkVP0+eD0kk16sNwcf6+2E56WeS0WKxaURbT28xgWRIwxnms1FX1j6RcbSYlk4Z9EV7Q9KFU7CmL4EgdyNEenNMTnmCcTjUclFPsx9FxykjC8SyrZvPMm45eeha+jEZIkPr1mFpn2KQfumuEPPHpd6LaR+f4ltJ1Hlwo3MB5gDIBdq3vffqPrCu5GsWDwPk0vqhFp969fRcBm+OP4r4CdHjwCFilFu5E7CZM1njRxoe3SG+LaN28Fm3sGT1IyYTrLC+HulVHTUz3osI1vI+/WttVjoQ1cmVWgd9N9TdgkmtGs7e5Z1sqajlXSSL6ItnL9b03aR+bFSMrdYLscmoEexO0ZLHFbmCD4SLsgavEURmKXn+honwghSHOJ/dGn7IMOqnTKwX32Pl2ZJAVO8ssNzKi+70JsuV80DxWPS2DkMOZqeeFOlTFyLPPzyRJ51CwQ8iS3LIF09DLZsce0YNzuSFAIu1hjiy97mnazztXlo+LVb0Bho1WaD2QI7Mhdd4IE8fIZ7Q+ADiuM+SO8mP5Efr9mk7ZG8Q7WLmZoY5EmIyA91XWFJq+Faeh+P3/0rxwyLHxj+CYkI1YjQ15b08fzYJN4BDcKPRpQDYUGJRLUxHBkAQf9opWz7pKR0jdqxjAQkOXiPuL11/O8RzElAdhOOQYKWuuba6Pn5fKCbwPAdD4sc9zfnhuWdohLs0y07nKb3/3TwOi/ItY3vQ78wqFhMAkuWv/956JzCQSlr/nYcgM8r6g7/xScyVwb1dsvK65J21+Xx+txSE9SVrcXeFZTvww8q+4/hhtMRGJWv8/BiEahXyIcmWO35cXM02+9rLDx5O8y0l7rpn+eTsqbw/QeMepT5oCBVY4/hoND2e4i8+nQoys8p5XwaJms3bIiE3x7GAvA+n8TfxSLeqmOzhg1wiMh7/MjLWV6ur6YOwo8Tun7XPslnfJkYd9yiK7ZcVUZlcJryCLYBgGaVnezeSJDJi2q/tWsyPb0IRNt3pW/k32/7/1ilyjpWKIuRHfJNwVTr286nh2zHLCdvDJtNjSn91u0wnxjDT6WjnAX0WIp7Wk12aV2D/Kt1dw1DbHqQgLHzPOJr9FO9ch7sfLVLBxlXMVaYdU/Ga/fnyHFUiQ8ynU+bWdYwFv4nqH0vvBgqacjsmzYNvhYp8pCYaBxDr81AwX6HFYwi7Ak16OwTnO49FFxlXv11cVRVxtAbjL9QLITOBTouATbBdit6Q9UB2XNdXF3GaesR0+8x2iou5rs+0BG+NbA1XZuUzp4olmIpuusKDcGGU8dM0FN9OHyL5lG8QeVxAisLg9+7QHOJAnO7VYLu6ieGxJxHCrc0DeFNJ92Wnq+V7pxr5GcXfYHnW+sBJb7hEQ2KXfswQS8MoA7V1qOqoBzC80cT4ZglieUqfJFhBhUaCjyna8qMPH4nwQBOtEnBoY8uw4aUj9NT+ZHd8JtdPqNj0MhIIDVMAo67z9rTge8MmdN9gzM6w86CTvQ+i62fowq2UIQ9/B12bjtK11epqeUlxTb/uLQW3R0dOFdsdZsBx67G0k4XCXh52J9Aa2z6+e6BL3FFL3a1cByapq5SeEXh8yakoyLTwRJ7ABsyEA1qD65Lk+33DObvwaKAqgR3ukyF9J9t3pf59tqR6cUFyiPnsDazEvUE/mWUEKBOMOIMIj/KFBrYRl0xx+LBAzx/GFS6omMnlR/qgoVMzfhD0W52XQuyado3YWFqZvDnsYEbuEW/EX7jIq/jo2kNeN0REfHdYeOwMPinlsMwt/p3jw9AhJ2sqnQN062rIRCBQuEOoWxsJOJ2nmv2AB6xNBvoN8JZBrn+PQkWoycmwT15ajejb9+Ab3FCPv7nbBJuXQhkP6ksu7XQXH/cF9mGtn2mWqC7S1bB3G++qxrGBFZqptoNZiUEhlaiKT50wk617zNPipZVmuEI2BJiTMneJalFntjfbB6laJn1GdYTKslLr5lBnITqIfUct/MA5wAnKpq4TfHSFyMC4Mwomp05tICOLrrO+iOHs19bs9JQk0XnmEEjMozjwtjrjKG2pqZD67HNDqatdD7owcSn3rkTZ7PEhxcGvs+x8ycQNdyT67jh91zHnBPHqRvnIP7R1gUfdZI1Vfve6FijBgfW2H0fO+4FXIJHfQliiASAx2a/FJWQoi/dHrJLmmiazp0i1OcVZcH5PrxXTYR+OW4d4LX83vbIkOpbvdK865mkUA/WaBvmfPoa4uF0izNgnNjEofuhg1DEJSnqrlUDBR1KwLjrscSO+o+kj7f9UEtjWRBAtn0tTURaRe3PaALUKDe3b8oa7D6GQLWO4a2xCG0ZkHzBJX+y9sFXy7hWjr1Wbd0s06s8A7EnLc/SLZWhJMZ3XhXEyStGgeITipZGBQrZBxUa0ANbPrqm+pWOPEzonyA94A0aInnnAYQmPDSjrqplAResnmzKvvPUeC5I0XHAyvPQ5UBeFFKfhLMH7IVxDOaDwtuTbavD1JtFoiihxn2wFMSQxyvcOmneEvJRDFoyh22a+hpQEQ9NxjwQQfHFgIjg9Q2tNyGCftx0Az/GeTKIq0OAYbPm6o6NM/33iPYhid8vZKYFrnJjZjzKzrmfDlBtClfoAL64KAo8kICLXnB49RGDebQ3dSJmgUKS6hCzOixQhIAqv/fma6Fjqu1ql4ijk1he8sUCnpZ/HphDqJDdZI6aRs0do4L6loD5QZiZV9ZIevagTRviDc8qQ4kVS5ZAAaYhKtZlfTlDyesKRkUYP6mhDk5GTg/f1XYju7E2vSnXyEAl/2qoo5IOvhi1Zkpcdoi6ijfAjXUtqAyr4pp+oe/k1YaH3F7YWxA9kamHYo0QOdGW81AngXljY5Ae30nTt7NNx2NlYs4junrapn+rJXmIdrFfnuc/HF+tD2nJnmfm7vvNXVWsxgJhuvmOZ9fPffxJ0WX9M+SRhijq7yEXaDrWiRmMlv1aKPnl9L8zS6wStD3XH1/NeqSSxPYHheDUjLy1oRGwJk1GWAYUcNekX+VNc9ksgrhhqDVw5ljOPUQEqeuOh7vWYCEHrMp0DvCXrf1gpdwaW8U0DPBQy99oUoeZkpo6sXqpLl55mloMN/uf9mMGOtYTecguX/uEhpWdGu24EiGXQpYO9ttGkZI3Qm+s+7ICoGnfjnuRmPAjPlB8HA84bFTPI912DMZdQwLpGsJZ16hmWffhRPkg1Y3heu6nXHvZ4dRkKbh4yps1DjVVLUNCURqaOn72juxIQc3PLrKUymR7ylXI/b6/RsCk5uDWBGbDo+CcnDBNKiC/wWPSrOp5xFA6iXoP5lXId6w4g5dBbuxtabpFW/0njOw9tR46Z11+xlbV4xkrv0+6DxkccFAZ7ppBw/EIqpTwwNvFBdlotY9aIPxdOyrqdRLu8pepiWFJzEhJhaOp0rcPUDeTlj4yZwrINbtER5AcqkIwORuy4V2H87d2m9L63lFnNl73nhDL3THxNVCXSJnj2f0wiKI7trO8bZWcrGSiy8va4BFAfUZqKnEgKuoFnmhHp/0mof99o2QR0mxkumKTw3CT02zwYG4QNJ0aZ0VRC5ehJw14SFCe6Zqne2Q9RUxIA10Fk2/BfNqyYLavdEsgGzCIChtGRusWxeSmuQjgD8+u5mC07WjxBI1TGrKNW1aLomj1h1WTrBHV0KMIQBhB6BarP5GB0BhAO+5kd1ELor85fRlT+Jt7gulNnWQCQv+A8kOgTaueqbp9qoVBFpFeNWk5jagIPE7CHFFQy8dj2IV2D5QEhuWF+8getYzsYHo9lY0MlPZgy6/KX7v/FzZOZvWGI0jEuLc35zqBB/HzmKm4PsYFCsCTpF7YwsoyqKKoAafJBdkvLKndi5P2HAcbH2IgrjAPbv1KqnlAGjpu+vCjRNyR3rE40bfQOaKaBiLHueJh4Gox+5+dUVL3nTZj1WyOug1lF5lCUi8Th9Yj3/6bgKRHyeHv8DK0b7xRyNwIzA0zHhKqL2mhPMOiLeOimwuChErVZz2jddFIuj8vTfjPqIcgn5W9ceWfbmXchfsBoUAM5VS0Y2fNRVrzq/bxXPPonubJioTh+RORLpxUrzIsar/myJY+lQVEn7ijR3cFnY32OvPklqEov+wcm54sUUvjHNC85qiyIHER/5TMSfDzc0FY0x1HDKMyB5BbnPKNkBTtrbpNFTuWPaZat+1sqaRU2bLzgScWD34MEomBIxZQNT2yF3tt3z0DH3/iGYw3licrxz8WZoYT0o+ES8YtCWRgvm78+8LukhmABJjbP+LvwU+ascieRyXjMIO3ScvI6HEBVZDwoJX0X5uwM+kGXPDZ3VUVQ6pVNH0gdUY+ZEUGNYlM4D8WkCCxST2xBJNMD7u/VkTwhDtvoMIpWQpZz6DpVUgSyHCQl16iyb9sd73bfSxdX0pgohN/gNmTtMANiS7VHqeBMb0BQqcPaapyLdjXyZJQ4OGLFMslva1tZn4lKw6831aiTnWqovyhLCsuPfGmfAGLQFlriLn9cB68EpJ5xjuyk2mjG+ULipos/i7AQBmaH8+xkiElYxKnAv5NVTNki5cU8Z1MKgGI0MYsf1scNRNLftqiq3+5FCJf6t3BRG9mY9DISoW3Bwzt7wZBNs6pnNpvZWo5XxGe0mMU8LrZiqsrRwYs7Ahtq0v8k93C2ttzqOBSm09NlyRI/LW1NpU3aHyhPciwPi783t1Y2uuCKO2N6ToW97v3w/N86NrmpkMzyEBf/0AizuIBe12NvWQmWE6avnEYwSBUyoh9rN1D4pOBbgdYrBB/wqZYM2vsC2j5AqTGFVp6UzSUolahJEQRnZDtnzLQkolLLAW2B4EimGp1Q/fCzuzUm1UV9Xue68/Sn4kHwYd3seYSFq8hRy03mQXtfzFacSX09rD5huiQWewaxsWbLczYuH6umd8wxy9lvlSEk0LIL3l/xDXlPhoyFhJnDD/dSK0oJzJ4jdefh9ncqMBUaVXLMghJ4XEOoU8R1BGMn9IN7qW2XofpI4LXili96vqWyOzTI4bJ9TiMx+KDiwkUJnIH00yh5RtGTcDD0vpcQNKOxGwnoss16isCocOere1cTgtl2Vu/ztNwpArQq0WnckbmrImAOeWoaEYLSmqRv7yg9SVHqnRBSSLXGhaZ/0uYRVofskTmmeRkI/dQBzssJS2B1JJ21gzo2zVwm3tCy7NAinRkOVUlcKGy4xFk/eG2IxKPS7YkMwqk3ftBr/S9VxMjztEQr+za9qFTYMx2xBSYymP40szxVSjH8TWrS+lCBQ5OTHPGgAMMDtGJcaVjWC8pSZr9RF9DKboxavzOYd6FaJ/cOofXr9P5bg/cMjgBsuX9KKYSUoDCAlQ2+nj8FUHNPIQBpTR76YUudpZMTIX/VVrnmxfw32cTA07ngDC0aGczoXC2aZqE2cWf+o5Bj2QfX+2RNJB8YYO8c9ATp7J169BNthqNlu/e8dLcS4+a8UGGGXapzBU4ZEzmKO1WTL+lv7UghoedYK+IKBthBlLmmwLSvPTR1izVeSrLNHKJquucITNk3VL5p+p3CL8bbLoqdJV+xOlk3sg6tWDv2MonfLcFeUpUsu3rUY/fE8h7kNTh7YZXlhVebbGMYEZ/eJiXaBrjBdCE+4H7jVpNCt/FOm875aZiLFuphnH+xHlmT17Dok5EtRaAi3u1kJDp5ik1wePTnGbHoKZ7UfaXUmMXsVjnEdaz6NLjB0c6Z0JXUybNHABs19BIRgsl6Om0dTCHxcgxri98RvgOZ4+cJzEXbQTiFo559hsdwjxfee6Ara7EaODXy3FXMxTWwS6TFOThF1A888rlIgQBupNSbjxErXiTieUGMrc8wjzJoReUrEC0C0YgHx0zaKJ+Gn6n4PMDABx4Z/Ui8tVKo1NSozoQBXVwoV+k5bVjSgPyLJagthcDvMP7W6wqXKqlzknxog1p5xuHj1YE8v+Nm065C2UzItnEXqcjbileSbWwoT40z0r7IzNs9htEXfu8ylRxsemAuk92dIvwqVxFJ6Q9M+DMO5vJBN8PGg9JSaZORc3SqyMVqRKEHwqEnTnDzc9hhqwRl2eAMKF2AbXo7D1L98b9l0B5v29mUbJMNTIz1nONz8ngUuNDIbiS+5xT/QW8DiiFOUdWw9wF2zmZkGp2V4jIiRNRxbEp2+KP/wQhclXV4mtNbnp8M9HPYEofgEg7xBV3IBFlpxHCOzpmLyqu/AGGd6i00ikOwRpEikHFuABn6q34zJa/+0/OD7LXZGcIdiCAKcTCoMZ7zxfo12V8gy4TTnjBrsmy2VZ/dr/NfsoJOYWMONCVWmi5UfWAZyXffQ989PJ/hUL9WvI8FWTkrQiphIBOilS9fZVF+YoF+Juu9UFpefbdlsI9L2voL8m3DnKplTS5ckQ8SxMEtfJGIFlC8DH1rXuYmAPH7WmznmMOAInniXk6BjCzNPm2R7bZr1Q/8bYaHWRlZMRk3dp6Lw4Sv7K1iTQyCsBtrfHQx9krqTixr2I+9sS/Gaq1fONF2oO7W5Jdy86uSmWfXMroLwu6aSf1aEM86F1O86k6Mnk/21Au0dRIhPugYqFB5If/EjVfM1DuIkf5D2Wr6F+kDuqg8NsswRd8xX3wj32fP8X/kUm1RX+a7LZijUHD9mymrwzMwKIboQbTF6e6zDIcfsmle/afj3s5Gwqm72BavIE957/BRGo+k3QKBIwhMTLifLWtKAFOfLCnWxb4To3kIofgSEFBuOmqMklD20HUBbBhecq7sBttCcK9uWCgxuHIRgQUeM9kutbKNhVcwLyOPHt1pHV1fyburu3r1p+OyZUcgGBcCXcEEVRzh3DXnPxtA0Xsa6L0Nv+sX71zR4Y/y3eWESFSjDBR5F3rB1EItxGNmyys/aXZqiW634f0GtKSdcTVVhbPtANX3OGkKPXos8i3gLyJIOh4berZwUNnw4c5fwSL0vpaefKaKTyzJJWdBTNwgyt0V6HxjJGbvsUlPxt5p4UU2n4jT5dgOsVI/J6yW5as3oaCN6kSgHjSPGIUnTUmQmkzBdodSPFHx48p7btur8BvtQWp4OHmSlRMMpdNl0sHI/4wJLSg3JdxAlW71i8FSly7+YkEl+pQ45i/ngxPPRK6jcHHdDpbZ2eA95ttqsY/UzT6nl0vwKxgper7G2NQoSPbXCVdHxaYYIZGxV+s+Ij/FkQQAmFC66NzFagBgzmT4ucK1SF5jldXYo5/UZ2YRWsGYNSG3fsZCjyMLtigMpL7wI6rDjCmi43A/t/jOgWC0FNx7kv2nMLfYC8dHN8I/iHY3tmroU1+XzG84gbari3648H88Hu/tnaftzvMrC4JlSLddbZUy5d2l8PcuC+9JXotaNK/Bt5m2JZuWKxMH23CJ+bEzKMUGsCN7ICJh0ZBrXmBYbUkf6TeTvLkUofrctDG+FCmCmp8p3W7soIbpRbFhAOxT+0WsJYO22YvHH8QVviFcRB+cgSZL6PkRjn4blL5R7zzfFbmQ1MiE5fFSmLRsKHORaSKD5QwAPg15Wpot/NTQsTvx2ZGVLKjwS1zlNMY3ElMS5IEEwH9yvqY5wVD7NZoiOzBZeIZc6Al1iJ1nJUC36Z2qzlYu+DnUXDCogGfnbR957QMfrgr3BcSEaE04Ecbksfs0PFeQJIhwLwtdJRhgSoS+f1hkkaec5fqD9lcaXVU4xroYwaLIH73lUqIuXj6RTK4fOvfecDrK68K+TgkHEoiW9xIRbZA1Wvh6Vkd17qFBIxaZcC0cjzFAtc/QkydsLDHHkOFAxOtqgcXvTBizm4W5LIo1gmGN9Aq89/1xEpCGapR8WSAvlqfVqOisgy0HDBBHJYD1/Bt+5TlQJ//G7q0yV6EoUiMCWDn7X+b81885oIBmfmo1Wv65dAvASV67VF7Z9pP+I30edpgexIP1B3k6s4GZVsIYJNgD7knX9ZOPb1xZZ7Xkq71ITRvVE9iait4bYLGS0QWtnvHUOzW0FJxkynPMzt4oZk518LpRtTJUzZ7bpjEk7DWEraUHa3T3TDUBVv70T5D/JEt0KugT7D/f3/qiQVxtS3AnOcNABAS4IBzC/++xSxjnc66x5FAu/qFfYQdOIXR8ObXitw0Y4EGeicS+uq4On/f8aiJ2FqcKzS+0Z6zRFjZLNzg8HFceA/yY9/N3lY0S/wd2tPOu0Zbwx3gZOSJLqcjBko/L7vXMbpXmst3ediCduwQQYUrE9yNPDoKTgcGDndjD+b+V3blncg9rStrDBBTzFu4ldWvaK0N83zI0tycf/RtG6p+BfRDtCiiNPNOijd4MQPWTDvsY2KTRgEwMtSGhbT3Xcy0I5knEV8Vat1EYxUlxRFtsKUgrOBnSAe14Tj69eUW3r/nsH/pBPDWcrT5GF6OyeJrnrrrsmJUi+5hOpfhOpEvMZRGAHcZmbRVd0zNMm4CgJU9CKVLOvWZIAjcZ9TkogXmcqLEIeyEGx1mVnL6YAAVaPkiP36OllpP3qUiULlCiHggR4hSDCwga29XebVjzAc518GbiXL5gdiCdJGJLgTqriast4cw/i++iUg9kZ0mnkCMthLrj4XAsK17BwJAwvLJmvpn7QNTWGt0nqkA1yBkjRqkKDZuYHmtzL3cPcoew9IbAj0i/RhAvvyVXDyt08GXPA5kpKAqYzCaRedQ7hFRmOVxcYFF6ZYzzHuioa5Qxf3njwvOYn8N5TYhzxPhrFQXmKazjZhMZe4DLdXzItY2no3MzROzvOTiNeRL6OogHAa9uyPc9DpOlDSdET3BiAduSxBj+GEQjDtD28wF3adaXeSDv6vFHHhr5+ag8+1+TO52wm1jAK3q2Cs672AXs20d6YCG5pWJsl4mmaNhvPp4JVkNn1PqAJEqreKZdLx7VhGxa1NiZdmuKV0iKTECQnomcD/XNhgZprd4Azw4sjFnFgznlyHb+cpL77cnbXQUoZ4cBJ8hdoGSuziDCTSUi2PB3WuT6wadjs4/AbV83Mwu7xCrz0GMCpFicqS3AABFWElGugAAAEV4aWYAAElJKgAIAAAABgASAQMAAQAAAAEAAAAaAQUAAQAAAFYAAAAbAQUAAQAAAF4AAAAoAQMAAQAAAAIAAAATAgMAAQAAAAEAAABphwQAAQAAAGYAAAAAAAAASAAAAAEAAABIAAAAAQAAAAYAAJAHAAQAAAAwMjEwAZEHAAQAAAABAgMAAKAHAAQAAAAwMTAwAaADAAEAAAD//wAAAqAEAAEAAADkAgAAA6AEAAEAAADtAQAAAAAAAA==;" parent="1" vertex="1">
          <mxGeometry x="159.71" y="272.3399999999999" width="120.57" height="80.32" as="geometry" />
        </mxCell>
        <mxCell id="SRzlekF5WkanAZLblf2s-52" value="Image Input" style="text;html=1;align=center;verticalAlign=middle;whiteSpace=wrap;rounded=0;" parent="1" vertex="1">
          <mxGeometry x="185" y="252.34" width="70" height="20" as="geometry" />
        </mxCell>
      </root>
    </mxGraphModel>
  </diagram>
</mxfile>
